<svg xmlns="http://www.w3.org/2000/svg" xmlns:xlink="http://www.w3.org/1999/xlink" width="458" zoomAndPan="magnify" viewBox="0 0 343.5 251.250001" height="335" preserveAspectRatio="xMidYMid meet" version="1.0"><defs><filter x="0%" y="0%" width="100%" height="100%" id="659ea46b2c"><feColorMatrix values="0 0 0 0 1 0 0 0 0 1 0 0 0 0 1 0 0 0 1 0" color-interpolation-filters="sRGB"/></filter><mask id="6e1d38b90f"><g filter="url(#659ea46b2c)"><rect x="-34.35" width="412.2" fill="#000000" y="-25.125" height="301.500001" fill-opacity="0.33"/></g></mask><clipPath id="43004216af"><path d="M 0.867188 0.746094 L 87.535156 0.746094 L 87.535156 83 L 0.867188 83 Z M 0.867188 0.746094 " clip-rule="nonzero"/></clipPath><clipPath id="611db28181"><rect x="0" width="88" y="0" height="84"/></clipPath><clipPath id="d12fda1065"><path d="M 206 125 L 342.738281 125 L 342.738281 250.503906 L 206 250.503906 Z M 206 125 " clip-rule="nonzero"/></clipPath><mask id="a512182198"><g filter="url(#659ea46b2c)"><rect x="-34.35" width="412.2" fill="#000000" y="-25.125" height="301.500001" fill-opacity="0.33"/></g></mask><clipPath id="52446cfe17"><path d="M 0.78125 0.226562 L 136.738281 0.226562 L 136.738281 125.503906 L 0.78125 125.503906 Z M 0.78125 0.226562 " clip-rule="nonzero"/></clipPath><mask id="4b4abe460b"><g filter="url(#659ea46b2c)"><rect x="-281.57" width="494.64" fill="#000000" y="-180.275" height="361.800001" fill-opacity="0.31"/></g></mask><clipPath id="65e65c64f3"><path d="M 74 0.226562 L 92 0.226562 L 92 12 L 74 12 Z M 74 0.226562 " clip-rule="nonzero"/></clipPath><clipPath id="7323ec28fd"><path d="M 75 30 L 136.738281 30 L 136.738281 125.503906 L 75 125.503906 Z M 75 30 " clip-rule="nonzero"/></clipPath><clipPath id="7bfecf2e18"><path d="M 0.78125 0.226562 L 112 0.226562 L 112 67 L 0.78125 67 Z M 0.78125 0.226562 " clip-rule="nonzero"/></clipPath><clipPath id="b38a3a4647"><rect x="0" width="137" y="0" height="126"/></clipPath><clipPath id="0a4165eff8"><rect x="0" width="137" y="0" height="126"/></clipPath><mask id="c88824340d"><g filter="url(#659ea46b2c)"><rect x="-34.35" width="412.2" fill="#000000" y="-25.125" height="301.500001" fill-opacity="0.08"/></g></mask><clipPath id="3772d73933"><path d="M 0.441406 0.203125 L 104 0.203125 L 104 83.953125 L 0.441406 83.953125 Z M 0.441406 0.203125 " clip-rule="nonzero"/></clipPath><clipPath id="84cdcb64c8"><rect x="0" width="105" y="0" height="84"/></clipPath></defs><g mask="url(#6e1d38b90f)"><g transform="matrix(1, 0, 0, 1, 63, -0.000000000000022482)"><g clip-path="url(#611db28181)"><g clip-path="url(#43004216af)"><path fill="#00bf63" d="M 86.800781 38.238281 C 86.429688 38.125 86.046875 38.289062 85.875 38.625 L 75.199219 35.273438 C 75.203125 35.246094 75.207031 35.21875 75.207031 35.191406 C 75.207031 35.1875 75.207031 35.1875 75.207031 35.183594 C 75.207031 35.152344 75.207031 35.117188 75.203125 35.078125 C 75.203125 35.066406 75.199219 35.054688 75.199219 35.046875 C 75.199219 35.039062 75.199219 35.035156 75.195312 35.027344 C 75.1875 34.980469 75.175781 34.9375 75.15625 34.898438 C 75.152344 34.890625 75.152344 34.890625 75.152344 34.882812 C 75.132812 34.839844 75.113281 34.800781 75.085938 34.757812 C 75.085938 34.757812 75.085938 34.753906 75.085938 34.75 C 75.082031 34.746094 75.082031 34.746094 75.078125 34.742188 C 75.054688 34.710938 75.03125 34.675781 75.003906 34.644531 C 74.996094 34.640625 74.996094 34.632812 74.988281 34.628906 C 74.960938 34.601562 74.929688 34.578125 74.902344 34.554688 C 74.894531 34.550781 74.886719 34.542969 74.882812 34.539062 C 74.847656 34.515625 74.816406 34.496094 74.78125 34.476562 C 74.777344 34.476562 74.773438 34.472656 74.773438 34.472656 C 74.738281 34.453125 74.699219 34.4375 74.660156 34.425781 C 74.617188 34.414062 74.574219 34.40625 74.53125 34.398438 C 74.527344 34.398438 74.523438 34.398438 74.523438 34.398438 C 74.484375 34.394531 74.441406 34.394531 74.398438 34.394531 C 74.394531 34.394531 74.390625 34.394531 74.386719 34.394531 C 74.371094 34.394531 74.359375 34.394531 74.34375 34.394531 C 74.324219 34.398438 74.3125 34.402344 74.296875 34.40625 C 74.277344 34.410156 74.253906 34.414062 74.234375 34.417969 C 74.210938 34.425781 74.1875 34.433594 74.164062 34.441406 C 74.152344 34.445312 74.140625 34.449219 74.128906 34.453125 L 58.914062 10.496094 C 59.0625 10.359375 59.160156 10.167969 59.167969 9.949219 C 59.167969 9.9375 59.164062 9.925781 59.164062 9.917969 L 68.085938 8.363281 C 68.210938 8.714844 68.574219 8.9375 68.953125 8.871094 C 69.375 8.796875 69.664062 8.390625 69.589844 7.96875 C 69.515625 7.542969 69.109375 7.257812 68.6875 7.332031 C 68.308594 7.398438 68.042969 7.726562 68.042969 8.101562 L 59.121094 9.65625 C 59.039062 9.425781 58.851562 9.246094 58.617188 9.175781 L 59.472656 2.394531 C 59.84375 2.378906 60.160156 2.097656 60.210938 1.714844 C 60.265625 1.289062 59.960938 0.894531 59.535156 0.84375 C 59.109375 0.789062 58.71875 1.089844 58.664062 1.515625 C 58.613281 1.898438 58.851562 2.253906 59.207031 2.359375 L 58.351562 9.140625 C 57.992188 9.15625 57.699219 9.410156 57.625 9.753906 L 26.058594 8.617188 C 26.058594 8.605469 26.054688 8.601562 26.050781 8.589844 C 26.046875 8.5625 26.039062 8.539062 26.035156 8.515625 C 26.03125 8.507812 26.03125 8.5 26.027344 8.488281 C 26.019531 8.464844 26.007812 8.441406 25.996094 8.417969 C 25.992188 8.398438 25.984375 8.378906 25.972656 8.363281 C 25.972656 8.359375 25.96875 8.359375 25.96875 8.355469 C 25.96875 8.351562 25.96875 8.351562 25.96875 8.351562 C 25.957031 8.332031 25.945312 8.316406 25.933594 8.300781 C 25.921875 8.285156 25.914062 8.265625 25.902344 8.25 C 25.898438 8.246094 25.894531 8.242188 25.890625 8.238281 C 25.878906 8.226562 25.871094 8.21875 25.859375 8.207031 C 25.859375 8.207031 25.855469 8.203125 25.855469 8.203125 C 25.839844 8.1875 25.828125 8.167969 25.808594 8.152344 C 25.800781 8.148438 25.796875 8.144531 25.789062 8.136719 C 25.777344 8.125 25.761719 8.113281 25.746094 8.105469 C 25.722656 8.085938 25.699219 8.070312 25.675781 8.054688 C 25.65625 8.042969 25.636719 8.035156 25.621094 8.023438 C 25.617188 8.019531 25.613281 8.019531 25.609375 8.015625 L 26.253906 5.632812 C 26.621094 5.667969 26.980469 5.433594 27.078125 5.0625 C 27.191406 4.648438 26.945312 4.214844 26.53125 4.105469 C 26.113281 3.992188 25.683594 4.238281 25.574219 4.65625 C 25.472656 5.023438 25.660156 5.410156 25.996094 5.566406 L 25.351562 7.949219 C 25.34375 7.949219 25.339844 7.949219 25.335938 7.949219 C 25.324219 7.949219 25.316406 7.949219 25.308594 7.949219 C 25.300781 7.949219 25.292969 7.949219 25.289062 7.949219 C 25.269531 7.949219 25.25 7.949219 25.230469 7.949219 C 25.210938 7.949219 25.195312 7.953125 25.175781 7.957031 C 25.160156 7.960938 25.148438 7.960938 25.136719 7.964844 C 25.113281 7.96875 25.097656 7.972656 25.082031 7.976562 C 25.066406 7.980469 25.046875 7.988281 25.027344 7.992188 C 25.015625 7.996094 25 8 24.988281 8.007812 C 24.972656 8.015625 24.957031 8.019531 24.941406 8.03125 C 24.925781 8.039062 24.910156 8.046875 24.890625 8.058594 C 24.878906 8.0625 24.867188 8.070312 24.855469 8.078125 C 24.84375 8.085938 24.828125 8.097656 24.816406 8.105469 C 24.800781 8.121094 24.78125 8.128906 24.769531 8.144531 C 24.757812 8.152344 24.75 8.160156 24.738281 8.171875 C 24.730469 8.179688 24.71875 8.195312 24.707031 8.203125 C 24.695312 8.21875 24.679688 8.234375 24.664062 8.25 C 24.65625 8.261719 24.648438 8.269531 24.640625 8.285156 C 24.632812 8.296875 24.625 8.308594 24.617188 8.324219 C 24.613281 8.335938 24.601562 8.347656 24.597656 8.359375 L 13.105469 4.476562 C 13.164062 4.105469 12.949219 3.742188 12.585938 3.617188 C 12.183594 3.480469 11.734375 3.699219 11.597656 4.105469 C 11.460938 4.511719 11.683594 4.957031 12.089844 5.09375 C 12.453125 5.21875 12.847656 5.054688 13.023438 4.730469 L 24.511719 8.617188 C 24.511719 8.621094 24.511719 8.625 24.511719 8.625 C 24.507812 8.632812 24.507812 8.644531 24.507812 8.65625 C 24.507812 8.667969 24.507812 8.671875 24.507812 8.683594 C 24.507812 8.691406 24.503906 8.699219 24.503906 8.707031 C 24.503906 8.714844 24.503906 8.71875 24.503906 8.726562 C 24.503906 8.738281 24.503906 8.753906 24.503906 8.765625 C 24.503906 8.789062 24.507812 8.808594 24.507812 8.832031 C 24.511719 8.847656 24.511719 8.863281 24.515625 8.878906 C 24.519531 8.890625 24.519531 8.902344 24.523438 8.914062 C 24.527344 8.9375 24.535156 8.957031 24.542969 8.976562 C 24.550781 8.992188 24.550781 9.007812 24.558594 9.027344 C 24.5625 9.03125 24.566406 9.042969 24.570312 9.050781 C 24.578125 9.070312 24.589844 9.089844 24.597656 9.105469 C 24.609375 9.121094 24.617188 9.140625 24.628906 9.160156 C 24.632812 9.164062 24.636719 9.167969 24.640625 9.175781 C 24.652344 9.191406 24.664062 9.207031 24.679688 9.226562 L 8.628906 27.523438 C 8.625 27.523438 8.625 27.519531 8.621094 27.519531 C 8.617188 27.519531 8.617188 27.515625 8.613281 27.515625 C 8.605469 27.515625 8.601562 27.511719 8.59375 27.507812 C 8.585938 27.503906 8.582031 27.496094 8.574219 27.492188 C 8.566406 27.492188 8.5625 27.488281 8.550781 27.484375 C 8.539062 27.476562 8.527344 27.472656 8.515625 27.46875 C 8.507812 27.464844 8.492188 27.457031 8.484375 27.453125 C 8.472656 27.449219 8.460938 27.445312 8.449219 27.445312 C 8.4375 27.441406 8.425781 27.4375 8.414062 27.433594 C 8.40625 27.429688 8.398438 27.429688 8.390625 27.425781 C 8.375 27.425781 8.359375 27.421875 8.34375 27.421875 C 8.332031 27.417969 8.3125 27.417969 8.300781 27.414062 C 8.289062 27.414062 8.277344 27.410156 8.265625 27.410156 C 8.261719 27.410156 8.261719 27.410156 8.257812 27.410156 C 8.242188 27.410156 8.222656 27.410156 8.203125 27.410156 C 8.1875 27.410156 8.175781 27.410156 8.15625 27.410156 C 8.152344 27.410156 8.140625 27.410156 8.132812 27.410156 C 8.128906 27.410156 8.121094 27.414062 8.117188 27.414062 C 8.101562 27.417969 8.082031 27.421875 8.066406 27.425781 C 8.046875 27.425781 8.035156 27.429688 8.019531 27.433594 C 8.011719 27.4375 8 27.4375 7.996094 27.441406 C 7.992188 27.441406 7.984375 27.445312 7.980469 27.445312 C 7.964844 27.449219 7.945312 27.460938 7.929688 27.46875 C 7.910156 27.472656 7.898438 27.476562 7.882812 27.484375 C 7.878906 27.484375 7.875 27.488281 7.875 27.488281 C 7.871094 27.488281 7.867188 27.492188 7.863281 27.492188 C 7.859375 27.496094 7.855469 27.496094 7.847656 27.5 C 7.839844 27.507812 7.828125 27.515625 7.816406 27.519531 C 7.808594 27.523438 7.796875 27.53125 7.792969 27.535156 C 7.777344 27.542969 7.761719 27.550781 7.75 27.5625 C 7.746094 27.566406 7.742188 27.566406 7.738281 27.570312 L 3.445312 23.710938 C 3.644531 23.394531 3.59375 22.972656 3.308594 22.714844 C 2.984375 22.429688 2.5 22.453125 2.207031 22.773438 C 1.921875 23.097656 1.945312 23.582031 2.265625 23.875 C 2.554688 24.132812 2.976562 24.140625 3.273438 23.910156 L 7.570312 27.773438 C 7.566406 27.78125 7.558594 27.785156 7.554688 27.792969 C 7.554688 27.796875 7.554688 27.796875 7.550781 27.800781 C 7.550781 27.804688 7.550781 27.804688 7.550781 27.808594 C 7.546875 27.808594 7.546875 27.816406 7.542969 27.820312 C 7.539062 27.828125 7.535156 27.828125 7.53125 27.835938 C 7.523438 27.859375 7.515625 27.878906 7.503906 27.902344 C 7.5 27.917969 7.492188 27.929688 7.488281 27.941406 C 7.484375 27.949219 7.484375 27.953125 7.484375 27.960938 C 7.476562 27.988281 7.46875 28.023438 7.464844 28.054688 C 7.460938 28.066406 7.460938 28.078125 7.457031 28.09375 C 7.457031 28.097656 7.457031 28.097656 7.457031 28.097656 C 7.441406 28.195312 7.449219 28.292969 7.472656 28.382812 C 7.472656 28.386719 7.472656 28.390625 7.472656 28.390625 C 7.476562 28.402344 7.480469 28.414062 7.484375 28.425781 C 7.492188 28.445312 7.496094 28.460938 7.503906 28.480469 L 2.351562 31.65625 C 2.105469 31.378906 1.683594 31.308594 1.355469 31.511719 C 0.988281 31.742188 0.875 32.214844 1.101562 32.582031 C 1.328125 32.949219 1.808594 33.0625 2.175781 32.835938 C 2.503906 32.628906 2.625 32.230469 2.488281 31.878906 L 7.640625 28.703125 C 7.65625 28.714844 7.667969 28.730469 7.683594 28.746094 C 7.6875 28.75 7.695312 28.761719 7.703125 28.769531 C 7.707031 28.773438 7.707031 28.773438 7.707031 28.773438 C 7.707031 28.773438 7.710938 28.773438 7.710938 28.777344 C 7.722656 28.785156 7.730469 28.792969 7.738281 28.796875 C 7.746094 28.800781 7.75 28.808594 7.753906 28.816406 L 1.992188 40.132812 C 1.632812 40.019531 1.246094 40.175781 1.066406 40.519531 C 0.871094 40.910156 1.023438 41.367188 1.40625 41.570312 C 1.792969 41.761719 2.253906 41.613281 2.453125 41.230469 C 2.625 40.878906 2.523438 40.476562 2.222656 40.25 L 7.988281 28.933594 C 8.003906 28.941406 8.023438 28.941406 8.042969 28.945312 C 8.0625 28.953125 8.085938 28.953125 8.105469 28.957031 C 8.113281 28.957031 8.113281 28.960938 8.121094 28.960938 C 8.121094 28.960938 8.121094 28.960938 8.125 28.960938 C 8.144531 28.964844 8.160156 28.960938 8.179688 28.964844 C 8.199219 28.964844 8.21875 28.96875 8.242188 28.96875 C 8.25 28.96875 8.257812 28.96875 8.269531 28.96875 C 8.277344 28.96875 8.292969 28.964844 8.300781 28.964844 C 8.304688 28.964844 8.3125 28.964844 8.3125 28.960938 C 8.324219 28.960938 8.335938 28.960938 8.34375 28.957031 L 21.503906 67.753906 C 21.496094 67.757812 21.492188 67.761719 21.484375 67.765625 C 21.476562 67.769531 21.46875 67.769531 21.464844 67.777344 C 21.449219 67.789062 21.429688 67.800781 21.414062 67.8125 C 21.40625 67.816406 21.402344 67.820312 21.398438 67.824219 C 21.386719 67.832031 21.378906 67.839844 21.367188 67.847656 C 21.367188 67.847656 21.363281 67.847656 21.363281 67.851562 C 21.359375 67.855469 21.359375 67.855469 21.359375 67.859375 C 21.339844 67.875 21.324219 67.886719 21.308594 67.90625 C 21.308594 67.90625 21.304688 67.90625 21.304688 67.910156 C 21.289062 67.929688 21.273438 67.945312 21.261719 67.964844 C 21.257812 67.96875 21.253906 67.972656 21.25 67.976562 C 21.246094 67.988281 21.238281 67.996094 21.230469 68.007812 C 21.226562 68.011719 21.226562 68.015625 21.222656 68.019531 C 21.207031 68.042969 21.195312 68.066406 21.179688 68.09375 C 21.179688 68.101562 21.179688 68.105469 21.175781 68.109375 C 21.171875 68.113281 21.171875 68.117188 21.167969 68.125 C 21.164062 68.128906 21.160156 68.136719 21.15625 68.144531 C 21.144531 68.175781 21.132812 68.207031 21.125 68.242188 C 21.125 68.242188 21.121094 68.246094 21.121094 68.25 C 21.121094 68.25 21.121094 68.253906 21.121094 68.253906 C 21.117188 68.261719 21.117188 68.269531 21.113281 68.277344 C 21.109375 68.3125 21.101562 68.351562 21.097656 68.386719 C 21.097656 68.390625 21.097656 68.394531 21.097656 68.394531 C 21.097656 68.398438 21.097656 68.402344 21.097656 68.402344 C 21.097656 68.417969 21.097656 68.425781 21.097656 68.441406 C 21.097656 68.445312 21.097656 68.453125 21.097656 68.460938 C 21.097656 68.480469 21.101562 68.503906 21.101562 68.523438 C 21.101562 68.527344 21.101562 68.53125 21.101562 68.535156 C 21.101562 68.535156 21.101562 68.539062 21.101562 68.539062 C 21.105469 68.558594 21.109375 68.582031 21.109375 68.601562 C 21.109375 68.601562 21.109375 68.601562 21.109375 68.605469 C 21.109375 68.605469 21.109375 68.609375 21.109375 68.609375 C 21.117188 68.632812 21.121094 68.65625 21.128906 68.675781 C 21.128906 68.679688 21.132812 68.683594 21.132812 68.6875 C 21.136719 68.710938 21.148438 68.730469 21.15625 68.753906 C 21.15625 68.757812 21.160156 68.757812 21.160156 68.761719 C 21.171875 68.78125 21.179688 68.796875 21.1875 68.816406 C 21.191406 68.824219 21.195312 68.828125 21.195312 68.832031 C 21.203125 68.851562 21.214844 68.863281 21.222656 68.878906 C 21.226562 68.886719 21.234375 68.894531 21.238281 68.898438 C 21.242188 68.902344 21.246094 68.910156 21.246094 68.914062 L 9.527344 81.332031 C 9.21875 81.128906 8.792969 81.167969 8.53125 81.445312 C 8.238281 81.757812 8.246094 82.253906 8.5625 82.546875 C 8.875 82.839844 9.371094 82.832031 9.664062 82.515625 C 9.929688 82.234375 9.945312 81.808594 9.722656 81.511719 L 21.441406 69.089844 C 21.449219 69.09375 21.453125 69.097656 21.457031 69.097656 C 21.46875 69.105469 21.476562 69.113281 21.492188 69.121094 C 21.5 69.125 21.511719 69.128906 21.519531 69.136719 C 21.523438 69.140625 21.53125 69.140625 21.535156 69.144531 C 21.542969 69.144531 21.550781 69.148438 21.558594 69.152344 C 21.570312 69.15625 21.582031 69.164062 21.589844 69.164062 C 21.605469 69.171875 21.617188 69.175781 21.628906 69.179688 C 21.640625 69.183594 21.648438 69.1875 21.660156 69.1875 C 21.660156 69.1875 21.664062 69.1875 21.664062 69.1875 C 21.664062 69.1875 21.667969 69.1875 21.667969 69.1875 C 21.679688 69.191406 21.691406 69.195312 21.703125 69.195312 C 21.714844 69.199219 21.722656 69.199219 21.734375 69.203125 C 21.75 69.207031 21.765625 69.207031 21.785156 69.210938 C 21.792969 69.210938 21.800781 69.210938 21.808594 69.210938 C 21.816406 69.210938 21.824219 69.214844 21.832031 69.214844 C 21.84375 69.214844 21.851562 69.214844 21.863281 69.214844 C 21.871094 69.214844 21.875 69.214844 21.882812 69.214844 C 21.902344 69.214844 21.925781 69.210938 21.945312 69.210938 C 21.949219 69.210938 21.953125 69.210938 21.960938 69.210938 C 21.964844 69.210938 21.976562 69.210938 21.984375 69.210938 L 25.964844 81.289062 C 25.632812 81.464844 25.46875 81.851562 25.585938 82.21875 C 25.722656 82.628906 26.164062 82.851562 26.574219 82.714844 C 26.980469 82.578125 27.207031 82.140625 27.070312 81.730469 C 26.949219 81.363281 26.582031 81.148438 26.214844 81.203125 L 22.234375 69.121094 C 22.234375 69.121094 22.238281 69.121094 22.242188 69.117188 C 22.246094 69.113281 22.253906 69.113281 22.257812 69.109375 C 22.265625 69.101562 22.277344 69.097656 22.285156 69.089844 C 22.289062 69.085938 22.292969 69.085938 22.296875 69.082031 C 22.324219 69.066406 22.347656 69.046875 22.371094 69.03125 C 22.371094 69.027344 22.375 69.027344 22.378906 69.023438 C 22.382812 69.019531 22.382812 69.019531 22.386719 69.015625 C 22.390625 69.011719 22.390625 69.007812 22.394531 69.007812 C 22.398438 69.003906 22.402344 69 22.402344 69 C 22.425781 68.980469 22.445312 68.957031 22.464844 68.933594 C 22.472656 68.925781 22.476562 68.917969 22.484375 68.914062 C 22.484375 68.910156 22.484375 68.910156 22.488281 68.90625 C 22.507812 68.878906 22.527344 68.851562 22.546875 68.816406 C 22.550781 68.808594 22.550781 68.804688 22.554688 68.800781 C 22.558594 68.796875 22.558594 68.792969 22.5625 68.789062 C 22.578125 68.757812 22.59375 68.722656 22.605469 68.691406 C 22.605469 68.6875 22.609375 68.683594 22.609375 68.679688 C 22.609375 68.675781 22.613281 68.671875 22.613281 68.667969 C 22.625 68.625 22.632812 68.585938 22.640625 68.546875 C 22.640625 68.542969 22.640625 68.539062 22.640625 68.539062 C 22.640625 68.519531 22.644531 68.5 22.644531 68.480469 C 22.644531 68.46875 22.644531 68.460938 22.644531 68.445312 C 22.644531 68.4375 22.644531 68.425781 22.644531 68.414062 C 22.644531 68.410156 22.644531 68.40625 22.644531 68.402344 L 56.464844 61.050781 C 56.464844 61.054688 56.46875 61.058594 56.46875 61.058594 C 56.488281 61.097656 56.507812 61.136719 56.53125 61.179688 C 56.535156 61.183594 56.539062 61.1875 56.539062 61.191406 C 56.566406 61.230469 56.59375 61.265625 56.625 61.296875 C 56.628906 61.300781 56.632812 61.304688 56.636719 61.308594 C 56.644531 61.316406 56.65625 61.328125 56.667969 61.335938 L 51.710938 69.140625 C 51.367188 68.996094 50.957031 69.117188 50.75 69.441406 C 50.523438 69.804688 50.628906 70.289062 50.992188 70.515625 C 51.355469 70.746094 51.835938 70.640625 52.066406 70.277344 C 52.273438 69.953125 52.207031 69.53125 51.929688 69.28125 L 56.886719 61.476562 C 56.886719 61.476562 56.890625 61.476562 56.890625 61.476562 C 56.9375 61.496094 56.984375 61.511719 57.035156 61.519531 C 57.035156 61.519531 57.039062 61.519531 57.039062 61.519531 C 57.085938 61.53125 57.132812 61.535156 57.179688 61.535156 C 57.183594 61.535156 57.1875 61.535156 57.191406 61.535156 C 57.222656 61.535156 57.253906 61.53125 57.285156 61.527344 C 57.296875 61.523438 57.308594 61.523438 57.320312 61.519531 C 57.328125 61.519531 57.335938 61.519531 57.339844 61.519531 C 57.386719 61.507812 57.425781 61.496094 57.464844 61.480469 C 57.472656 61.476562 57.476562 61.472656 57.484375 61.472656 C 57.5 61.464844 57.519531 61.457031 57.53125 61.449219 L 67.394531 74.777344 C 67.136719 75.046875 67.101562 75.46875 67.328125 75.777344 C 67.585938 76.125 68.074219 76.199219 68.421875 75.941406 C 68.765625 75.6875 68.839844 75.195312 68.585938 74.851562 C 68.355469 74.539062 67.9375 74.449219 67.605469 74.617188 L 57.746094 61.289062 C 57.769531 61.257812 57.796875 61.226562 57.820312 61.195312 C 57.824219 61.191406 57.828125 61.1875 57.828125 61.183594 C 57.832031 61.183594 57.832031 61.179688 57.832031 61.175781 C 57.84375 61.160156 57.855469 61.136719 57.863281 61.117188 L 70.253906 65.296875 C 70.199219 65.664062 70.410156 66.03125 70.777344 66.152344 C 71.1875 66.289062 71.625 66.070312 71.765625 65.664062 C 71.902344 65.253906 71.683594 64.816406 71.277344 64.675781 C 70.910156 64.554688 70.519531 64.714844 70.339844 65.046875 L 57.949219 60.867188 C 57.953125 60.84375 57.957031 60.820312 57.957031 60.800781 C 57.957031 60.792969 57.957031 60.789062 57.957031 60.78125 C 57.960938 60.746094 57.957031 60.707031 57.953125 60.667969 C 57.953125 60.664062 57.953125 60.660156 57.953125 60.65625 C 57.953125 60.652344 57.953125 60.648438 57.953125 60.644531 C 57.949219 60.628906 57.949219 60.613281 57.945312 60.597656 C 57.9375 60.570312 57.933594 60.542969 57.925781 60.515625 C 57.921875 60.496094 57.910156 60.476562 57.902344 60.457031 C 57.894531 60.433594 57.886719 60.414062 57.878906 60.390625 C 57.867188 60.367188 57.851562 60.347656 57.835938 60.328125 C 57.828125 60.308594 57.816406 60.292969 57.804688 60.277344 C 57.789062 60.253906 57.769531 60.234375 57.746094 60.214844 C 57.738281 60.203125 57.730469 60.191406 57.71875 60.179688 L 74.09375 35.859375 C 74.097656 35.859375 74.097656 35.859375 74.101562 35.859375 C 74.136719 35.875 74.167969 35.886719 74.203125 35.898438 C 74.214844 35.902344 74.230469 35.902344 74.246094 35.90625 C 74.277344 35.914062 74.300781 35.917969 74.332031 35.921875 C 74.34375 35.921875 74.355469 35.925781 74.367188 35.925781 C 74.40625 35.925781 74.441406 35.925781 74.480469 35.921875 C 74.488281 35.921875 74.492188 35.921875 74.5 35.921875 C 74.515625 35.917969 74.527344 35.917969 74.546875 35.914062 C 74.550781 35.914062 74.554688 35.910156 74.5625 35.910156 C 74.625 35.898438 74.679688 35.882812 74.738281 35.855469 C 74.746094 35.851562 74.75 35.847656 74.75 35.847656 C 74.773438 35.835938 74.792969 35.824219 74.816406 35.8125 C 74.816406 35.808594 74.824219 35.808594 74.828125 35.804688 C 74.832031 35.804688 74.832031 35.800781 74.835938 35.796875 C 74.871094 35.773438 74.90625 35.746094 74.941406 35.714844 C 74.949219 35.707031 74.953125 35.699219 74.960938 35.699219 C 74.992188 35.667969 75.019531 35.632812 75.042969 35.601562 C 75.046875 35.59375 75.054688 35.589844 75.058594 35.582031 C 75.074219 35.554688 75.089844 35.527344 75.105469 35.5 L 85.777344 38.851562 C 85.726562 39.226562 85.945312 39.582031 86.316406 39.703125 C 86.730469 39.828125 87.164062 39.605469 87.296875 39.191406 C 87.4375 38.800781 87.214844 38.367188 86.800781 38.238281 Z M 73.648438 35.121094 L 54.894531 37.230469 C 54.792969 36.871094 54.441406 36.628906 54.058594 36.667969 C 53.875 36.691406 53.710938 36.777344 53.589844 36.898438 L 35.566406 24.414062 L 73.65625 35.085938 C 73.65625 35.089844 73.65625 35.09375 73.65625 35.097656 C 73.652344 35.105469 73.648438 35.117188 73.648438 35.121094 Z M 56.921875 60.035156 C 56.917969 60.035156 56.914062 60.035156 56.910156 60.039062 L 35.351562 24.664062 C 35.359375 24.660156 35.367188 24.652344 35.371094 24.644531 C 35.371094 24.644531 35.375 24.640625 35.375 24.640625 C 35.375 24.640625 35.375 24.640625 35.378906 24.636719 C 35.386719 24.632812 35.390625 24.628906 35.398438 24.621094 L 53.441406 37.117188 C 53.382812 37.242188 53.355469 37.382812 53.371094 37.53125 C 53.414062 37.917969 53.738281 38.207031 54.113281 38.222656 L 56.960938 60.019531 C 56.949219 60.023438 56.9375 60.03125 56.921875 60.035156 Z M 38.347656 54.722656 C 38.316406 54.339844 38.003906 54.042969 37.636719 54.011719 L 35.042969 24.828125 C 35.042969 24.828125 35.046875 24.828125 35.046875 24.828125 C 35.050781 24.828125 35.054688 24.824219 35.058594 24.824219 C 35.066406 24.820312 35.074219 24.820312 35.082031 24.816406 C 35.082031 24.816406 35.082031 24.816406 35.085938 24.816406 C 35.089844 24.816406 35.09375 24.816406 35.097656 24.816406 C 35.101562 24.8125 35.109375 24.8125 35.117188 24.808594 C 35.117188 24.808594 35.117188 24.808594 35.121094 24.808594 C 35.125 24.804688 35.128906 24.804688 35.136719 24.800781 L 56.691406 60.179688 C 56.6875 60.183594 56.6875 60.183594 56.6875 60.1875 C 56.671875 60.199219 56.65625 60.214844 56.644531 60.226562 C 56.621094 60.246094 56.609375 60.265625 56.59375 60.289062 C 56.582031 60.304688 56.570312 60.316406 56.558594 60.328125 C 56.558594 60.332031 56.554688 60.332031 56.554688 60.335938 C 56.539062 60.363281 56.527344 60.390625 56.511719 60.417969 L 38.359375 54.890625 C 38.355469 54.832031 38.355469 54.777344 38.347656 54.722656 Z M 36.90625 55.195312 L 22.371094 67.839844 C 22.367188 67.835938 22.363281 67.835938 22.359375 67.832031 C 22.347656 67.824219 22.34375 67.816406 22.332031 67.816406 C 22.328125 67.8125 22.324219 67.8125 22.324219 67.808594 C 22.3125 67.796875 22.300781 67.789062 22.28125 67.777344 C 22.269531 67.769531 22.257812 67.761719 22.246094 67.753906 C 22.234375 67.75 22.226562 67.75 22.21875 67.742188 L 34.757812 24.847656 C 34.765625 24.847656 34.773438 24.851562 34.785156 24.851562 L 37.375 54.035156 C 37.015625 54.132812 36.761719 54.476562 36.800781 54.859375 C 36.808594 54.980469 36.847656 55.09375 36.90625 55.195312 Z M 8.964844 28.40625 C 8.964844 28.390625 8.972656 28.375 8.976562 28.363281 C 8.980469 28.351562 8.980469 28.34375 8.984375 28.332031 C 8.984375 28.324219 8.988281 28.320312 8.988281 28.3125 C 8.992188 28.296875 8.992188 28.277344 8.996094 28.261719 C 9 28.25 9.003906 28.234375 9.003906 28.21875 C 9.003906 28.210938 9.003906 28.207031 9.003906 28.199219 C 9.003906 28.195312 9.003906 28.1875 9.003906 28.1875 L 34.105469 24.324219 C 34.105469 24.324219 34.105469 24.328125 34.109375 24.328125 C 34.109375 24.328125 34.109375 24.332031 34.109375 24.332031 C 34.109375 24.335938 34.109375 24.339844 34.109375 24.34375 C 34.109375 24.34375 34.113281 24.34375 34.113281 24.347656 C 34.113281 24.351562 34.117188 24.355469 34.117188 24.359375 C 34.117188 24.363281 34.121094 24.367188 34.121094 24.367188 C 34.132812 24.394531 34.144531 24.421875 34.15625 24.449219 C 34.160156 24.453125 34.160156 24.457031 34.160156 24.457031 C 34.164062 24.46875 34.171875 24.476562 34.175781 24.484375 C 34.175781 24.488281 34.179688 24.488281 34.179688 24.492188 C 34.179688 24.492188 34.183594 24.496094 34.183594 24.496094 C 34.183594 24.5 34.1875 24.5 34.191406 24.5 C 34.195312 24.507812 34.199219 24.511719 34.199219 24.519531 C 34.207031 24.53125 34.21875 24.542969 34.226562 24.550781 C 34.230469 24.554688 34.230469 24.558594 34.234375 24.558594 C 34.238281 24.5625 34.238281 24.5625 34.238281 24.566406 L 23.839844 36.4375 C 23.835938 36.433594 23.832031 36.429688 23.832031 36.429688 C 23.496094 36.238281 23.082031 36.3125 22.839844 36.601562 L 8.953125 28.445312 C 8.957031 28.433594 8.960938 28.417969 8.964844 28.40625 Z M 25.84375 9.257812 C 25.847656 9.253906 25.851562 9.253906 25.855469 9.253906 C 25.855469 9.25 25.859375 9.246094 25.863281 9.242188 C 25.875 9.230469 25.878906 9.21875 25.890625 9.207031 C 25.902344 9.191406 25.917969 9.171875 25.929688 9.15625 C 25.9375 9.148438 25.945312 9.140625 25.945312 9.132812 L 38.027344 14.070312 C 38.003906 14.179688 38 14.292969 38.027344 14.40625 C 38.074219 14.621094 38.207031 14.796875 38.382812 14.902344 L 35.007812 23.316406 C 35.007812 23.316406 35.003906 23.316406 35.003906 23.316406 C 34.996094 23.316406 34.992188 23.316406 34.988281 23.3125 C 34.976562 23.308594 34.964844 23.308594 34.957031 23.308594 C 34.953125 23.308594 34.949219 23.308594 34.945312 23.304688 C 34.9375 23.304688 34.929688 23.304688 34.917969 23.300781 C 34.90625 23.300781 34.894531 23.296875 34.878906 23.296875 C 34.875 23.296875 34.867188 23.296875 34.859375 23.296875 C 34.851562 23.296875 34.851562 23.296875 34.84375 23.296875 C 34.835938 23.296875 34.828125 23.296875 34.820312 23.296875 C 34.8125 23.296875 34.808594 23.296875 34.804688 23.296875 C 34.792969 23.296875 34.78125 23.296875 34.769531 23.300781 C 34.761719 23.300781 34.753906 23.300781 34.746094 23.300781 C 34.742188 23.300781 34.738281 23.304688 34.734375 23.304688 C 34.730469 23.304688 34.730469 23.304688 34.726562 23.304688 C 34.71875 23.304688 34.714844 23.308594 34.707031 23.308594 C 34.703125 23.308594 34.703125 23.308594 34.699219 23.308594 C 34.695312 23.308594 34.695312 23.308594 34.691406 23.308594 C 34.675781 23.3125 34.660156 23.316406 34.648438 23.320312 C 34.644531 23.320312 34.640625 23.324219 34.636719 23.324219 C 34.613281 23.332031 34.59375 23.335938 34.570312 23.34375 C 34.566406 23.34375 34.5625 23.347656 34.558594 23.347656 C 34.558594 23.347656 34.554688 23.351562 34.550781 23.351562 C 34.550781 23.351562 34.550781 23.351562 34.546875 23.351562 C 34.546875 23.351562 34.542969 23.351562 34.542969 23.351562 L 25.796875 9.296875 C 25.816406 9.285156 25.832031 9.273438 25.84375 9.257812 Z M 35.433594 23.566406 C 35.429688 23.5625 35.425781 23.554688 35.421875 23.554688 C 35.417969 23.550781 35.414062 23.546875 35.414062 23.542969 C 35.410156 23.539062 35.40625 23.535156 35.402344 23.535156 C 35.398438 23.53125 35.390625 23.523438 35.390625 23.519531 C 35.386719 23.515625 35.382812 23.511719 35.378906 23.511719 C 35.375 23.507812 35.367188 23.503906 35.367188 23.496094 C 35.363281 23.492188 35.363281 23.492188 35.359375 23.488281 C 35.359375 23.488281 35.359375 23.488281 35.355469 23.488281 C 35.351562 23.484375 35.351562 23.484375 35.347656 23.484375 C 35.339844 23.476562 35.332031 23.46875 35.324219 23.460938 C 35.320312 23.457031 35.316406 23.453125 35.3125 23.453125 C 35.304688 23.445312 35.300781 23.445312 35.289062 23.4375 C 35.285156 23.433594 35.285156 23.433594 35.28125 23.429688 C 35.277344 23.425781 35.277344 23.425781 35.277344 23.425781 C 35.273438 23.421875 35.269531 23.421875 35.265625 23.421875 C 35.261719 23.417969 35.257812 23.414062 35.253906 23.410156 C 35.25 23.410156 35.25 23.40625 35.25 23.40625 L 38.625 14.992188 C 38.730469 15.015625 38.84375 15.015625 38.957031 14.992188 C 39.332031 14.910156 39.585938 14.566406 39.570312 14.195312 L 57.628906 10.210938 Z M 23.527344 37.875 C 23.761719 37.847656 23.976562 37.71875 24.105469 37.5 C 24.277344 37.207031 24.238281 36.859375 24.035156 36.617188 L 34.433594 24.742188 C 34.433594 24.742188 34.433594 24.742188 34.4375 24.742188 C 34.4375 24.742188 34.441406 24.742188 34.441406 24.746094 C 34.445312 24.75 34.449219 24.75 34.457031 24.753906 C 34.46875 24.761719 34.488281 24.769531 34.5 24.777344 L 22.0625 67.332031 Z M 39.511719 13.941406 C 39.371094 13.59375 38.996094 13.390625 38.625 13.476562 C 38.410156 13.523438 38.238281 13.652344 38.132812 13.824219 L 26.050781 8.886719 C 26.050781 8.882812 26.050781 8.882812 26.050781 8.878906 C 26.050781 8.878906 26.050781 8.875 26.050781 8.875 L 57.347656 10.003906 Z M 25.339844 9.496094 C 25.351562 9.496094 25.359375 9.492188 25.367188 9.492188 C 25.394531 9.488281 25.421875 9.484375 25.445312 9.476562 C 25.464844 9.476562 25.480469 9.472656 25.5 9.464844 C 25.511719 9.460938 25.523438 9.460938 25.535156 9.457031 C 25.546875 9.457031 25.5625 9.445312 25.578125 9.441406 C 25.582031 9.441406 25.582031 9.441406 25.585938 9.4375 L 34.332031 23.492188 C 34.332031 23.492188 34.332031 23.492188 34.328125 23.496094 C 34.324219 23.5 34.320312 23.503906 34.316406 23.507812 C 34.3125 23.511719 34.308594 23.515625 34.300781 23.523438 C 34.292969 23.53125 34.285156 23.535156 34.277344 23.546875 C 34.273438 23.554688 34.265625 23.554688 34.265625 23.5625 C 34.265625 23.5625 34.261719 23.566406 34.261719 23.566406 C 34.257812 23.570312 34.257812 23.574219 34.253906 23.574219 C 34.25 23.578125 34.246094 23.582031 34.242188 23.589844 C 34.230469 23.601562 34.222656 23.613281 34.214844 23.625 C 34.210938 23.628906 34.207031 23.632812 34.203125 23.636719 C 34.199219 23.640625 34.199219 23.644531 34.199219 23.644531 C 34.195312 23.648438 34.191406 23.652344 34.191406 23.65625 C 34.1875 23.664062 34.179688 23.667969 34.175781 23.679688 C 34.175781 23.683594 34.175781 23.6875 34.175781 23.6875 C 34.171875 23.691406 34.171875 23.691406 34.167969 23.695312 L 24.890625 20.351562 C 24.957031 19.984375 24.75 19.613281 24.386719 19.484375 C 24.371094 19.476562 24.347656 19.472656 24.328125 19.464844 Z M 23.851562 20.945312 C 24.214844 21.074219 24.609375 20.921875 24.792969 20.59375 L 34.070312 23.9375 C 34.070312 23.945312 34.070312 23.953125 34.066406 23.957031 C 34.066406 23.960938 34.066406 23.960938 34.066406 23.960938 C 34.066406 23.996094 34.0625 24.027344 34.0625 24.058594 L 9.035156 27.910156 L 23.488281 20.671875 C 23.578125 20.789062 23.699219 20.886719 23.851562 20.945312 Z M 8.625 28.839844 C 8.636719 28.832031 8.652344 28.820312 8.664062 28.8125 C 8.679688 28.800781 8.695312 28.792969 8.707031 28.777344 C 8.71875 28.773438 8.722656 28.765625 8.734375 28.753906 C 8.742188 28.746094 8.753906 28.734375 8.765625 28.726562 C 8.78125 28.710938 8.792969 28.703125 8.804688 28.6875 C 8.808594 28.683594 8.808594 28.683594 8.808594 28.683594 C 8.8125 28.679688 8.8125 28.675781 8.816406 28.675781 C 8.816406 28.675781 8.820312 28.671875 8.820312 28.671875 L 22.707031 36.824219 C 22.574219 37.175781 22.707031 37.574219 23.039062 37.773438 C 23.113281 37.816406 23.183594 37.839844 23.265625 37.859375 L 21.78125 67.664062 C 21.769531 67.664062 21.761719 67.667969 21.753906 67.671875 L 8.59375 28.855469 C 8.605469 28.847656 8.613281 28.839844 8.625 28.839844 Z M 24.882812 9.382812 C 24.886719 9.386719 24.890625 9.386719 24.890625 9.386719 C 24.910156 9.398438 24.933594 9.410156 24.957031 9.421875 C 24.964844 9.425781 24.972656 9.425781 24.976562 9.429688 C 24.980469 9.433594 24.988281 9.433594 24.996094 9.4375 C 25.007812 9.445312 25.023438 9.449219 25.039062 9.453125 C 25.050781 9.457031 25.066406 9.464844 25.082031 9.46875 L 24.066406 19.433594 C 23.765625 19.453125 23.496094 19.644531 23.386719 19.945312 C 23.328125 20.109375 23.328125 20.28125 23.378906 20.433594 L 8.855469 27.707031 C 8.855469 27.699219 8.847656 27.695312 8.84375 27.695312 C 8.839844 27.691406 8.835938 27.683594 8.832031 27.679688 Z M 22.59375 68.148438 C 22.59375 68.136719 22.585938 68.128906 22.582031 68.121094 C 22.574219 68.097656 22.5625 68.078125 22.550781 68.058594 C 22.546875 68.050781 22.542969 68.042969 22.539062 68.035156 L 37.078125 55.390625 C 37.230469 55.515625 37.425781 55.582031 37.640625 55.5625 C 37.917969 55.539062 38.148438 55.371094 38.269531 55.136719 L 56.421875 60.664062 C 56.417969 60.6875 56.417969 60.710938 56.417969 60.738281 C 56.417969 60.753906 56.417969 60.777344 56.417969 60.792969 Z M 57.515625 60.050781 C 57.511719 60.050781 57.507812 60.046875 57.503906 60.046875 C 57.476562 60.035156 57.449219 60.027344 57.417969 60.015625 C 57.40625 60.011719 57.386719 60.007812 57.375 60.003906 C 57.351562 59.996094 57.324219 59.992188 57.296875 59.988281 C 57.277344 59.988281 57.257812 59.984375 57.238281 59.984375 C 57.234375 59.984375 57.230469 59.984375 57.226562 59.984375 L 54.375 38.191406 C 54.6875 38.09375 54.90625 37.816406 54.925781 37.492188 L 73.679688 35.386719 C 73.683594 35.398438 73.691406 35.410156 73.691406 35.421875 C 73.699219 35.445312 73.710938 35.46875 73.71875 35.492188 C 73.730469 35.511719 73.738281 35.527344 73.75 35.546875 C 73.757812 35.5625 73.761719 35.574219 73.769531 35.589844 C 73.777344 35.597656 73.78125 35.609375 73.789062 35.617188 C 73.796875 35.628906 73.804688 35.632812 73.804688 35.640625 C 73.828125 35.675781 73.855469 35.703125 73.886719 35.730469 Z M 57.515625 60.050781 " fill-opacity="1" fill-rule="nonzero"/></g></g></g></g><g clip-path="url(#d12fda1065)"><g mask="url(#a512182198)"><g transform="matrix(1, 0, 0, 1, 206, 125)"><g clip-path="url(#0a4165eff8)"><g clip-path="url(#52446cfe17)"><g mask="url(#4b4abe460b)"><g transform="matrix(1, 0, 0, 1, 0, -0.000000000000014211)"><g clip-path="url(#b38a3a4647)"><path fill="#00bf63" d="M 74.40625 92.738281 L 58.820312 88.5625 L 47.410156 99.972656 L 51.585938 115.558594 L 67.171875 119.734375 L 78.585938 108.324219 Z M 66.984375 119.027344 L 52.105469 115.039062 L 48.117188 100.160156 L 59.011719 89.269531 L 73.890625 93.257812 L 77.875 108.136719 Z M 66.984375 119.027344 " fill-opacity="1" fill-rule="nonzero"/><g clip-path="url(#65e65c64f3)"><path fill="#00bf63" d="M 89.53125 0.285156 L 88.875 0.285156 L 90.300781 5.609375 L 84.914062 10.996094 L 77.550781 9.03125 L 75.578125 1.679688 L 76.964844 0.285156 L 76.070312 0.285156 L 74.875 1.476562 L 77.03125 9.542969 L 85.097656 11.699219 L 91.003906 5.792969 Z M 89.53125 0.285156 " fill-opacity="1" fill-rule="nonzero"/></g><g clip-path="url(#7323ec28fd)"><path fill="#00bf63" d="M 125.949219 77.8125 L 118.949219 58.421875 L 124.589844 52.789062 L 122.523438 45.074219 L 128.96875 38.628906 L 133.308594 39.789062 L 136.742188 36.355469 L 135.484375 31.664062 L 130.792969 30.40625 L 127.359375 33.84375 L 128.519531 38.179688 L 122.074219 44.628906 L 114.359375 42.5625 L 108.453125 48.460938 L 110.519531 56.175781 L 102 64.695312 L 86.765625 60.613281 L 75.355469 72.023438 L 79.53125 87.609375 L 95.117188 91.785156 L 106.53125 80.375 L 102.449219 65.144531 L 110.96875 56.621094 L 118.34375 58.605469 L 125.339844 77.996094 L 119.707031 83.628906 L 121.773438 91.34375 L 104.585938 108.527344 L 96.875 106.460938 L 90.96875 112.363281 L 93.125 120.429688 L 101.191406 122.589844 L 106.84375 116.9375 L 119.574219 119.832031 L 120.734375 124.160156 L 125.425781 125.417969 L 128.863281 121.984375 L 127.605469 117.292969 L 122.914062 116.035156 L 119.730469 119.214844 L 107 116.324219 L 105.03125 108.972656 L 122.21875 91.785156 L 129.929688 93.851562 L 135.832031 87.945312 L 133.679688 79.878906 Z M 128.0625 34.03125 L 130.976562 31.117188 L 134.960938 32.183594 L 136.03125 36.167969 L 133.113281 39.082031 L 129.128906 38.015625 Z M 105.824219 80.191406 L 94.933594 91.082031 L 80.054688 87.097656 L 76.066406 72.214844 L 86.957031 61.324219 L 101.839844 65.3125 Z M 111.132812 56.015625 L 109.164062 48.660156 L 114.546875 43.265625 L 121.898438 45.234375 L 123.871094 52.597656 L 118.484375 57.984375 Z M 123.113281 116.746094 L 127.097656 117.8125 L 128.164062 121.796875 L 125.246094 124.710938 L 121.257812 123.648438 L 120.191406 119.664062 Z M 106.398438 116.5 L 101.007812 121.886719 L 93.652344 119.914062 L 91.679688 112.5625 L 97.0625 107.164062 L 104.417969 109.136719 Z M 129.75 93.148438 L 122.394531 91.175781 L 120.421875 83.824219 L 125.808594 78.4375 L 133.164062 80.40625 L 135.136719 87.761719 Z M 129.75 93.148438 " fill-opacity="1" fill-rule="nonzero"/></g><g clip-path="url(#7bfecf2e18)"><path fill="#00bf63" d="M 110.128906 30.308594 L 105.4375 29.050781 L 102.253906 32.234375 L 93.222656 30.332031 L 91.15625 22.632812 L 83.089844 20.476562 L 77.453125 26.113281 L 64.542969 22.058594 L 60.460938 6.808594 L 45.203125 2.71875 L 44.207031 0.285156 L 43.519531 0.285156 L 44.59375 2.910156 L 33.464844 14.039062 L 37.546875 29.273438 L 27.425781 39.394531 L 12.191406 35.3125 L 0.78125 46.722656 L 4.964844 62.308594 L 20.550781 66.488281 L 31.960938 55.074219 L 27.871094 39.839844 L 37.992188 29.722656 L 52.90625 33.71875 L 59.617188 48.222656 L 56.46875 51.371094 L 57.726562 56.0625 L 62.417969 57.320312 L 65.851562 53.886719 L 64.59375 49.195312 L 60.222656 48.023438 L 53.511719 33.515625 L 64.367188 22.660156 L 77.273438 26.714844 L 79.34375 34.4375 L 87.410156 36.59375 L 93.0625 30.9375 L 102.09375 32.839844 L 103.253906 37.167969 L 107.945312 38.425781 L 111.378906 34.988281 Z M 31.246094 54.886719 L 20.355469 65.777344 L 5.476562 61.789062 L 1.488281 46.910156 L 12.382812 36.019531 L 27.261719 40.007812 Z M 64.074219 49.710938 L 65.144531 53.695312 L 62.226562 56.613281 L 58.242188 55.542969 L 57.175781 51.5625 L 60.089844 48.644531 Z M 53.035156 33.101562 L 38.15625 29.113281 L 34.167969 14.230469 L 45.0625 3.335938 L 59.941406 7.324219 L 63.929688 22.203125 Z M 87.226562 35.898438 L 79.871094 33.925781 L 77.898438 26.566406 L 83.285156 21.179688 L 90.640625 23.152344 L 92.609375 30.507812 Z M 107.765625 37.730469 L 103.78125 36.664062 L 102.714844 32.679688 L 105.628906 29.765625 L 109.613281 30.832031 L 110.679688 34.816406 Z M 20.296875 11.464844 L 26.203125 5.558594 L 24.789062 0.285156 L 24.132812 0.285156 L 25.496094 5.371094 L 20.109375 10.757812 L 12.753906 8.785156 L 10.777344 1.425781 L 11.917969 0.285156 L 11.023438 0.285156 L 10.070312 1.238281 L 12.222656 9.304688 Z M 20.296875 11.464844 " fill-opacity="1" fill-rule="nonzero"/></g></g></g></g></g><path fill="#00bf63" d="M 35.195312 30.964844 L 27.128906 28.804688 L 21.222656 34.707031 L 23.378906 42.773438 L 31.445312 44.929688 L 37.359375 39.027344 Z M 31.265625 44.230469 L 23.910156 42.257812 L 21.9375 34.902344 L 27.324219 29.515625 L 34.679688 31.488281 L 36.652344 38.84375 Z M 31.265625 44.230469 " fill-opacity="1" fill-rule="nonzero"/><path fill="#00bf63" d="M 98.054688 93.550781 L 92.148438 99.457031 L 94.304688 107.523438 L 102.371094 109.679688 L 108.277344 103.773438 L 106.121094 95.707031 Z M 102.1875 108.976562 L 94.835938 107.003906 L 92.863281 99.652344 L 98.25 94.265625 L 105.605469 96.234375 L 107.578125 103.589844 Z M 102.1875 108.976562 " fill-opacity="1" fill-rule="nonzero"/><path fill="#00bf63" d="M 103.726562 76.746094 L 102.46875 72.054688 L 97.777344 70.796875 L 94.34375 74.230469 L 95.601562 78.921875 L 100.292969 80.179688 Z M 96.121094 78.40625 L 95.046875 74.421875 L 97.964844 71.503906 L 101.949219 72.574219 L 103.015625 76.554688 L 100.097656 79.472656 Z M 96.121094 78.40625 " fill-opacity="1" fill-rule="nonzero"/><path fill="#00bf63" d="M 32.503906 15.824219 L 35.9375 12.390625 L 34.683594 7.699219 L 29.992188 6.441406 L 26.554688 9.878906 L 27.8125 14.570312 Z M 30.179688 7.148438 L 34.164062 8.21875 L 35.230469 12.203125 L 32.316406 15.117188 L 28.332031 14.050781 L 27.265625 10.066406 Z M 30.179688 7.148438 " fill-opacity="1" fill-rule="nonzero"/><path fill="#00bf63" d="M 123.320312 16.15625 L 126.757812 12.722656 L 125.5 8.03125 L 120.808594 6.773438 L 117.375 10.207031 L 118.632812 14.898438 Z M 120.996094 7.480469 L 124.980469 8.546875 L 126.046875 12.53125 L 123.132812 15.449219 L 119.148438 14.382812 L 118.078125 10.398438 Z M 120.996094 7.480469 " fill-opacity="1" fill-rule="nonzero"/><path fill="#00bf63" d="M 119.671875 102.472656 L 116.238281 105.90625 L 117.496094 110.597656 L 122.1875 111.855469 L 125.621094 108.421875 L 124.363281 103.730469 Z M 122 111.148438 L 118.015625 110.082031 L 116.945312 106.097656 L 119.863281 103.179688 L 123.847656 104.25 L 124.914062 108.234375 Z M 122 111.148438 " fill-opacity="1" fill-rule="nonzero"/><path fill="#00bf63" d="M 120.808594 70.796875 L 117.375 74.230469 L 118.632812 78.921875 L 123.324219 80.179688 L 126.757812 76.746094 L 125.5 72.054688 Z M 123.136719 79.472656 L 119.148438 78.40625 L 118.082031 74.421875 L 121 71.503906 L 124.980469 72.574219 L 126.050781 76.554688 Z M 123.136719 79.472656 " fill-opacity="1" fill-rule="nonzero"/><path fill="#00bf63" d="M 103.074219 31.632812 L 107.929688 26.78125 L 106.152344 20.15625 L 99.527344 18.378906 L 94.667969 23.230469 L 96.441406 29.859375 Z M 99.714844 19.082031 L 105.632812 20.667969 L 107.21875 26.59375 L 102.886719 30.925781 L 96.964844 29.339844 L 95.378906 23.421875 Z M 99.714844 19.082031 " fill-opacity="1" fill-rule="nonzero"/><path fill="#00bf63" d="M 117.78125 52.335938 L 121.660156 53.375 L 124.503906 50.535156 L 123.464844 46.652344 L 119.582031 45.609375 L 116.988281 48.207031 L 109.710938 46.675781 L 108.03125 40.414062 L 101.40625 38.636719 L 96.824219 43.21875 L 86.386719 39.9375 L 83.066406 27.535156 L 70.648438 24.207031 L 66.855469 14.953125 L 71.429688 10.378906 L 69.652344 3.753906 L 63.027344 1.976562 L 58.175781 6.828125 L 59.855469 13.101562 L 53.082031 19.867188 L 46.808594 18.183594 L 41.957031 23.035156 L 43.730469 29.664062 L 50.359375 31.4375 L 55.207031 26.589844 L 53.53125 20.316406 L 60.300781 13.546875 L 66.246094 15.140625 L 70.035156 24.398438 L 60.984375 33.449219 L 64.304688 45.839844 L 56.125 54.027344 L 43.730469 50.707031 L 34.402344 60.035156 L 37.816406 72.78125 L 50.5625 76.195312 L 59.890625 66.867188 L 56.570312 54.476562 L 64.757812 46.289062 L 76.828125 49.523438 L 82.253906 61.269531 L 79.699219 63.824219 L 80.738281 67.707031 L 84.621094 68.746094 L 87.460938 65.90625 L 86.425781 62.015625 L 82.863281 61.0625 L 77.433594 49.324219 L 86.214844 40.546875 L 96.648438 43.828125 L 98.328125 50.109375 L 104.957031 51.886719 L 109.558594 47.285156 L 116.835938 48.820312 Z M 119.769531 46.320312 L 122.941406 47.167969 L 123.789062 50.339844 L 121.464844 52.664062 L 118.296875 51.8125 L 117.445312 48.636719 Z M 54.503906 26.402344 L 50.164062 30.730469 L 44.246094 29.144531 L 42.664062 23.230469 L 46.996094 18.890625 L 52.914062 20.476562 Z M 60.464844 12.9375 L 58.878906 7.015625 L 63.210938 2.683594 L 69.132812 4.269531 L 70.71875 10.1875 L 66.382812 14.519531 Z M 59.183594 66.679688 L 50.371094 75.492188 L 38.332031 72.265625 L 35.109375 60.222656 L 43.921875 51.410156 L 55.957031 54.636719 Z M 85.90625 62.535156 L 86.753906 65.707031 L 84.429688 68.03125 L 81.261719 67.179688 L 80.410156 64.011719 L 82.734375 61.6875 Z M 76.957031 48.90625 L 64.917969 45.671875 L 61.691406 33.628906 L 70.503906 24.816406 L 82.542969 28.050781 L 85.769531 40.09375 Z M 104.765625 51.179688 L 98.851562 49.59375 L 97.265625 43.671875 L 101.59375 39.332031 L 107.515625 40.921875 L 109.101562 46.839844 Z M 104.765625 51.179688 " fill-opacity="1" fill-rule="nonzero"/></g></g></g></g><g mask="url(#c88824340d)"><g transform="matrix(1, 0, 0, 1, 7, 12)"><g clip-path="url(#84cdcb64c8)"><g clip-path="url(#3772d73933)"><path fill="#4e5a58" d="M 1.316406 60.667969 C -2.476562 48.382812 11.574219 44.5625 12.867188 38.808594 C 15.410156 27.480469 9.691406 21.726562 18.789062 12.433594 C 26.496094 4.566406 35.917969 9.148438 45.265625 7.898438 C 56.578125 6.382812 68.285156 -5.664062 79.277344 4.484375 C 80.71875 5.816406 81.804688 7.507812 82.625 9.28125 C 85.691406 15.902344 85.496094 23.324219 89.785156 29.53125 C 94.871094 36.886719 102.863281 42.402344 103.582031 52.058594 C 103.714844 53.867188 103.511719 55.660156 103.023438 57.402344 C 102.601562 58.902344 102.019531 60.304688 101.148438 61.605469 C 95.082031 70.667969 83.765625 65.398438 75.148438 67.449219 C 69.777344 68.730469 65.761719 72.878906 61.527344 76.113281 C 55.800781 80.484375 49.015625 83.976562 41.628906 83.792969 C 33.976562 83.601562 26.335938 80.199219 20.464844 75.414062 C 18.101562 73.484375 16.277344 70.1875 13.5625 68.769531 C 8.550781 66.148438 2.414062 64.222656 1.316406 60.667969 Z M 1.316406 60.667969 " fill-opacity="1" fill-rule="evenodd"/></g><path fill="#00bf63" d="M 2.023438 47.246094 C 1.6875 42.953125 3.144531 40.066406 5.304688 37.914062 C 9.558594 33.675781 16.394531 32.152344 18.0625 28.636719 C 21.128906 22.164062 20.671875 17.070312 22.421875 12.457031 C 23.488281 9.640625 25.402344 7.015625 29.511719 4.355469 C 33.085938 2.039062 36.5 1.644531 39.886719 2.058594 C 45.191406 2.707031 50.429688 5.296875 56.113281 5.800781 C 64.132812 6.511719 73.496094 2.136719 81.289062 3.847656 C 84.453125 4.542969 87.351562 6.265625 89.785156 9.792969 C 90.328125 10.578125 90.765625 11.433594 91.117188 12.320312 C 91.472656 13.21875 91.738281 14.148438 91.941406 15.082031 C 93.019531 20.089844 92.4375 25.125 92.976562 30.097656 C 93.210938 32.234375 93.648438 34.363281 94.496094 36.46875 C 96.503906 41.449219 99.683594 46.015625 101.59375 50.941406 C 102.839844 54.160156 103.539062 57.535156 102.984375 61.292969 C 102.855469 62.171875 102.644531 63.023438 102.363281 63.855469 C 102.078125 64.683594 101.722656 65.492188 101.300781 66.269531 C 100.9375 66.945312 100.542969 67.582031 100.097656 68.183594 C 99.660156 68.785156 99.171875 69.347656 98.617188 69.871094 C 96.335938 72.035156 93.886719 72.90625 91.34375 73.058594 C 85.152344 73.433594 78.429688 69.6875 72.207031 69.761719 C 69.953125 69.789062 67.8125 70.320312 65.738281 71.097656 C 62.6875 72.242188 59.78125 73.917969 56.871094 75.253906 C 53.628906 76.742188 50.175781 77.964844 46.648438 78.585938 C 43.132812 79.210938 39.542969 79.242188 36.007812 78.351562 C 32.335938 77.425781 28.839844 75.726562 25.6875 73.523438 C 22.527344 71.316406 19.710938 68.601562 17.390625 65.648438 C 16.09375 63.992188 15.191406 61.753906 13.988281 59.882812 C 13.433594 59.019531 12.8125 58.230469 12.070312 57.601562 C 9.332031 55.277344 6.085938 53.132812 4.019531 50.925781 C 2.898438 49.730469 2.125 48.523438 2.023438 47.246094 Z M 1.320312 47.300781 C 1.433594 48.71875 2.257812 50.078125 3.507812 51.40625 C 5.589844 53.632812 8.855469 55.796875 11.613281 58.140625 C 12.304688 58.722656 12.878906 59.460938 13.394531 60.265625 C 14.613281 62.152344 15.527344 64.410156 16.839844 66.082031 C 19.195312 69.089844 22.066406 71.851562 25.285156 74.101562 C 28.507812 76.355469 32.082031 78.089844 35.835938 79.03125 C 39.46875 79.949219 43.160156 79.917969 46.769531 79.28125 C 50.359375 78.644531 53.867188 77.40625 57.164062 75.894531 C 60.058594 74.5625 62.949219 72.894531 65.984375 71.757812 C 67.984375 71.007812 70.042969 70.492188 72.214844 70.464844 C 78.445312 70.390625 85.183594 74.136719 91.386719 73.761719 C 94.085938 73.597656 96.683594 72.675781 99.105469 70.382812 C 99.683594 69.828125 100.203125 69.234375 100.667969 68.601562 C 101.128906 67.972656 101.542969 67.304688 101.921875 66.605469 C 102.359375 65.792969 102.730469 64.949219 103.027344 64.082031 C 103.324219 63.210938 103.542969 62.316406 103.679688 61.398438 C 104.257812 57.507812 103.539062 54.015625 102.246094 50.683594 C 100.335938 45.753906 97.15625 41.191406 95.148438 36.207031 C 94.324219 34.160156 93.902344 32.097656 93.675781 30.023438 C 93.136719 25.023438 93.710938 19.964844 92.628906 14.9375 C 92.421875 13.964844 92.140625 12.992188 91.773438 12.0625 C 91.398438 11.125 90.9375 10.222656 90.363281 9.394531 C 87.8125 5.691406 84.765625 3.890625 81.441406 3.160156 C 73.617188 1.441406 64.222656 5.8125 56.175781 5.101562 C 49.496094 4.507812 43.421875 1.039062 37.148438 1.21875 C 34.53125 1.292969 31.875 1.988281 29.128906 3.765625 C 24.851562 6.53125 22.871094 9.277344 21.761719 12.207031 C 20.019531 16.804688 20.484375 21.886719 17.425781 28.335938 C 15.785156 31.800781 8.996094 33.238281 4.808594 37.414062 C 2.519531 39.695312 0.96875 42.753906 1.320312 47.300781 Z M 1.320312 47.300781 " fill-opacity="1" fill-rule="evenodd"/></g></g></g></svg>