<svg xmlns="http://www.w3.org/2000/svg" xmlns:xlink="http://www.w3.org/1999/xlink" width="100" zoomAndPan="magnify" viewBox="0 0 75 74.999997" height="100" preserveAspectRatio="xMidYMid meet" version="1.0"><defs><filter x="0%" y="0%" width="100%" height="100%" id="4863f02872"><feColorMatrix values="0 0 0 0 1 0 0 0 0 1 0 0 0 0 1 0 0 0 1 0" color-interpolation-filters="sRGB"/></filter><mask id="493fc6326f"><g filter="url(#4863f02872)"><rect x="-7.5" width="90" fill="#000000" y="-7.5" height="89.999996" fill-opacity="0.44"/></g></mask><clipPath id="72f2e25e37"><path d="M 0.347656 12 L 50.597656 12 L 50.597656 63 L 0.347656 63 Z M 0.347656 12 " clip-rule="nonzero"/></clipPath><clipPath id="1a8d05d92c"><path d="M 0.347656 0.015625 L 50.597656 0.015625 L 50.597656 75 L 0.347656 75 Z M 0.347656 0.015625 " clip-rule="nonzero"/></clipPath><clipPath id="658faa37ca"><rect x="0" width="51" y="0" height="75"/></clipPath></defs><g mask="url(#493fc6326f)"><g transform="matrix(1, 0, 0, 1, 12, -0.000000000000001893)"><g clip-path="url(#658faa37ca)"><g clip-path="url(#72f2e25e37)"><path fill="#00bf63" d="M 25.496094 12.996094 L 50.003906 37.503906 L 25.496094 62.015625 L 0.984375 37.503906 Z M 25.496094 12.996094 " fill-opacity="1" fill-rule="evenodd"/></g><g clip-path="url(#1a8d05d92c)"><path fill="#000000" d="M 37.75 36.867188 L 25.496094 24.613281 L 13.238281 36.867188 L 1.605469 25.234375 L 25.496094 1.363281 C 25.496094 1.363281 46.542969 22.410156 49.382812 25.25 Z M 13.863281 37.503906 L 25.496094 49.136719 L 37.128906 37.503906 L 25.496094 25.871094 Z M 13.238281 38.144531 L 25.496094 50.398438 L 37.75 38.144531 L 49.382812 49.777344 L 25.496094 73.648438 L 1.605469 49.761719 Z M 12.601562 37.503906 L 0.347656 49.761719 L 25.496094 74.910156 L 50.644531 49.761719 L 38.386719 37.503906 L 50.644531 25.25 L 25.496094 0.101562 L 0.347656 25.25 Z M 12.601562 37.503906 " fill-opacity="1" fill-rule="evenodd"/></g></g></g></g></svg>