<svg xmlns="http://www.w3.org/2000/svg" xmlns:xlink="http://www.w3.org/1999/xlink" width="186" zoomAndPan="magnify" viewBox="0 0 139.5 139.499994" height="186" preserveAspectRatio="xMidYMid meet" version="1.0"><defs><filter x="0%" y="0%" width="100%" height="100%" id="fd53464e72"><feColorMatrix values="0 0 0 0 1 0 0 0 0 1 0 0 0 0 1 0 0 0 1 0" color-interpolation-filters="sRGB"/></filter><mask id="592f317690"><g filter="url(#fd53464e72)"><rect x="-13.95" width="167.4" fill="#000000" y="-13.949999" height="167.399993" fill-opacity="0.1"/></g></mask><clipPath id="e64254ecb4"><path d="M 0.425781 0.425781 L 132.550781 0.425781 L 132.550781 132.550781 L 0.425781 132.550781 Z M 0.425781 0.425781 " clip-rule="nonzero"/></clipPath><clipPath id="7198ff635f"><rect x="0" width="133" y="0" height="133"/></clipPath></defs><g mask="url(#592f317690)"><g transform="matrix(1, 0, 0, 1, 4, 4)"><g clip-path="url(#7198ff635f)"><g clip-path="url(#e64254ecb4)"><path fill="#00bf63" d="M 66.390625 0.425781 C 29.960938 0.425781 0.425781 29.957031 0.425781 66.390625 C 0.425781 102.820312 29.960938 132.351562 66.390625 132.351562 C 102.820312 132.351562 132.351562 102.820312 132.351562 66.390625 C 132.351562 29.957031 102.820312 0.425781 66.390625 0.425781 Z M 65.511719 128.851562 C 30.386719 128.851562 1.910156 100.375 1.910156 65.25 C 1.910156 30.125 30.386719 1.652344 65.511719 1.652344 C 100.636719 1.652344 129.109375 30.125 129.109375 65.25 C 129.109375 100.375 100.636719 128.851562 65.511719 128.851562 Z M 65.511719 128.851562 " fill-opacity="1" fill-rule="nonzero"/></g><path fill="#00bf63" d="M 64.628906 2.875 C 30.808594 2.875 3.394531 30.292969 3.394531 64.113281 C 3.394531 97.933594 30.808594 125.347656 64.628906 125.347656 C 98.449219 125.347656 125.867188 97.933594 125.867188 64.113281 C 125.867188 30.292969 98.449219 2.875 64.628906 2.875 Z M 63.75 121.847656 C 31.234375 121.847656 4.875 95.488281 4.875 62.972656 C 4.875 30.457031 31.234375 4.097656 63.75 4.097656 C 96.265625 4.097656 122.625 30.457031 122.625 62.972656 C 122.625 95.488281 96.265625 121.847656 63.75 121.847656 Z M 63.75 121.847656 " fill-opacity="1" fill-rule="nonzero"/><path fill="#00bf63" d="M 62.871094 5.324219 C 31.660156 5.324219 6.359375 30.625 6.359375 61.835938 C 6.359375 93.046875 31.660156 118.347656 62.871094 118.347656 C 94.082031 118.347656 119.382812 93.046875 119.382812 61.835938 C 119.382812 30.625 94.082031 5.324219 62.871094 5.324219 Z M 61.992188 114.847656 C 32.085938 114.847656 7.839844 90.601562 7.839844 60.695312 C 7.839844 30.792969 32.085938 6.546875 61.992188 6.546875 C 91.894531 6.546875 116.140625 30.792969 116.140625 60.695312 C 116.140625 90.601562 91.894531 114.847656 61.992188 114.847656 Z M 61.992188 114.847656 " fill-opacity="1" fill-rule="nonzero"/><path fill="#00bf63" d="M 61.109375 7.773438 C 32.507812 7.773438 9.324219 30.957031 9.324219 59.558594 C 9.324219 88.160156 32.511719 111.34375 61.109375 111.34375 C 89.710938 111.34375 112.898438 88.160156 112.898438 59.558594 C 112.898438 30.957031 89.710938 7.773438 61.109375 7.773438 Z M 60.230469 107.84375 C 32.933594 107.84375 10.808594 85.714844 10.808594 58.421875 C 10.808594 31.125 32.933594 8.996094 60.230469 8.996094 C 87.527344 8.996094 109.652344 31.125 109.652344 58.421875 C 109.652344 85.714844 87.527344 107.84375 60.230469 107.84375 Z M 60.230469 107.84375 " fill-opacity="1" fill-rule="nonzero"/><path fill="#00bf63" d="M 59.351562 10.222656 C 33.359375 10.222656 12.289062 31.289062 12.289062 57.28125 C 12.289062 83.273438 33.359375 104.34375 59.351562 104.34375 C 85.34375 104.34375 106.410156 83.273438 106.410156 57.28125 C 106.410156 31.289062 85.339844 10.222656 59.351562 10.222656 Z M 58.46875 100.839844 C 33.785156 100.839844 13.773438 80.828125 13.773438 56.144531 C 13.773438 31.457031 33.785156 11.445312 58.46875 11.445312 C 83.15625 11.445312 103.167969 31.457031 103.167969 56.144531 C 103.167969 80.828125 83.15625 100.839844 58.46875 100.839844 Z M 58.46875 100.839844 " fill-opacity="1" fill-rule="nonzero"/><path fill="#00bf63" d="M 57.589844 12.667969 C 34.210938 12.667969 15.253906 31.625 15.253906 55.003906 C 15.253906 78.386719 34.210938 97.339844 57.589844 97.339844 C 80.972656 97.339844 99.925781 78.386719 99.925781 55.003906 C 99.925781 31.625 80.972656 12.667969 57.589844 12.667969 Z M 56.710938 93.839844 C 34.632812 93.839844 16.738281 75.941406 16.738281 53.867188 C 16.738281 31.789062 34.632812 13.894531 56.710938 13.894531 C 78.789062 13.894531 96.683594 31.789062 96.683594 53.867188 C 96.683594 75.941406 78.785156 93.839844 56.710938 93.839844 Z M 56.710938 93.839844 " fill-opacity="1" fill-rule="nonzero"/><path fill="#00bf63" d="M 55.832031 15.117188 C 35.058594 15.117188 18.21875 31.957031 18.21875 52.726562 C 18.21875 73.5 35.058594 90.335938 55.832031 90.335938 C 76.601562 90.335938 93.441406 73.5 93.441406 52.726562 C 93.441406 31.957031 76.601562 15.117188 55.832031 15.117188 Z M 54.949219 86.835938 C 35.484375 86.835938 19.703125 71.054688 19.703125 51.589844 C 19.703125 32.121094 35.484375 16.34375 54.949219 16.34375 C 74.417969 16.34375 90.199219 32.121094 90.199219 51.589844 C 90.199219 71.054688 74.417969 86.835938 54.949219 86.835938 Z M 54.949219 86.835938 " fill-opacity="1" fill-rule="nonzero"/><path fill="#00bf63" d="M 54.070312 17.566406 C 35.910156 17.566406 21.1875 32.289062 21.1875 50.453125 C 21.1875 68.613281 35.910156 83.335938 54.070312 83.335938 C 72.230469 83.335938 86.957031 68.613281 86.957031 50.453125 C 86.957031 32.289062 72.230469 17.566406 54.070312 17.566406 Z M 53.191406 79.835938 C 36.335938 79.835938 22.667969 66.167969 22.667969 49.3125 C 22.667969 32.457031 36.335938 18.789062 53.191406 18.789062 C 70.046875 18.789062 83.710938 32.457031 83.710938 49.3125 C 83.710938 66.167969 70.046875 79.835938 53.191406 79.835938 Z M 53.191406 79.835938 " fill-opacity="1" fill-rule="nonzero"/><path fill="#00bf63" d="M 52.3125 20.015625 C 36.757812 20.015625 24.152344 32.621094 24.152344 48.175781 C 24.152344 63.726562 36.757812 76.332031 52.3125 76.332031 C 67.863281 76.332031 80.46875 63.726562 80.46875 48.175781 C 80.46875 32.621094 67.863281 20.015625 52.3125 20.015625 Z M 51.429688 72.832031 C 37.183594 72.832031 25.632812 61.28125 25.632812 47.035156 C 25.632812 32.789062 37.183594 21.238281 51.429688 21.238281 C 65.679688 21.238281 77.226562 32.789062 77.226562 47.035156 C 77.226562 61.28125 65.679688 72.832031 51.429688 72.832031 Z M 51.429688 72.832031 " fill-opacity="1" fill-rule="nonzero"/><path fill="#00bf63" d="M 50.550781 22.464844 C 37.609375 22.464844 27.117188 32.957031 27.117188 45.898438 C 27.117188 58.839844 37.609375 69.332031 50.550781 69.332031 C 63.492188 69.332031 73.984375 58.839844 73.984375 45.898438 C 73.984375 32.957031 63.492188 22.464844 50.550781 22.464844 Z M 49.671875 65.828125 C 38.035156 65.828125 28.601562 56.394531 28.601562 44.757812 C 28.601562 33.121094 38.035156 23.6875 49.671875 23.6875 C 61.308594 23.6875 70.742188 33.121094 70.742188 44.757812 C 70.742188 56.394531 61.308594 65.828125 49.671875 65.828125 Z M 49.671875 65.828125 " fill-opacity="1" fill-rule="nonzero"/><path fill="#00bf63" d="M 48.792969 24.914062 C 38.457031 24.914062 30.082031 33.289062 30.082031 43.621094 C 30.082031 53.953125 38.457031 62.328125 48.792969 62.328125 C 59.125 62.328125 67.5 53.953125 67.5 43.621094 C 67.5 33.289062 59.125 24.914062 48.792969 24.914062 Z M 47.910156 58.828125 C 38.882812 58.828125 31.566406 51.507812 31.566406 42.480469 C 31.566406 33.453125 38.882812 26.136719 47.910156 26.136719 C 56.9375 26.136719 64.257812 33.453125 64.257812 42.480469 C 64.257812 51.507812 56.9375 58.828125 47.910156 58.828125 Z M 47.910156 58.828125 " fill-opacity="1" fill-rule="nonzero"/><path fill="#00bf63" d="M 47.03125 27.359375 C 39.308594 27.359375 33.046875 33.621094 33.046875 41.34375 C 33.046875 49.066406 39.308594 55.324219 47.03125 55.324219 C 54.753906 55.324219 61.011719 49.066406 61.011719 41.34375 C 61.011719 33.621094 54.753906 27.359375 47.03125 27.359375 Z M 46.152344 51.824219 C 39.734375 51.824219 34.53125 46.621094 34.53125 40.207031 C 34.53125 33.789062 39.734375 28.585938 46.152344 28.585938 C 52.570312 28.585938 57.769531 33.789062 57.769531 40.207031 C 57.769531 46.621094 52.570312 51.824219 46.152344 51.824219 Z M 46.152344 51.824219 " fill-opacity="1" fill-rule="nonzero"/><path fill="#00bf63" d="M 45.269531 29.808594 C 40.160156 29.808594 36.015625 33.953125 36.015625 39.066406 C 36.015625 44.179688 40.160156 48.324219 45.269531 48.324219 C 50.382812 48.324219 54.527344 44.179688 54.527344 39.066406 C 54.527344 33.953125 50.382812 29.808594 45.269531 29.808594 Z M 44.390625 44.824219 C 40.582031 44.824219 37.496094 41.734375 37.496094 37.929688 C 37.496094 34.121094 40.582031 31.035156 44.390625 31.035156 C 48.199219 31.035156 51.285156 34.121094 51.285156 37.929688 C 51.285156 41.734375 48.199219 44.824219 44.390625 44.824219 Z M 44.390625 44.824219 " fill-opacity="1" fill-rule="nonzero"/><path fill="#00bf63" d="M 47.984375 36.0625 C 48.035156 36.359375 48.050781 36.652344 48.042969 36.949219 C 48.03125 37.25 47.992188 37.542969 47.921875 37.832031 C 47.855469 38.121094 47.757812 38.402344 47.636719 38.671875 C 47.511719 38.941406 47.363281 39.199219 47.1875 39.441406 C 47.015625 39.679688 46.820312 39.902344 46.601562 40.105469 C 46.382812 40.308594 46.148438 40.488281 45.894531 40.644531 C 45.640625 40.800781 45.375 40.929688 45.097656 41.035156 C 44.816406 41.140625 44.53125 41.214844 44.238281 41.261719 C 43.945312 41.308594 43.648438 41.328125 43.351562 41.320312 C 43.054688 41.308594 42.761719 41.269531 42.472656 41.199219 C 42.179688 41.132812 41.902344 41.035156 41.628906 40.910156 C 41.359375 40.789062 41.105469 40.640625 40.863281 40.464844 C 40.621094 40.292969 40.398438 40.097656 40.195312 39.878906 C 39.992188 39.660156 39.8125 39.425781 39.65625 39.171875 C 39.5 38.917969 39.371094 38.652344 39.265625 38.375 C 39.164062 38.09375 39.085938 37.808594 39.039062 37.515625 C 38.992188 37.222656 38.972656 36.925781 38.984375 36.628906 C 38.996094 36.332031 39.035156 36.039062 39.101562 35.75 C 39.171875 35.457031 39.265625 35.179688 39.390625 34.90625 C 39.515625 34.636719 39.664062 34.382812 39.835938 34.140625 C 40.011719 33.898438 40.207031 33.675781 40.425781 33.472656 C 40.640625 33.269531 40.878906 33.089844 41.128906 32.933594 C 41.382812 32.777344 41.648438 32.648438 41.929688 32.542969 C 42.207031 32.441406 42.492188 32.363281 42.785156 32.316406 C 43.082031 32.269531 43.375 32.25 43.671875 32.261719 C 43.972656 32.273438 44.265625 32.3125 44.554688 32.378906 C 44.84375 32.449219 45.125 32.542969 45.394531 32.667969 C 45.664062 32.789062 45.921875 32.941406 46.164062 33.113281 C 46.402344 33.289062 46.625 33.484375 46.828125 33.703125 C 47.03125 33.917969 47.210938 34.15625 47.367188 34.40625 C 47.523438 34.660156 47.652344 34.925781 47.757812 35.207031 C 47.863281 35.484375 47.9375 35.769531 47.984375 36.0625 Z M 47.984375 36.0625 " fill-opacity="1" fill-rule="nonzero"/></g></g></g></svg>