<svg xmlns="http://www.w3.org/2000/svg" xmlns:xlink="http://www.w3.org/1999/xlink" width="380" zoomAndPan="magnify" viewBox="0 0 285 142.499996" height="190" preserveAspectRatio="xMidYMid meet" version="1.0"><defs><g/><clipPath id="63ade00b37"><path d="M 25 17.773438 L 229 17.773438 L 229 72 L 25 72 Z M 25 17.773438 " clip-rule="nonzero"/></clipPath><clipPath id="b310ae872a"><path d="M 24.507812 35.710938 L 24.507812 77.582031 C 24.507812 87.488281 32.539062 95.519531 42.445312 95.519531 L 211.164062 95.519531 C 221.070312 95.519531 229.101562 87.488281 229.101562 77.582031 L 229.101562 35.710938 C 229.101562 25.804688 221.070312 17.773438 211.164062 17.773438 L 42.445312 17.773438 C 32.539062 17.773438 24.507812 25.804688 24.507812 35.710938 Z M 24.507812 35.710938 " clip-rule="nonzero"/></clipPath><clipPath id="40315d3ecd"><path d="M 25 76 L 45 76 L 45 88 L 25 88 Z M 25 76 " clip-rule="nonzero"/></clipPath><clipPath id="73f2d2c76c"><path d="M 24.507812 35.710938 L 24.507812 77.582031 C 24.507812 87.488281 32.539062 95.519531 42.445312 95.519531 L 211.164062 95.519531 C 221.070312 95.519531 229.101562 87.488281 229.101562 77.582031 L 229.101562 35.710938 C 229.101562 25.804688 221.070312 17.773438 211.164062 17.773438 L 42.445312 17.773438 C 32.539062 17.773438 24.507812 25.804688 24.507812 35.710938 Z M 24.507812 35.710938 " clip-rule="nonzero"/></clipPath><clipPath id="cd95b9890c"><path d="M 33 76 L 89 76 L 89 95.5 L 33 95.5 Z M 33 76 " clip-rule="nonzero"/></clipPath><clipPath id="ed919d353e"><path d="M 24.507812 35.710938 L 24.507812 77.582031 C 24.507812 87.488281 32.539062 95.519531 42.445312 95.519531 L 211.164062 95.519531 C 221.070312 95.519531 229.101562 87.488281 229.101562 77.582031 L 229.101562 35.710938 C 229.101562 25.804688 221.070312 17.773438 211.164062 17.773438 L 42.445312 17.773438 C 32.539062 17.773438 24.507812 25.804688 24.507812 35.710938 Z M 24.507812 35.710938 " clip-rule="nonzero"/></clipPath><clipPath id="236c122bc5"><path d="M 77 76 L 133 76 L 133 95.5 L 77 95.5 Z M 77 76 " clip-rule="nonzero"/></clipPath><clipPath id="7bcc2c55d7"><path d="M 24.507812 35.710938 L 24.507812 77.582031 C 24.507812 87.488281 32.539062 95.519531 42.445312 95.519531 L 211.164062 95.519531 C 221.070312 95.519531 229.101562 87.488281 229.101562 77.582031 L 229.101562 35.710938 C 229.101562 25.804688 221.070312 17.773438 211.164062 17.773438 L 42.445312 17.773438 C 32.539062 17.773438 24.507812 25.804688 24.507812 35.710938 Z M 24.507812 35.710938 " clip-rule="nonzero"/></clipPath><clipPath id="6184341751"><path d="M 121 76 L 177 76 L 177 95.5 L 121 95.5 Z M 121 76 " clip-rule="nonzero"/></clipPath><clipPath id="f13ab3e6c1"><path d="M 24.507812 35.710938 L 24.507812 77.582031 C 24.507812 87.488281 32.539062 95.519531 42.445312 95.519531 L 211.164062 95.519531 C 221.070312 95.519531 229.101562 87.488281 229.101562 77.582031 L 229.101562 35.710938 C 229.101562 25.804688 221.070312 17.773438 211.164062 17.773438 L 42.445312 17.773438 C 32.539062 17.773438 24.507812 25.804688 24.507812 35.710938 Z M 24.507812 35.710938 " clip-rule="nonzero"/></clipPath><clipPath id="afd512a96e"><path d="M 165 76 L 221 76 L 221 95.5 L 165 95.5 Z M 165 76 " clip-rule="nonzero"/></clipPath><clipPath id="a3182db710"><path d="M 24.507812 35.710938 L 24.507812 77.582031 C 24.507812 87.488281 32.539062 95.519531 42.445312 95.519531 L 211.164062 95.519531 C 221.070312 95.519531 229.101562 87.488281 229.101562 77.582031 L 229.101562 35.710938 C 229.101562 25.804688 221.070312 17.773438 211.164062 17.773438 L 42.445312 17.773438 C 32.539062 17.773438 24.507812 25.804688 24.507812 35.710938 Z M 24.507812 35.710938 " clip-rule="nonzero"/></clipPath><clipPath id="1bd13f154d"><path d="M 209 84 L 229 84 L 229 95.5 L 209 95.5 Z M 209 84 " clip-rule="nonzero"/></clipPath><clipPath id="5bcc88efae"><path d="M 24.507812 35.710938 L 24.507812 77.582031 C 24.507812 87.488281 32.539062 95.519531 42.445312 95.519531 L 211.164062 95.519531 C 221.070312 95.519531 229.101562 87.488281 229.101562 77.582031 L 229.101562 35.710938 C 229.101562 25.804688 221.070312 17.773438 211.164062 17.773438 L 42.445312 17.773438 C 32.539062 17.773438 24.507812 25.804688 24.507812 35.710938 Z M 24.507812 35.710938 " clip-rule="nonzero"/></clipPath><clipPath id="adefd86b42"><path d="M 37.8125 26.050781 L 73.6875 26.050781 L 73.6875 61.925781 L 37.8125 61.925781 Z M 37.8125 26.050781 " clip-rule="nonzero"/></clipPath></defs><g clip-path="url(#63ade00b37)"><g clip-path="url(#b310ae872a)"><path fill="#ffffff" d="M 25.007812 17.769531 L 228.640625 17.769531 L 228.640625 71.769531 L 25.007812 71.769531 Z M 25.007812 17.769531 " fill-opacity="1" fill-rule="nonzero"/></g></g><g clip-path="url(#40315d3ecd)"><g clip-path="url(#73f2d2c76c)"><path fill="#ffffff" d="M 44.460938 76.476562 L 25.007812 87.710938 L 25.007812 76.476562 Z M 44.460938 76.476562 " fill-opacity="1" fill-rule="nonzero"/></g></g><g clip-path="url(#cd95b9890c)"><g clip-path="url(#ed919d353e)"><path fill="#ffffff" d="M 88.394531 76.476562 L 55.417969 95.519531 L 33.441406 95.519531 L 66.421875 76.476562 Z M 88.394531 76.476562 " fill-opacity="1" fill-rule="nonzero"/></g></g><g clip-path="url(#236c122bc5)"><g clip-path="url(#7bcc2c55d7)"><path fill="#ffffff" d="M 132.328125 76.476562 L 99.347656 95.519531 L 77.386719 95.519531 L 110.363281 76.476562 Z M 132.328125 76.476562 " fill-opacity="1" fill-rule="nonzero"/></g></g><g clip-path="url(#6184341751)"><g clip-path="url(#f13ab3e6c1)"><path fill="#ffffff" d="M 176.265625 76.476562 L 143.285156 95.519531 L 121.320312 95.519531 L 154.292969 76.476562 Z M 176.265625 76.476562 " fill-opacity="1" fill-rule="nonzero"/></g></g><g clip-path="url(#afd512a96e)"><g clip-path="url(#a3182db710)"><path fill="#ffffff" d="M 220.199219 76.476562 L 187.226562 95.519531 L 165.253906 95.519531 L 198.230469 76.476562 Z M 220.199219 76.476562 " fill-opacity="1" fill-rule="nonzero"/></g></g><g clip-path="url(#1bd13f154d)"><g clip-path="url(#5bcc88efae)"><path fill="#ffffff" d="M 228.640625 84.292969 L 228.640625 95.519531 L 209.195312 95.519531 Z M 228.640625 84.292969 " fill-opacity="1" fill-rule="nonzero"/></g></g><g clip-path="url(#adefd86b42)"><path fill="#00bf63" d="M 73.792969 44.042969 C 73.792969 53.976562 65.738281 62.03125 55.804688 62.03125 C 45.867188 62.03125 37.8125 53.976562 37.8125 44.042969 C 37.8125 34.105469 45.867188 26.050781 55.804688 26.050781 C 65.738281 26.050781 73.792969 34.105469 73.792969 44.042969 " fill-opacity="1" fill-rule="nonzero"/></g><path fill="#ffffff" d="M 47.921875 35.410156 C 48.109375 35.179688 48.589844 34.65625 49.230469 34.660156 C 49.265625 34.664062 49.304688 34.664062 49.355469 34.667969 C 49.355469 34.667969 49.457031 34.679688 49.554688 34.707031 C 50.382812 34.925781 51.863281 36.5625 51.863281 36.5625 C 53.128906 37.957031 53.496094 38.023438 53.492188 38.539062 C 53.488281 39.019531 53.1875 39.390625 52.628906 39.945312 C 51.144531 41.425781 50.828125 41.539062 50.714844 42 C 50.644531 42.273438 50.441406 42.800781 51.359375 43.824219 C 52.726562 45.351562 56 48.464844 56.285156 48.65625 C 56.574219 48.847656 57.589844 49.515625 58.957031 48.277344 C 59.890625 47.429688 60.335938 46.433594 61 46.375 C 61.347656 46.34375 61.605469 46.554688 62.136719 47.003906 C 65.261719 49.664062 65.308594 50.128906 65.28125 50.40625 C 65.238281 50.882812 65.019531 51.3125 64.296875 51.835938 C 62.453125 53.171875 61.628906 54.347656 57.875 52.789062 C 54.125 51.234375 50.183594 47.289062 49.070312 45.605469 C 47.957031 43.921875 46.207031 41.34375 46.335938 39.5625 C 46.421875 38.324219 46.804688 37.242188 46.804688 37.242188 C 47.140625 36.402344 47.59375 35.792969 47.921875 35.410156 " fill-opacity="1" fill-rule="nonzero"/><g fill="#00bf63" fill-opacity="1"><g transform="translate(87.42934, 58.576357)"><g><path d="M 4.703125 -6.046875 L 7.0625 -6.046875 L 7.0625 -4.40625 L 4.703125 -4.40625 L 4.703125 -2 L 2.984375 -2 L 2.984375 -4.40625 L 0.625 -4.40625 L 0.625 -6.046875 L 2.984375 -6.046875 L 2.984375 -8.4375 L 4.703125 -8.4375 Z M 4.703125 -6.046875 "/></g></g></g><g fill="#00bf63" fill-opacity="1"><g transform="translate(95.13037, 58.576357)"><g/></g></g><g fill="#00bf63" fill-opacity="1"><g transform="translate(98.577636, 58.576357)"><g><path d="M 4.359375 0.15625 C 3.378906 0.15625 2.601562 -0.0390625 2.03125 -0.4375 C 1.46875 -0.84375 1.09375 -1.398438 0.90625 -2.109375 L 2.46875 -2.828125 L 2.640625 -2.78125 C 2.910156 -1.988281 3.476562 -1.59375 4.34375 -1.59375 C 5.03125 -1.59375 5.550781 -1.875 5.90625 -2.4375 C 6.257812 -3 6.4375 -3.847656 6.4375 -4.984375 L 6.296875 -5.03125 C 6.054688 -4.570312 5.742188 -4.226562 5.359375 -4 C 4.972656 -3.769531 4.476562 -3.65625 3.875 -3.65625 C 3.25 -3.65625 2.695312 -3.789062 2.21875 -4.0625 C 1.75 -4.34375 1.382812 -4.738281 1.125 -5.25 C 0.863281 -5.757812 0.734375 -6.359375 0.734375 -7.046875 C 0.734375 -7.765625 0.882812 -8.390625 1.1875 -8.921875 C 1.488281 -9.453125 1.921875 -9.863281 2.484375 -10.15625 C 3.046875 -10.445312 3.703125 -10.59375 4.453125 -10.59375 C 5.742188 -10.59375 6.75 -10.179688 7.46875 -9.359375 C 8.195312 -8.546875 8.5625 -7.234375 8.5625 -5.421875 C 8.5625 -4.171875 8.394531 -3.128906 8.0625 -2.296875 C 7.726562 -1.472656 7.242188 -0.859375 6.609375 -0.453125 C 5.984375 -0.046875 5.234375 0.15625 4.359375 0.15625 Z M 4.5 -5.34375 C 5.039062 -5.34375 5.460938 -5.5 5.765625 -5.8125 C 6.078125 -6.125 6.234375 -6.546875 6.234375 -7.078125 C 6.234375 -7.617188 6.078125 -8.046875 5.765625 -8.359375 C 5.460938 -8.671875 5.039062 -8.828125 4.5 -8.828125 C 3.96875 -8.828125 3.550781 -8.675781 3.25 -8.375 C 2.957031 -8.070312 2.8125 -7.640625 2.8125 -7.078125 C 2.8125 -6.523438 2.957031 -6.097656 3.25 -5.796875 C 3.550781 -5.492188 3.96875 -5.34375 4.5 -5.34375 Z M 4.5 -5.34375 "/></g></g></g><g fill="#00bf63" fill-opacity="1"><g transform="translate(108.012996, 58.576357)"><g><path d="M 3.46875 0 L 1.359375 0 L 4.96875 -8.5625 L 4.921875 -8.703125 L 0.28125 -8.703125 L 0.28125 -10.4375 L 7.0625 -10.4375 L 7.0625 -8.609375 Z M 3.46875 0 "/></g></g></g><g fill="#00bf63" fill-opacity="1"><g transform="translate(115.414263, 58.576357)"><g><path d="M 3.46875 0 L 1.359375 0 L 4.96875 -8.5625 L 4.921875 -8.703125 L 0.28125 -8.703125 L 0.28125 -10.4375 L 7.0625 -10.4375 L 7.0625 -8.609375 Z M 3.46875 0 "/></g></g></g><g fill="#00bf63" fill-opacity="1"><g transform="translate(122.815531, 58.576357)"><g/></g></g><g fill="#00bf63" fill-opacity="1"><g transform="translate(126.262797, 58.576357)"><g><path d="M 4.359375 0.15625 C 3.378906 0.15625 2.601562 -0.0390625 2.03125 -0.4375 C 1.46875 -0.84375 1.09375 -1.398438 0.90625 -2.109375 L 2.46875 -2.828125 L 2.640625 -2.78125 C 2.910156 -1.988281 3.476562 -1.59375 4.34375 -1.59375 C 5.03125 -1.59375 5.550781 -1.875 5.90625 -2.4375 C 6.257812 -3 6.4375 -3.847656 6.4375 -4.984375 L 6.296875 -5.03125 C 6.054688 -4.570312 5.742188 -4.226562 5.359375 -4 C 4.972656 -3.769531 4.476562 -3.65625 3.875 -3.65625 C 3.25 -3.65625 2.695312 -3.789062 2.21875 -4.0625 C 1.75 -4.34375 1.382812 -4.738281 1.125 -5.25 C 0.863281 -5.757812 0.734375 -6.359375 0.734375 -7.046875 C 0.734375 -7.765625 0.882812 -8.390625 1.1875 -8.921875 C 1.488281 -9.453125 1.921875 -9.863281 2.484375 -10.15625 C 3.046875 -10.445312 3.703125 -10.59375 4.453125 -10.59375 C 5.742188 -10.59375 6.75 -10.179688 7.46875 -9.359375 C 8.195312 -8.546875 8.5625 -7.234375 8.5625 -5.421875 C 8.5625 -4.171875 8.394531 -3.128906 8.0625 -2.296875 C 7.726562 -1.472656 7.242188 -0.859375 6.609375 -0.453125 C 5.984375 -0.046875 5.234375 0.15625 4.359375 0.15625 Z M 4.5 -5.34375 C 5.039062 -5.34375 5.460938 -5.5 5.765625 -5.8125 C 6.078125 -6.125 6.234375 -6.546875 6.234375 -7.078125 C 6.234375 -7.617188 6.078125 -8.046875 5.765625 -8.359375 C 5.460938 -8.671875 5.039062 -8.828125 4.5 -8.828125 C 3.96875 -8.828125 3.550781 -8.675781 3.25 -8.375 C 2.957031 -8.070312 2.8125 -7.640625 2.8125 -7.078125 C 2.8125 -6.523438 2.957031 -6.097656 3.25 -5.796875 C 3.550781 -5.492188 3.96875 -5.34375 4.5 -5.34375 Z M 4.5 -5.34375 "/></g></g></g><g fill="#00bf63" fill-opacity="1"><g transform="translate(135.698156, 58.576357)"><g><path d="M 4.484375 0.15625 C 3.648438 0.15625 2.945312 0.0234375 2.375 -0.234375 C 1.800781 -0.492188 1.367188 -0.859375 1.078125 -1.328125 C 0.785156 -1.804688 0.640625 -2.375 0.640625 -3.03125 C 0.640625 -3.632812 0.789062 -4.15625 1.09375 -4.59375 C 1.394531 -5.039062 1.832031 -5.390625 2.40625 -5.640625 L 2.40625 -5.796875 C 2 -6.046875 1.6875 -6.34375 1.46875 -6.6875 C 1.25 -7.039062 1.140625 -7.445312 1.140625 -7.90625 C 1.140625 -8.4375 1.269531 -8.90625 1.53125 -9.3125 C 1.789062 -9.71875 2.171875 -10.03125 2.671875 -10.25 C 3.171875 -10.476562 3.773438 -10.59375 4.484375 -10.59375 C 5.179688 -10.59375 5.78125 -10.476562 6.28125 -10.25 C 6.78125 -10.03125 7.160156 -9.71875 7.421875 -9.3125 C 7.679688 -8.90625 7.8125 -8.4375 7.8125 -7.90625 C 7.8125 -7.445312 7.703125 -7.039062 7.484375 -6.6875 C 7.265625 -6.34375 6.945312 -6.046875 6.53125 -5.796875 L 6.53125 -5.640625 C 7.144531 -5.398438 7.59375 -5.054688 7.875 -4.609375 C 8.164062 -4.160156 8.3125 -3.632812 8.3125 -3.03125 C 8.3125 -2.375 8.164062 -1.804688 7.875 -1.328125 C 7.582031 -0.859375 7.148438 -0.492188 6.578125 -0.234375 C 6.003906 0.0234375 5.304688 0.15625 4.484375 0.15625 Z M 4.484375 -6.375 C 4.890625 -6.375 5.210938 -6.488281 5.453125 -6.71875 C 5.703125 -6.945312 5.828125 -7.265625 5.828125 -7.671875 C 5.828125 -8.078125 5.703125 -8.394531 5.453125 -8.625 C 5.210938 -8.863281 4.890625 -8.984375 4.484375 -8.984375 C 4.054688 -8.984375 3.71875 -8.867188 3.46875 -8.640625 C 3.226562 -8.410156 3.109375 -8.085938 3.109375 -7.671875 C 3.109375 -7.265625 3.226562 -6.945312 3.46875 -6.71875 C 3.71875 -6.488281 4.054688 -6.375 4.484375 -6.375 Z M 4.484375 -1.609375 C 5.035156 -1.609375 5.460938 -1.742188 5.765625 -2.015625 C 6.078125 -2.296875 6.234375 -2.6875 6.234375 -3.1875 C 6.234375 -3.675781 6.078125 -4.0625 5.765625 -4.34375 C 5.460938 -4.625 5.035156 -4.765625 4.484375 -4.765625 C 3.921875 -4.765625 3.484375 -4.625 3.171875 -4.34375 C 2.867188 -4.0625 2.71875 -3.675781 2.71875 -3.1875 C 2.71875 -2.6875 2.867188 -2.296875 3.171875 -2.015625 C 3.484375 -1.742188 3.921875 -1.609375 4.484375 -1.609375 Z M 4.484375 -1.609375 "/></g></g></g><g fill="#00bf63" fill-opacity="1"><g transform="translate(144.648187, 58.576357)"><g><path d="M 4.34375 0.15625 C 3.300781 0.15625 2.472656 -0.0625 1.859375 -0.5 C 1.253906 -0.9375 0.859375 -1.550781 0.671875 -2.34375 L 2.234375 -3.03125 L 2.40625 -3 C 2.550781 -2.539062 2.773438 -2.191406 3.078125 -1.953125 C 3.378906 -1.722656 3.796875 -1.609375 4.328125 -1.609375 C 4.867188 -1.609375 5.285156 -1.765625 5.578125 -2.078125 C 5.878906 -2.390625 6.03125 -2.851562 6.03125 -3.46875 C 6.03125 -4.070312 5.882812 -4.53125 5.59375 -4.84375 C 5.300781 -5.15625 4.898438 -5.3125 4.390625 -5.3125 C 4.003906 -5.3125 3.679688 -5.226562 3.421875 -5.0625 C 3.160156 -4.894531 2.941406 -4.648438 2.765625 -4.328125 L 1.0625 -4.453125 L 1.265625 -10.4375 L 7.484375 -10.4375 L 7.484375 -8.703125 L 3 -8.703125 L 2.90625 -6.046875 L 3.0625 -6.015625 C 3.300781 -6.328125 3.585938 -6.566406 3.921875 -6.734375 C 4.265625 -6.898438 4.675781 -6.984375 5.15625 -6.984375 C 5.75 -6.984375 6.265625 -6.847656 6.703125 -6.578125 C 7.148438 -6.316406 7.492188 -5.925781 7.734375 -5.40625 C 7.984375 -4.882812 8.109375 -4.25 8.109375 -3.5 C 8.109375 -2.726562 7.960938 -2.070312 7.671875 -1.53125 C 7.378906 -0.988281 6.953125 -0.570312 6.390625 -0.28125 C 5.828125 0.0078125 5.144531 0.15625 4.34375 0.15625 Z M 4.34375 0.15625 "/></g></g></g><g fill="#00bf63" fill-opacity="1"><g transform="translate(153.441199, 58.576357)"><g><path d="M 4.984375 0.15625 C 4.203125 0.15625 3.503906 -0.0234375 2.890625 -0.390625 C 2.273438 -0.753906 1.785156 -1.328125 1.421875 -2.109375 C 1.054688 -2.898438 0.875 -3.90625 0.875 -5.125 C 0.875 -6.363281 1.0625 -7.390625 1.4375 -8.203125 C 1.820312 -9.015625 2.34375 -9.613281 3 -10 C 3.664062 -10.394531 4.425781 -10.59375 5.28125 -10.59375 C 5.988281 -10.59375 6.597656 -10.488281 7.109375 -10.28125 C 7.617188 -10.070312 8.019531 -9.769531 8.3125 -9.375 L 7.296875 -8.078125 L 7.109375 -8.078125 C 6.679688 -8.597656 6.070312 -8.859375 5.28125 -8.859375 C 3.789062 -8.859375 3.03125 -7.769531 3 -5.59375 L 3.15625 -5.546875 C 3.394531 -5.992188 3.710938 -6.332031 4.109375 -6.5625 C 4.503906 -6.800781 5.003906 -6.921875 5.609375 -6.921875 C 6.253906 -6.921875 6.8125 -6.78125 7.28125 -6.5 C 7.757812 -6.226562 8.125 -5.835938 8.375 -5.328125 C 8.625 -4.828125 8.75 -4.222656 8.75 -3.515625 C 8.75 -2.753906 8.597656 -2.097656 8.296875 -1.546875 C 7.992188 -0.992188 7.5625 -0.570312 7 -0.28125 C 6.4375 0.0078125 5.765625 0.15625 4.984375 0.15625 Z M 4.953125 -1.609375 C 5.484375 -1.609375 5.898438 -1.765625 6.203125 -2.078125 C 6.515625 -2.398438 6.671875 -2.847656 6.671875 -3.421875 C 6.671875 -3.992188 6.515625 -4.4375 6.203125 -4.75 C 5.898438 -5.070312 5.484375 -5.234375 4.953125 -5.234375 C 4.597656 -5.234375 4.285156 -5.15625 4.015625 -5 C 3.753906 -4.851562 3.550781 -4.644531 3.40625 -4.375 C 3.269531 -4.101562 3.203125 -3.785156 3.203125 -3.421875 C 3.203125 -2.859375 3.359375 -2.414062 3.671875 -2.09375 C 3.984375 -1.769531 4.410156 -1.609375 4.953125 -1.609375 Z M 4.953125 -1.609375 "/></g></g></g><g fill="#00bf63" fill-opacity="1"><g transform="translate(162.919381, 58.576357)"><g><path d="M 5.09375 0.15625 C 4.25 0.15625 3.507812 -0.03125 2.875 -0.40625 C 2.238281 -0.789062 1.742188 -1.382812 1.390625 -2.1875 C 1.046875 -2.988281 0.875 -4 0.875 -5.21875 C 0.875 -6.445312 1.046875 -7.457031 1.390625 -8.25 C 1.742188 -9.050781 2.238281 -9.640625 2.875 -10.015625 C 3.507812 -10.398438 4.25 -10.59375 5.09375 -10.59375 C 5.957031 -10.59375 6.703125 -10.398438 7.328125 -10.015625 C 7.960938 -9.640625 8.453125 -9.050781 8.796875 -8.25 C 9.148438 -7.457031 9.328125 -6.445312 9.328125 -5.21875 C 9.328125 -4 9.148438 -2.988281 8.796875 -2.1875 C 8.453125 -1.382812 7.960938 -0.789062 7.328125 -0.40625 C 6.703125 -0.03125 5.957031 0.15625 5.09375 0.15625 Z M 5.09375 -1.59375 C 5.5625 -1.59375 5.953125 -1.707031 6.265625 -1.9375 C 6.578125 -2.164062 6.816406 -2.546875 6.984375 -3.078125 C 7.160156 -3.609375 7.25 -4.320312 7.25 -5.21875 C 7.25 -6.113281 7.160156 -6.828125 6.984375 -7.359375 C 6.816406 -7.890625 6.578125 -8.269531 6.265625 -8.5 C 5.953125 -8.726562 5.5625 -8.84375 5.09375 -8.84375 C 4.632812 -8.84375 4.242188 -8.726562 3.921875 -8.5 C 3.609375 -8.269531 3.367188 -7.890625 3.203125 -7.359375 C 3.035156 -6.828125 2.953125 -6.113281 2.953125 -5.21875 C 2.953125 -4.320312 3.035156 -3.609375 3.203125 -3.078125 C 3.367188 -2.546875 3.609375 -2.164062 3.921875 -1.9375 C 4.242188 -1.707031 4.632812 -1.59375 5.09375 -1.59375 Z M 5.09375 -1.59375 "/></g></g></g><g fill="#00bf63" fill-opacity="1"><g transform="translate(173.118426, 58.576357)"><g><path d="M 3.46875 0 L 1.359375 0 L 4.96875 -8.5625 L 4.921875 -8.703125 L 0.28125 -8.703125 L 0.28125 -10.4375 L 7.0625 -10.4375 L 7.0625 -8.609375 Z M 3.46875 0 "/></g></g></g><g fill="#00bf63" fill-opacity="1"><g transform="translate(180.519693, 58.576357)"><g><path d="M 4.34375 0.15625 C 3.300781 0.15625 2.472656 -0.0625 1.859375 -0.5 C 1.253906 -0.9375 0.859375 -1.550781 0.671875 -2.34375 L 2.234375 -3.03125 L 2.40625 -3 C 2.550781 -2.539062 2.773438 -2.191406 3.078125 -1.953125 C 3.378906 -1.722656 3.796875 -1.609375 4.328125 -1.609375 C 4.867188 -1.609375 5.285156 -1.765625 5.578125 -2.078125 C 5.878906 -2.390625 6.03125 -2.851562 6.03125 -3.46875 C 6.03125 -4.070312 5.882812 -4.53125 5.59375 -4.84375 C 5.300781 -5.15625 4.898438 -5.3125 4.390625 -5.3125 C 4.003906 -5.3125 3.679688 -5.226562 3.421875 -5.0625 C 3.160156 -4.894531 2.941406 -4.648438 2.765625 -4.328125 L 1.0625 -4.453125 L 1.265625 -10.4375 L 7.484375 -10.4375 L 7.484375 -8.703125 L 3 -8.703125 L 2.90625 -6.046875 L 3.0625 -6.015625 C 3.300781 -6.328125 3.585938 -6.566406 3.921875 -6.734375 C 4.265625 -6.898438 4.675781 -6.984375 5.15625 -6.984375 C 5.75 -6.984375 6.265625 -6.847656 6.703125 -6.578125 C 7.148438 -6.316406 7.492188 -5.925781 7.734375 -5.40625 C 7.984375 -4.882812 8.109375 -4.25 8.109375 -3.5 C 8.109375 -2.726562 7.960938 -2.070312 7.671875 -1.53125 C 7.378906 -0.988281 6.953125 -0.570312 6.390625 -0.28125 C 5.828125 0.0078125 5.144531 0.15625 4.34375 0.15625 Z M 4.34375 0.15625 "/></g></g></g><g fill="#00bf63" fill-opacity="1"><g transform="translate(189.312706, 58.576357)"><g><path d="M 4.359375 0.15625 C 3.378906 0.15625 2.601562 -0.0390625 2.03125 -0.4375 C 1.46875 -0.84375 1.09375 -1.398438 0.90625 -2.109375 L 2.46875 -2.828125 L 2.640625 -2.78125 C 2.910156 -1.988281 3.476562 -1.59375 4.34375 -1.59375 C 5.03125 -1.59375 5.550781 -1.875 5.90625 -2.4375 C 6.257812 -3 6.4375 -3.847656 6.4375 -4.984375 L 6.296875 -5.03125 C 6.054688 -4.570312 5.742188 -4.226562 5.359375 -4 C 4.972656 -3.769531 4.476562 -3.65625 3.875 -3.65625 C 3.25 -3.65625 2.695312 -3.789062 2.21875 -4.0625 C 1.75 -4.34375 1.382812 -4.738281 1.125 -5.25 C 0.863281 -5.757812 0.734375 -6.359375 0.734375 -7.046875 C 0.734375 -7.765625 0.882812 -8.390625 1.1875 -8.921875 C 1.488281 -9.453125 1.921875 -9.863281 2.484375 -10.15625 C 3.046875 -10.445312 3.703125 -10.59375 4.453125 -10.59375 C 5.742188 -10.59375 6.75 -10.179688 7.46875 -9.359375 C 8.195312 -8.546875 8.5625 -7.234375 8.5625 -5.421875 C 8.5625 -4.171875 8.394531 -3.128906 8.0625 -2.296875 C 7.726562 -1.472656 7.242188 -0.859375 6.609375 -0.453125 C 5.984375 -0.046875 5.234375 0.15625 4.359375 0.15625 Z M 4.5 -5.34375 C 5.039062 -5.34375 5.460938 -5.5 5.765625 -5.8125 C 6.078125 -6.125 6.234375 -6.546875 6.234375 -7.078125 C 6.234375 -7.617188 6.078125 -8.046875 5.765625 -8.359375 C 5.460938 -8.671875 5.039062 -8.828125 4.5 -8.828125 C 3.96875 -8.828125 3.550781 -8.675781 3.25 -8.375 C 2.957031 -8.070312 2.8125 -7.640625 2.8125 -7.078125 C 2.8125 -6.523438 2.957031 -6.097656 3.25 -5.796875 C 3.550781 -5.492188 3.96875 -5.34375 4.5 -5.34375 Z M 4.5 -5.34375 "/></g></g></g><g fill="#00bf63" fill-opacity="1"><g transform="translate(198.748065, 58.576357)"><g><path d="M 4.25 0.15625 C 3.132812 0.15625 2.25 -0.078125 1.59375 -0.546875 C 0.9375 -1.023438 0.519531 -1.703125 0.34375 -2.578125 L 1.90625 -3.296875 L 2.078125 -3.265625 C 2.242188 -2.691406 2.488281 -2.269531 2.8125 -2 C 3.144531 -1.738281 3.601562 -1.609375 4.1875 -1.609375 C 4.75 -1.609375 5.175781 -1.738281 5.46875 -2 C 5.757812 -2.269531 5.90625 -2.65625 5.90625 -3.15625 C 5.90625 -3.644531 5.757812 -4.019531 5.46875 -4.28125 C 5.175781 -4.539062 4.75 -4.671875 4.1875 -4.671875 L 2.609375 -4.671875 L 2.609375 -6.28125 L 3.984375 -6.28125 C 4.453125 -6.28125 4.820312 -6.394531 5.09375 -6.625 C 5.375 -6.863281 5.515625 -7.195312 5.515625 -7.625 C 5.515625 -8.050781 5.382812 -8.375 5.125 -8.59375 C 4.863281 -8.8125 4.503906 -8.921875 4.046875 -8.921875 C 3.578125 -8.921875 3.160156 -8.8125 2.796875 -8.59375 C 2.441406 -8.375 2.15625 -8.078125 1.9375 -7.703125 L 1.78125 -7.671875 L 0.6875 -8.9375 C 1.0625 -9.4375 1.535156 -9.835938 2.109375 -10.140625 C 2.679688 -10.441406 3.363281 -10.59375 4.15625 -10.59375 C 5.257812 -10.59375 6.097656 -10.363281 6.671875 -9.90625 C 7.242188 -9.445312 7.53125 -8.804688 7.53125 -7.984375 C 7.53125 -7.484375 7.410156 -7.050781 7.171875 -6.6875 C 6.941406 -6.332031 6.609375 -6.03125 6.171875 -5.78125 L 6.171875 -5.625 C 7.378906 -5.195312 7.984375 -4.34375 7.984375 -3.0625 C 7.984375 -2.40625 7.84375 -1.835938 7.5625 -1.359375 C 7.289062 -0.878906 6.875 -0.503906 6.3125 -0.234375 C 5.757812 0.0234375 5.070312 0.15625 4.25 0.15625 Z M 4.25 0.15625 "/></g></g></g><g fill="#00bf63" fill-opacity="1"><g transform="translate(207.384059, 58.576357)"><g><path d="M 7.09375 0 L 5.109375 0 L 5.109375 -2.265625 L 0.359375 -2.265625 L 0.359375 -3.9375 L 4.453125 -10.4375 L 7.09375 -10.4375 L 7.09375 -3.9375 L 8.703125 -3.9375 L 8.703125 -2.265625 L 7.09375 -2.265625 Z M 2.46875 -4.078125 L 2.53125 -3.9375 L 5.109375 -3.9375 L 5.109375 -7.984375 L 4.953125 -8 Z M 2.46875 -4.078125 "/></g></g></g><g fill="#545454" fill-opacity="1"><g transform="translate(87.42934, 38.566524)"><g><path d="M 4.171875 0.109375 C 3.472656 0.109375 2.851562 -0.03125 2.3125 -0.3125 C 1.78125 -0.601562 1.363281 -1.039062 1.0625 -1.625 C 0.757812 -2.21875 0.609375 -2.953125 0.609375 -3.828125 C 0.609375 -4.703125 0.757812 -5.429688 1.0625 -6.015625 C 1.363281 -6.609375 1.78125 -7.046875 2.3125 -7.328125 C 2.851562 -7.617188 3.472656 -7.765625 4.171875 -7.765625 C 4.867188 -7.765625 5.484375 -7.617188 6.015625 -7.328125 C 6.554688 -7.046875 6.976562 -6.609375 7.28125 -6.015625 C 7.582031 -5.429688 7.734375 -4.703125 7.734375 -3.828125 C 7.734375 -2.953125 7.582031 -2.21875 7.28125 -1.625 C 6.976562 -1.039062 6.554688 -0.601562 6.015625 -0.3125 C 5.484375 -0.03125 4.867188 0.109375 4.171875 0.109375 Z M 4.171875 -1.203125 C 4.816406 -1.203125 5.3125 -1.410156 5.65625 -1.828125 C 6 -2.242188 6.171875 -2.910156 6.171875 -3.828125 C 6.171875 -4.742188 6 -5.410156 5.65625 -5.828125 C 5.3125 -6.242188 4.816406 -6.453125 4.171875 -6.453125 C 3.515625 -6.453125 3.015625 -6.242188 2.671875 -5.828125 C 2.328125 -5.410156 2.15625 -4.742188 2.15625 -3.828125 C 2.15625 -2.910156 2.328125 -2.242188 2.671875 -1.828125 C 3.015625 -1.410156 3.515625 -1.203125 4.171875 -1.203125 Z M 4.171875 -1.203125 "/></g></g></g><g fill="#545454" fill-opacity="1"><g transform="translate(95.758775, 38.566524)"><g><path d="M 2.453125 0 L 1 0 L 1 -7.65625 L 2.734375 -7.65625 L 5.796875 -2.71875 L 5.9375 -2.75 L 5.9375 -7.65625 L 7.390625 -7.65625 L 7.390625 0 L 5.84375 0 L 2.59375 -5.265625 L 2.453125 -5.25 Z M 2.453125 0 "/></g></g></g><g fill="#545454" fill-opacity="1"><g transform="translate(104.140498, 38.566524)"><g><path d="M 2.5 -7.65625 L 2.5 -1.265625 L 5.953125 -1.265625 L 5.953125 0 L 1 0 L 1 -7.65625 Z M 2.5 -7.65625 "/></g></g></g><g fill="#545454" fill-opacity="1"><g transform="translate(110.331361, 38.566524)"><g><path d="M 2.5 0 L 1 0 L 1 -7.65625 L 2.5 -7.65625 Z M 2.5 0 "/></g></g></g><g fill="#545454" fill-opacity="1"><g transform="translate(113.834636, 38.566524)"><g><path d="M 2.453125 0 L 1 0 L 1 -7.65625 L 2.734375 -7.65625 L 5.796875 -2.71875 L 5.9375 -2.75 L 5.9375 -7.65625 L 7.390625 -7.65625 L 7.390625 0 L 5.84375 0 L 2.59375 -5.265625 L 2.453125 -5.25 Z M 2.453125 0 "/></g></g></g><g fill="#545454" fill-opacity="1"><g transform="translate(122.216359, 38.566524)"><g><path d="M 2.5 -3.359375 L 2.5 -1.265625 L 6.15625 -1.265625 L 6.15625 0 L 1 0 L 1 -7.65625 L 6.078125 -7.65625 L 6.078125 -6.390625 L 2.5 -6.390625 L 2.5 -4.59375 L 5.625 -4.59375 L 5.625 -3.359375 Z M 2.5 -3.359375 "/></g></g></g><g fill="#545454" fill-opacity="1"><g transform="translate(128.788927, 38.566524)"><g/></g></g><g fill="#545454" fill-opacity="1"><g transform="translate(131.314429, 38.566524)"><g><path d="M 3.390625 0.109375 C 2.859375 0.109375 2.382812 0.046875 1.96875 -0.078125 C 1.5625 -0.210938 1.21875 -0.382812 0.9375 -0.59375 C 0.664062 -0.8125 0.457031 -1.046875 0.3125 -1.296875 L 1.140625 -2.3125 L 1.265625 -2.3125 C 1.503906 -1.976562 1.800781 -1.707031 2.15625 -1.5 C 2.507812 -1.300781 2.921875 -1.203125 3.390625 -1.203125 C 3.796875 -1.203125 4.097656 -1.285156 4.296875 -1.453125 C 4.503906 -1.628906 4.609375 -1.863281 4.609375 -2.15625 C 4.609375 -2.34375 4.578125 -2.492188 4.515625 -2.609375 C 4.453125 -2.734375 4.34375 -2.835938 4.1875 -2.921875 C 4.03125 -3.015625 3.820312 -3.09375 3.5625 -3.15625 L 2.578125 -3.375 C 1.890625 -3.53125 1.378906 -3.789062 1.046875 -4.15625 C 0.710938 -4.519531 0.546875 -4.992188 0.546875 -5.578125 C 0.546875 -6.015625 0.648438 -6.394531 0.859375 -6.71875 C 1.078125 -7.050781 1.390625 -7.304688 1.796875 -7.484375 C 2.210938 -7.671875 2.710938 -7.765625 3.296875 -7.765625 C 3.878906 -7.765625 4.378906 -7.6875 4.796875 -7.53125 C 5.222656 -7.375 5.582031 -7.132812 5.875 -6.8125 L 5.125 -5.78125 L 5 -5.78125 C 4.78125 -6.007812 4.53125 -6.179688 4.25 -6.296875 C 3.96875 -6.410156 3.648438 -6.46875 3.296875 -6.46875 C 2.878906 -6.46875 2.5625 -6.394531 2.34375 -6.25 C 2.125 -6.101562 2.015625 -5.898438 2.015625 -5.640625 C 2.015625 -5.398438 2.085938 -5.207031 2.234375 -5.0625 C 2.390625 -4.925781 2.65625 -4.816406 3.03125 -4.734375 L 4.046875 -4.515625 C 4.785156 -4.359375 5.320312 -4.09375 5.65625 -3.71875 C 5.988281 -3.34375 6.15625 -2.851562 6.15625 -2.25 C 6.15625 -1.769531 6.050781 -1.351562 5.84375 -1 C 5.644531 -0.644531 5.335938 -0.367188 4.921875 -0.171875 C 4.503906 0.015625 3.992188 0.109375 3.390625 0.109375 Z M 3.390625 0.109375 "/></g></g></g><g fill="#545454" fill-opacity="1"><g transform="translate(137.881763, 38.566524)"><g><path d="M 4.0625 0.109375 C 3 0.109375 2.210938 -0.140625 1.703125 -0.640625 C 1.203125 -1.140625 0.953125 -1.882812 0.953125 -2.875 L 0.953125 -7.65625 L 2.421875 -7.65625 L 2.421875 -2.875 C 2.421875 -2.320312 2.554688 -1.90625 2.828125 -1.625 C 3.097656 -1.34375 3.507812 -1.203125 4.0625 -1.203125 C 5.144531 -1.203125 5.6875 -1.757812 5.6875 -2.875 L 5.6875 -7.65625 L 7.171875 -7.65625 L 7.171875 -2.875 C 7.171875 -1.882812 6.914062 -1.140625 6.40625 -0.640625 C 5.894531 -0.140625 5.113281 0.109375 4.0625 0.109375 Z M 4.0625 0.109375 "/></g></g></g><g fill="#545454" fill-opacity="1"><g transform="translate(145.986355, 38.566524)"><g><path d="M 3.953125 -7.65625 C 4.492188 -7.65625 4.957031 -7.550781 5.34375 -7.34375 C 5.738281 -7.144531 6.035156 -6.863281 6.234375 -6.5 C 6.429688 -6.144531 6.53125 -5.726562 6.53125 -5.25 C 6.53125 -4.769531 6.429688 -4.347656 6.234375 -3.984375 C 6.035156 -3.628906 5.738281 -3.351562 5.34375 -3.15625 C 4.957031 -2.957031 4.492188 -2.859375 3.953125 -2.859375 L 2.5 -2.859375 L 2.5 0 L 1 0 L 1 -7.65625 Z M 3.75 -4.046875 C 4.59375 -4.046875 5.015625 -4.445312 5.015625 -5.25 C 5.015625 -6.050781 4.59375 -6.453125 3.75 -6.453125 L 2.5 -6.453125 L 2.5 -4.046875 Z M 3.75 -4.046875 "/></g></g></g><g fill="#545454" fill-opacity="1"><g transform="translate(152.97199, 38.566524)"><g><path d="M 3.953125 -7.65625 C 4.492188 -7.65625 4.957031 -7.550781 5.34375 -7.34375 C 5.738281 -7.144531 6.035156 -6.863281 6.234375 -6.5 C 6.429688 -6.144531 6.53125 -5.726562 6.53125 -5.25 C 6.53125 -4.769531 6.429688 -4.347656 6.234375 -3.984375 C 6.035156 -3.628906 5.738281 -3.351562 5.34375 -3.15625 C 4.957031 -2.957031 4.492188 -2.859375 3.953125 -2.859375 L 2.5 -2.859375 L 2.5 0 L 1 0 L 1 -7.65625 Z M 3.75 -4.046875 C 4.59375 -4.046875 5.015625 -4.445312 5.015625 -5.25 C 5.015625 -6.050781 4.59375 -6.453125 3.75 -6.453125 L 2.5 -6.453125 L 2.5 -4.046875 Z M 3.75 -4.046875 "/></g></g></g><g fill="#545454" fill-opacity="1"><g transform="translate(159.957626, 38.566524)"><g><path d="M 4.171875 0.109375 C 3.472656 0.109375 2.851562 -0.03125 2.3125 -0.3125 C 1.78125 -0.601562 1.363281 -1.039062 1.0625 -1.625 C 0.757812 -2.21875 0.609375 -2.953125 0.609375 -3.828125 C 0.609375 -4.703125 0.757812 -5.429688 1.0625 -6.015625 C 1.363281 -6.609375 1.78125 -7.046875 2.3125 -7.328125 C 2.851562 -7.617188 3.472656 -7.765625 4.171875 -7.765625 C 4.867188 -7.765625 5.484375 -7.617188 6.015625 -7.328125 C 6.554688 -7.046875 6.976562 -6.609375 7.28125 -6.015625 C 7.582031 -5.429688 7.734375 -4.703125 7.734375 -3.828125 C 7.734375 -2.953125 7.582031 -2.21875 7.28125 -1.625 C 6.976562 -1.039062 6.554688 -0.601562 6.015625 -0.3125 C 5.484375 -0.03125 4.867188 0.109375 4.171875 0.109375 Z M 4.171875 -1.203125 C 4.816406 -1.203125 5.3125 -1.410156 5.65625 -1.828125 C 6 -2.242188 6.171875 -2.910156 6.171875 -3.828125 C 6.171875 -4.742188 6 -5.410156 5.65625 -5.828125 C 5.3125 -6.242188 4.816406 -6.453125 4.171875 -6.453125 C 3.515625 -6.453125 3.015625 -6.242188 2.671875 -5.828125 C 2.328125 -5.410156 2.15625 -4.742188 2.15625 -3.828125 C 2.15625 -2.910156 2.328125 -2.242188 2.671875 -1.828125 C 3.015625 -1.410156 3.515625 -1.203125 4.171875 -1.203125 Z M 4.171875 -1.203125 "/></g></g></g><g fill="#545454" fill-opacity="1"><g transform="translate(168.287061, 38.566524)"><g><path d="M 1 0 L 1 -7.65625 L 4.0625 -7.65625 C 4.851562 -7.65625 5.453125 -7.472656 5.859375 -7.109375 C 6.265625 -6.742188 6.46875 -6.238281 6.46875 -5.59375 C 6.46875 -5.132812 6.347656 -4.753906 6.109375 -4.453125 C 5.867188 -4.160156 5.519531 -3.9375 5.0625 -3.78125 L 5.0625 -3.65625 C 5.300781 -3.550781 5.492188 -3.394531 5.640625 -3.1875 C 5.785156 -2.988281 5.925781 -2.6875 6.0625 -2.28125 L 6.828125 0 L 5.265625 0 L 4.515625 -2.28125 C 4.441406 -2.507812 4.359375 -2.6875 4.265625 -2.8125 C 4.171875 -2.945312 4.046875 -3.039062 3.890625 -3.09375 C 3.742188 -3.15625 3.550781 -3.1875 3.3125 -3.1875 L 2.5 -3.1875 L 2.5 0 Z M 3.890625 -4.390625 C 4.617188 -4.390625 4.984375 -4.726562 4.984375 -5.40625 C 4.984375 -6.101562 4.617188 -6.453125 3.890625 -6.453125 L 2.5 -6.453125 L 2.5 -4.390625 Z M 3.890625 -4.390625 "/></g></g></g><g fill="#545454" fill-opacity="1"><g transform="translate(175.434794, 38.566524)"><g><path d="M 6.140625 -7.65625 L 6.140625 -6.375 L 3.921875 -6.375 L 3.921875 0 L 2.421875 0 L 2.421875 -6.375 L 0.203125 -6.375 L 0.203125 -7.65625 Z M 6.140625 -7.65625 "/></g></g></g></svg>