<svg xmlns="http://www.w3.org/2000/svg" xmlns:xlink="http://www.w3.org/1999/xlink" width="360" zoomAndPan="magnify" viewBox="0 0 270 314.999992" height="420" preserveAspectRatio="xMidYMid meet" version="1.0"><defs><g/><clipPath id="7e3bc7fe3f"><path d="M 53.058594 23.625 L 167.9375 23.625 L 167.9375 125.386719 L 53.058594 125.386719 Z M 53.058594 23.625 " clip-rule="nonzero"/></clipPath><clipPath id="82069d4139"><path d="M 60.558594 23.625 L 160.210938 23.625 C 164.355469 23.625 167.710938 26.984375 167.710938 31.125 L 167.710938 117.886719 C 167.710938 122.027344 164.355469 125.386719 160.210938 125.386719 L 60.558594 125.386719 C 56.417969 125.386719 53.058594 122.027344 53.058594 117.886719 L 53.058594 31.125 C 53.058594 26.984375 56.417969 23.625 60.558594 23.625 Z M 60.558594 23.625 " clip-rule="nonzero"/></clipPath><clipPath id="bc562c8d27"><path d="M 123.722656 116.375 L 217.449219 116.375 L 217.449219 232.070312 L 123.722656 232.070312 Z M 123.722656 116.375 " clip-rule="nonzero"/></clipPath><clipPath id="d5d8a8a368"><path d="M 131.222656 116.375 L 209.949219 116.375 C 214.09375 116.375 217.449219 119.734375 217.449219 123.875 L 217.449219 224.546875 C 217.449219 228.6875 214.09375 232.046875 209.949219 232.046875 L 131.222656 232.046875 C 127.082031 232.046875 123.722656 228.6875 123.722656 224.546875 L 123.722656 123.875 C 123.722656 119.734375 127.082031 116.375 131.222656 116.375 Z M 131.222656 116.375 " clip-rule="nonzero"/></clipPath><clipPath id="8c4404fc87"><path d="M 135.75 23.625 L 217.449219 23.625 L 217.449219 154.472656 L 135.75 154.472656 Z M 135.75 23.625 " clip-rule="nonzero"/></clipPath><clipPath id="f07d22d66b"><path d="M 162.75 23.625 L 190.449219 23.625 C 197.613281 23.625 204.480469 26.46875 209.542969 31.53125 C 214.605469 36.597656 217.449219 43.464844 217.449219 50.625 L 217.449219 127.160156 C 217.449219 134.320312 214.605469 141.1875 209.542969 146.25 C 204.480469 151.3125 197.613281 154.160156 190.449219 154.160156 L 162.75 154.160156 C 155.589844 154.160156 148.722656 151.3125 143.65625 146.25 C 138.59375 141.1875 135.75 134.320312 135.75 127.160156 L 135.75 50.625 C 135.75 43.464844 138.59375 36.597656 143.65625 31.53125 C 148.722656 26.46875 155.589844 23.625 162.75 23.625 Z M 162.75 23.625 " clip-rule="nonzero"/></clipPath><clipPath id="68e3bec5d5"><path d="M 53.058594 63.011719 L 185.386719 63.011719 L 185.386719 232.554688 L 53.058594 232.554688 Z M 53.058594 63.011719 " clip-rule="nonzero"/></clipPath><clipPath id="292a06d2b6"><path d="M 112.308594 63.011719 L 126.136719 63.011719 C 141.851562 63.011719 156.921875 69.253906 168.03125 80.367188 C 179.144531 91.476562 185.386719 106.546875 185.386719 122.261719 L 185.386719 172.796875 C 185.386719 188.507812 179.144531 203.578125 168.03125 214.691406 C 156.921875 225.804688 141.851562 232.046875 126.136719 232.046875 L 112.308594 232.046875 C 96.597656 232.046875 81.527344 225.804688 70.414062 214.691406 C 59.300781 203.578125 53.058594 188.507812 53.058594 172.796875 L 53.058594 122.261719 C 53.058594 106.546875 59.300781 91.476562 70.414062 80.367188 C 81.527344 69.253906 96.597656 63.011719 112.308594 63.011719 Z M 112.308594 63.011719 " clip-rule="nonzero"/></clipPath><clipPath id="2de53dd1ff"><path d="M 80.9375 54.441406 L 188.9375 54.441406 L 188.9375 106 L 80.9375 106 Z M 80.9375 54.441406 " clip-rule="nonzero"/></clipPath></defs><g clip-path="url(#7e3bc7fe3f)"><g clip-path="url(#82069d4139)"><path fill="#f8f8f8" d="M 53.058594 23.625 L 167.539062 23.625 L 167.539062 125.386719 L 53.058594 125.386719 Z M 53.058594 23.625 " fill-opacity="1" fill-rule="nonzero"/></g></g><g clip-path="url(#bc562c8d27)"><g clip-path="url(#d5d8a8a368)"><path fill="#f8f8f8" d="M 123.722656 116.375 L 217.449219 116.375 L 217.449219 232.070312 L 123.722656 232.070312 Z M 123.722656 116.375 " fill-opacity="1" fill-rule="nonzero"/></g></g><g clip-path="url(#8c4404fc87)"><g clip-path="url(#f07d22d66b)"><path fill="#f8f8f8" d="M 135.75 23.625 L 217.449219 23.625 L 217.449219 154.15625 L 135.75 154.15625 Z M 135.75 23.625 " fill-opacity="1" fill-rule="nonzero"/></g></g><g clip-path="url(#68e3bec5d5)"><g clip-path="url(#292a06d2b6)"><path fill="#f8f8f8" d="M 53.058594 63.011719 L 185.386719 63.011719 L 185.386719 232.039062 L 53.058594 232.039062 Z M 53.058594 63.011719 " fill-opacity="1" fill-rule="nonzero"/></g></g><g clip-path="url(#2de53dd1ff)"><path fill="#00bf63" d="M 188.554688 105.1875 L 185.6875 105.1875 L 178.683594 98.179688 C 176.992188 96.488281 174.742188 95.558594 172.351562 95.558594 C 172.289062 95.558594 172.230469 95.558594 172.171875 95.5625 C 174.230469 94.425781 175.847656 92.492188 176.503906 90.042969 L 179.195312 79.992188 L 169.144531 77.300781 C 166.699219 76.644531 164.214844 77.078125 162.199219 78.292969 C 162.230469 78.242188 162.265625 78.191406 162.292969 78.140625 C 163.492188 76.070312 163.804688 73.65625 163.1875 71.347656 L 160.496094 61.296875 L 150.445312 63.992188 C 148.136719 64.609375 146.207031 66.089844 145.011719 68.164062 C 144.980469 68.210938 144.957031 68.261719 144.929688 68.3125 C 144.929688 68.257812 144.933594 68.199219 144.933594 68.140625 C 144.933594 65.75 144 63.503906 142.3125 61.8125 L 134.953125 54.453125 L 127.59375 61.8125 C 125.90625 63.5 124.972656 65.75 124.972656 68.140625 C 124.972656 68.199219 124.976562 68.257812 124.976562 68.3125 C 124.949219 68.265625 124.921875 68.214844 124.894531 68.164062 C 123.699219 66.09375 121.769531 64.609375 119.460938 63.992188 L 109.410156 61.296875 L 106.71875 71.347656 C 106.097656 73.660156 106.414062 76.070312 107.609375 78.140625 C 107.640625 78.191406 107.675781 78.242188 107.703125 78.292969 C 105.691406 77.078125 103.207031 76.648438 100.761719 77.300781 L 90.710938 79.992188 L 93.402344 90.042969 C 94.058594 92.492188 95.675781 94.425781 97.734375 95.5625 C 97.671875 95.5625 97.613281 95.558594 97.550781 95.558594 C 95.160156 95.558594 92.914062 96.488281 91.222656 98.179688 L 84.214844 105.1875 L 81.347656 105.1875 C 81.15625 105.1875 80.996094 105.34375 80.996094 105.539062 C 80.996094 105.730469 81.15625 105.890625 81.347656 105.890625 L 188.554688 105.890625 C 188.75 105.890625 188.90625 105.730469 188.90625 105.539062 C 188.90625 105.34375 188.75 105.1875 188.554688 105.1875 Z M 172.351562 96.261719 C 174.554688 96.261719 176.625 97.117188 178.183594 98.675781 L 184.695312 105.1875 L 147.691406 105.1875 L 151.304688 101.578125 L 154.871094 102.53125 C 155.640625 102.738281 156.425781 102.839844 157.203125 102.839844 C 158.753906 102.839844 160.28125 102.433594 161.664062 101.636719 C 163.164062 100.773438 164.351562 99.523438 165.128906 98.023438 C 165.386719 98.222656 165.632812 98.441406 165.867188 98.675781 L 166.191406 99 L 166.515625 98.675781 C 168.078125 97.117188 170.144531 96.261719 172.351562 96.261719 Z M 127.019531 75.933594 C 128.441406 76.648438 129.625 77.761719 130.441406 79.175781 C 131.542969 81.082031 131.835938 83.308594 131.265625 85.433594 L 130.414062 88.613281 L 128.089844 86.285156 C 126.53125 84.726562 125.671875 82.660156 125.671875 80.453125 C 125.671875 78.824219 126.144531 77.265625 127.019531 75.933594 Z M 126.78125 75.054688 C 126.476562 74.925781 126.167969 74.8125 125.847656 74.71875 C 126.023438 73.976562 126.101562 73.222656 126.089844 72.476562 C 126.453125 73.128906 126.898438 73.738281 127.425781 74.292969 C 127.195312 74.535156 126.980469 74.789062 126.78125 75.054688 Z M 130.777344 89.96875 L 134.949219 94.140625 L 139.121094 89.96875 L 140.648438 95.664062 L 146.347656 94.140625 L 144.820312 99.835938 L 150.519531 101.363281 L 146.699219 105.183594 L 123.199219 105.183594 L 119.378906 101.363281 L 125.078125 99.835938 L 123.550781 94.140625 L 129.25 95.664062 Z M 142.882812 75.933594 C 143.757812 77.265625 144.226562 78.824219 144.226562 80.453125 C 144.226562 82.65625 143.367188 84.726562 141.8125 86.285156 L 139.484375 88.613281 L 138.632812 85.433594 C 138.0625 83.308594 138.355469 81.082031 139.457031 79.175781 C 140.273438 77.761719 141.457031 76.652344 142.878906 75.933594 Z M 142.472656 74.292969 C 143 73.738281 143.445312 73.128906 143.808594 72.476562 C 143.796875 73.222656 143.875 73.976562 144.054688 74.71875 C 143.734375 74.8125 143.421875 74.925781 143.117188 75.054688 C 142.917969 74.792969 142.707031 74.535156 142.472656 74.292969 Z M 151.875 101 L 154.199219 98.675781 C 155.761719 97.117188 157.828125 96.261719 160.035156 96.261719 C 161.664062 96.261719 163.222656 96.730469 164.554688 97.605469 C 163.835938 99.03125 162.726562 100.214844 161.3125 101.027344 C 159.40625 102.132812 157.179688 102.425781 155.054688 101.851562 Z M 165.433594 97.367188 C 165.5625 97.0625 165.675781 96.75 165.769531 96.429688 C 166.523438 96.609375 167.273438 96.6875 168.015625 96.675781 C 167.363281 97.039062 166.75 97.484375 166.195312 98.011719 C 165.949219 97.78125 165.699219 97.566406 165.433594 97.367188 Z M 162.703125 78.800781 C 164.609375 77.699219 166.832031 77.40625 168.960938 77.976562 L 178.332031 80.488281 L 175.820312 89.859375 C 174.644531 94.253906 170.109375 96.867188 165.71875 95.695312 L 165.273438 95.574219 L 165.15625 96.019531 C 165.070312 96.339844 164.964844 96.652344 164.839844 96.953125 C 163.417969 96.042969 161.761719 95.554688 160.03125 95.554688 C 157.640625 95.554688 155.394531 96.488281 153.703125 98.175781 L 151.089844 100.789062 L 145.675781 99.339844 L 147.125 93.929688 L 150.695312 92.972656 C 154.820312 91.867188 157.496094 88.039062 157.320312 83.9375 C 157.640625 83.984375 157.964844 84.050781 158.289062 84.136719 L 158.734375 84.253906 L 158.851562 83.808594 C 159.425781 81.683594 160.789062 79.902344 162.695312 78.800781 Z M 147.339844 93.144531 L 148.191406 89.96875 C 149.21875 86.132812 152.800781 83.652344 156.621094 83.867188 C 156.832031 87.683594 154.351562 91.265625 150.519531 92.292969 Z M 157.085938 82.238281 C 157.820312 82.019531 158.511719 81.714844 159.15625 81.332031 C 158.773438 81.964844 158.464844 82.65625 158.242188 83.394531 C 157.917969 83.320312 157.589844 83.261719 157.261719 83.21875 C 157.222656 82.894531 157.164062 82.566406 157.085938 82.238281 Z M 144.792969 74.765625 C 144.222656 72.636719 144.515625 70.410156 145.617188 68.503906 C 146.71875 66.597656 148.496094 65.230469 150.625 64.660156 L 159.996094 62.148438 L 162.507812 71.523438 C 163.082031 73.648438 162.789062 75.875 161.683594 77.78125 C 160.582031 79.691406 158.804688 81.054688 156.675781 81.625 L 156.230469 81.746094 L 156.351562 82.191406 C 156.4375 82.511719 156.5 82.835938 156.546875 83.160156 C 152.449219 82.980469 148.617188 85.660156 147.511719 89.785156 L 146.558594 93.351562 L 141.144531 94.800781 L 139.695312 89.390625 L 142.308594 86.777344 C 144 85.085938 144.929688 82.839844 144.929688 80.445312 C 144.929688 78.714844 144.445312 77.0625 143.53125 75.636719 C 143.835938 75.515625 144.144531 75.410156 144.46875 75.324219 L 144.910156 75.203125 L 144.792969 74.757812 Z M 128.089844 62.300781 L 134.949219 55.4375 L 141.8125 62.300781 C 143.371094 63.859375 144.226562 65.929688 144.226562 68.132812 C 144.226562 70.339844 143.367188 72.410156 141.8125 73.96875 L 141.488281 74.292969 L 141.8125 74.617188 C 142.046875 74.851562 142.265625 75.101562 142.464844 75.355469 C 140.964844 76.132812 139.714844 77.324219 138.851562 78.820312 C 137.65625 80.890625 137.339844 83.304688 137.957031 85.613281 L 138.910156 89.179688 L 134.949219 93.140625 L 130.988281 89.179688 L 131.945312 85.613281 C 132.5625 83.300781 132.246094 80.890625 131.050781 78.820312 C 130.1875 77.324219 128.9375 76.132812 127.433594 75.355469 C 127.636719 75.097656 127.855469 74.851562 128.089844 74.617188 L 128.414062 74.292969 L 128.089844 73.96875 C 126.53125 72.410156 125.671875 70.339844 125.671875 68.132812 C 125.671875 65.929688 126.53125 63.859375 128.089844 62.300781 Z M 107.390625 71.523438 L 109.902344 62.148438 L 119.273438 64.664062 C 121.402344 65.234375 123.183594 66.597656 124.285156 68.507812 C 125.386719 70.414062 125.679688 72.636719 125.109375 74.765625 L 124.988281 75.210938 L 125.433594 75.332031 C 125.753906 75.417969 126.066406 75.523438 126.367188 75.644531 C 125.457031 77.066406 124.96875 78.722656 124.96875 80.453125 C 124.96875 82.84375 125.902344 85.089844 127.59375 86.785156 L 130.203125 89.394531 L 128.753906 94.808594 L 123.34375 93.359375 L 122.386719 89.792969 C 121.28125 85.667969 117.453125 82.984375 113.355469 83.167969 C 113.402344 82.84375 113.464844 82.519531 113.550781 82.195312 L 113.667969 81.753906 L 113.226562 81.632812 C 111.097656 81.0625 109.316406 79.695312 108.214844 77.789062 C 107.113281 75.878906 106.820312 73.65625 107.390625 71.527344 Z M 122.558594 93.144531 L 119.382812 92.292969 C 115.546875 91.265625 113.066406 87.679688 113.28125 83.863281 C 117.097656 83.652344 120.679688 86.128906 121.710938 89.964844 L 122.5625 93.140625 Z M 112.8125 82.238281 C 112.734375 82.566406 112.675781 82.890625 112.636719 83.21875 C 112.308594 83.261719 111.980469 83.320312 111.652344 83.398438 C 111.433594 82.660156 111.125 81.96875 110.742188 81.332031 C 111.386719 81.71875 112.078125 82.023438 112.8125 82.242188 Z M 94.078125 89.859375 L 91.566406 80.488281 L 100.9375 77.976562 C 105.332031 76.796875 109.863281 79.414062 111.039062 83.808594 L 111.15625 84.253906 L 111.601562 84.132812 C 111.925781 84.046875 112.25 83.984375 112.570312 83.9375 C 112.394531 88.035156 115.074219 91.867188 119.195312 92.972656 L 122.765625 93.925781 L 124.214844 99.339844 L 118.800781 100.789062 L 116.1875 98.175781 C 114.5 96.484375 112.25 95.554688 109.859375 95.554688 C 108.128906 95.554688 106.472656 96.039062 105.050781 96.949219 C 104.929688 96.648438 104.824219 96.335938 104.738281 96.015625 L 104.617188 95.570312 L 104.171875 95.691406 C 99.777344 96.867188 95.246094 94.25 94.070312 89.855469 Z M 118.023438 101 L 114.847656 101.851562 C 111.011719 102.878906 107.074219 101.015625 105.351562 97.601562 C 106.679688 96.726562 108.234375 96.257812 109.867188 96.257812 C 112.070312 96.257812 114.140625 97.117188 115.699219 98.671875 Z M 104.46875 97.363281 C 104.203125 97.5625 103.949219 97.777344 103.707031 98.007812 C 103.152344 97.480469 102.539062 97.035156 101.886719 96.671875 C 102.625 96.6875 103.378906 96.609375 104.128906 96.429688 C 104.226562 96.75 104.339844 97.0625 104.46875 97.363281 Z M 91.714844 98.671875 C 93.273438 97.113281 95.34375 96.253906 97.550781 96.253906 C 99.753906 96.253906 101.824219 97.113281 103.382812 98.671875 L 103.707031 98.996094 L 104.035156 98.671875 C 104.269531 98.433594 104.519531 98.21875 104.777344 98.015625 C 106.316406 100.972656 109.398438 102.832031 112.71875 102.832031 C 113.484375 102.832031 114.261719 102.734375 115.03125 102.527344 L 118.601562 101.570312 L 122.210938 105.183594 L 85.207031 105.183594 L 91.71875 98.671875 Z M 91.714844 98.671875 " fill-opacity="1" fill-rule="nonzero"/></g><g fill="#00bf63" fill-opacity="1"><g transform="translate(82.887639, 150.222434)"><g><path d="M 6.53125 0.171875 C 4.832031 0.171875 3.570312 -0.226562 2.75 -1.03125 C 1.9375 -1.832031 1.53125 -3.023438 1.53125 -4.609375 L 1.53125 -12.3125 L 3.90625 -12.3125 L 3.90625 -4.625 C 3.90625 -3.726562 4.117188 -3.054688 4.546875 -2.609375 C 4.984375 -2.160156 5.644531 -1.9375 6.53125 -1.9375 C 8.269531 -1.9375 9.140625 -2.832031 9.140625 -4.625 L 9.140625 -12.3125 L 11.53125 -12.3125 L 11.53125 -4.609375 C 11.53125 -3.023438 11.117188 -1.832031 10.296875 -1.03125 C 9.484375 -0.226562 8.226562 0.171875 6.53125 0.171875 Z M 6.53125 0.171875 "/></g></g></g><g fill="#00bf63" fill-opacity="1"><g transform="translate(95.942026, 150.222434)"><g><path d="M 3.953125 0 L 1.59375 0 L 1.59375 -12.3125 L 4.390625 -12.3125 L 9.328125 -4.375 L 9.546875 -4.40625 L 9.546875 -12.3125 L 11.890625 -12.3125 L 11.890625 0 L 9.40625 0 L 4.171875 -8.46875 L 3.953125 -8.4375 Z M 3.953125 0 "/></g></g></g><g fill="#00bf63" fill-opacity="1"><g transform="translate(109.442795, 150.222434)"><g><path d="M 7.3125 0 L 4.375 0 L 0.21875 -12.3125 L 2.8125 -12.3125 L 5.796875 -3.140625 L 6 -3.140625 L 8.953125 -12.3125 L 11.46875 -12.3125 Z M 7.3125 0 "/></g></g></g><g fill="#00bf63" fill-opacity="1"><g transform="translate(121.132788, 150.222434)"><g><path d="M 1.59375 0 L 1.59375 -12.3125 L 6.546875 -12.3125 C 7.816406 -12.3125 8.773438 -12.015625 9.421875 -11.421875 C 10.078125 -10.835938 10.40625 -10.03125 10.40625 -9 C 10.40625 -8.257812 10.210938 -7.648438 9.828125 -7.171875 C 9.453125 -6.691406 8.890625 -6.328125 8.140625 -6.078125 L 8.140625 -5.890625 C 8.523438 -5.722656 8.835938 -5.472656 9.078125 -5.140625 C 9.316406 -4.816406 9.539062 -4.328125 9.75 -3.671875 L 10.984375 0 L 8.484375 0 L 7.28125 -3.6875 C 7.15625 -4.050781 7.015625 -4.335938 6.859375 -4.546875 C 6.703125 -4.753906 6.503906 -4.898438 6.265625 -4.984375 C 6.023438 -5.078125 5.71875 -5.125 5.34375 -5.125 L 4.03125 -5.125 L 4.03125 0 Z M 6.25 -7.0625 C 7.425781 -7.0625 8.015625 -7.609375 8.015625 -8.703125 C 8.015625 -9.828125 7.425781 -10.390625 6.25 -10.390625 L 4.03125 -10.390625 L 4.03125 -7.0625 Z M 6.25 -7.0625 "/></g></g></g><g fill="#00bf63" fill-opacity="1"><g transform="translate(132.645921, 150.222434)"><g/></g></g><g fill="#00bf63" fill-opacity="1"><g transform="translate(136.713842, 150.222434)"><g><path d="M 6.734375 0.171875 C 5.597656 0.171875 4.597656 -0.0625 3.734375 -0.53125 C 2.867188 -1 2.191406 -1.707031 1.703125 -2.65625 C 1.210938 -3.601562 0.96875 -4.769531 0.96875 -6.15625 C 0.96875 -7.539062 1.210938 -8.707031 1.703125 -9.65625 C 2.191406 -10.601562 2.867188 -11.3125 3.734375 -11.78125 C 4.597656 -12.25 5.597656 -12.484375 6.734375 -12.484375 C 7.910156 -12.484375 8.910156 -12.25 9.734375 -11.78125 C 10.566406 -11.320312 11.160156 -10.617188 11.515625 -9.671875 L 9.75 -8.59375 L 9.53125 -8.59375 C 9.269531 -9.238281 8.910156 -9.695312 8.453125 -9.96875 C 8.003906 -10.25 7.429688 -10.390625 6.734375 -10.390625 C 5.710938 -10.390625 4.914062 -10.050781 4.34375 -9.375 C 3.769531 -8.695312 3.484375 -7.625 3.484375 -6.15625 C 3.484375 -4.6875 3.769531 -3.613281 4.34375 -2.9375 C 4.914062 -2.257812 5.710938 -1.921875 6.734375 -1.921875 C 8.328125 -1.921875 9.304688 -2.703125 9.671875 -4.265625 L 9.875 -4.265625 L 11.671875 -3.328125 C 11.335938 -2.160156 10.757812 -1.285156 9.9375 -0.703125 C 9.125 -0.117188 8.054688 0.171875 6.734375 0.171875 Z M 6.734375 0.171875 "/></g></g></g><g fill="#00bf63" fill-opacity="1"><g transform="translate(148.791255, 150.222434)"><g><path d="M 3.625 0.171875 C 3.03125 0.171875 2.515625 0.0625 2.078125 -0.15625 C 1.640625 -0.375 1.300781 -0.691406 1.0625 -1.109375 C 0.820312 -1.535156 0.703125 -2.046875 0.703125 -2.640625 C 0.703125 -3.191406 0.820312 -3.65625 1.0625 -4.03125 C 1.300781 -4.40625 1.664062 -4.710938 2.15625 -4.953125 C 2.644531 -5.191406 3.289062 -5.375 4.09375 -5.5 C 4.644531 -5.59375 5.066406 -5.691406 5.359375 -5.796875 C 5.648438 -5.898438 5.84375 -6.019531 5.9375 -6.15625 C 6.039062 -6.289062 6.09375 -6.460938 6.09375 -6.671875 C 6.09375 -6.972656 5.988281 -7.203125 5.78125 -7.359375 C 5.570312 -7.515625 5.226562 -7.59375 4.75 -7.59375 C 4.226562 -7.59375 3.734375 -7.472656 3.265625 -7.234375 C 2.804688 -7.003906 2.40625 -6.703125 2.0625 -6.328125 L 1.890625 -6.328125 L 0.921875 -7.8125 C 1.390625 -8.332031 1.960938 -8.738281 2.640625 -9.03125 C 3.316406 -9.320312 4.0625 -9.46875 4.875 -9.46875 C 6.101562 -9.46875 6.988281 -9.207031 7.53125 -8.6875 C 8.082031 -8.164062 8.359375 -7.421875 8.359375 -6.453125 L 8.359375 -2.421875 C 8.359375 -2.003906 8.539062 -1.796875 8.90625 -1.796875 C 9.050781 -1.796875 9.191406 -1.820312 9.328125 -1.875 L 9.4375 -1.84375 L 9.609375 -0.21875 C 9.484375 -0.132812 9.300781 -0.0664062 9.0625 -0.015625 C 8.832031 0.0351562 8.582031 0.0625 8.3125 0.0625 C 7.757812 0.0625 7.328125 -0.0390625 7.015625 -0.25 C 6.703125 -0.46875 6.476562 -0.800781 6.34375 -1.25 L 6.171875 -1.265625 C 5.710938 -0.304688 4.863281 0.171875 3.625 0.171875 Z M 4.359375 -1.5625 C 4.898438 -1.5625 5.332031 -1.742188 5.65625 -2.109375 C 5.976562 -2.472656 6.140625 -2.976562 6.140625 -3.625 L 6.140625 -4.5625 L 5.984375 -4.59375 C 5.835938 -4.488281 5.648438 -4.394531 5.421875 -4.3125 C 5.203125 -4.238281 4.878906 -4.164062 4.453125 -4.09375 C 3.941406 -4.007812 3.578125 -3.863281 3.359375 -3.65625 C 3.140625 -3.457031 3.03125 -3.164062 3.03125 -2.78125 C 3.03125 -2.382812 3.144531 -2.082031 3.375 -1.875 C 3.613281 -1.664062 3.941406 -1.5625 4.359375 -1.5625 Z M 4.359375 -1.5625 "/></g></g></g><g fill="#00bf63" fill-opacity="1"><g transform="translate(158.586263, 150.222434)"><g><path d="M 4.59375 0.171875 C 3.851562 0.171875 3.203125 -0.00390625 2.640625 -0.359375 C 2.078125 -0.710938 1.632812 -1.25 1.3125 -1.96875 C 0.988281 -2.695312 0.828125 -3.585938 0.828125 -4.640625 C 0.828125 -5.703125 0.988281 -6.59375 1.3125 -7.3125 C 1.644531 -8.03125 2.101562 -8.566406 2.6875 -8.921875 C 3.269531 -9.285156 3.941406 -9.46875 4.703125 -9.46875 C 5.285156 -9.46875 5.785156 -9.367188 6.203125 -9.171875 C 6.628906 -8.972656 6.988281 -8.660156 7.28125 -8.234375 L 7.46875 -8.28125 L 7.46875 -13.015625 L 9.796875 -13.015625 L 9.796875 0 L 7.46875 0 L 7.46875 -1.203125 L 7.28125 -1.234375 C 7.019531 -0.796875 6.664062 -0.453125 6.21875 -0.203125 C 5.769531 0.046875 5.226562 0.171875 4.59375 0.171875 Z M 5.34375 -1.796875 C 6 -1.796875 6.519531 -2.03125 6.90625 -2.5 C 7.289062 -2.96875 7.484375 -3.679688 7.484375 -4.640625 C 7.484375 -5.597656 7.289062 -6.3125 6.90625 -6.78125 C 6.519531 -7.25 6 -7.484375 5.34375 -7.484375 C 4.664062 -7.484375 4.144531 -7.253906 3.78125 -6.796875 C 3.414062 -6.335938 3.234375 -5.617188 3.234375 -4.640625 C 3.234375 -3.660156 3.414062 -2.941406 3.78125 -2.484375 C 4.144531 -2.023438 4.664062 -1.796875 5.34375 -1.796875 Z M 5.34375 -1.796875 "/></g></g></g><g fill="#00bf63" fill-opacity="1"><g transform="translate(169.720391, 150.222434)"><g><path d="M 1.34375 0 L 1.34375 -9.296875 L 3.609375 -9.296875 L 3.609375 -7.90625 L 3.78125 -7.875 C 4.007812 -8.394531 4.304688 -8.773438 4.671875 -9.015625 C 5.035156 -9.253906 5.476562 -9.375 6 -9.375 C 6.519531 -9.375 6.921875 -9.285156 7.203125 -9.109375 L 6.8125 -7.09375 L 6.625 -7.0625 C 6.476562 -7.125 6.332031 -7.164062 6.1875 -7.1875 C 6.050781 -7.21875 5.878906 -7.234375 5.671875 -7.234375 C 5.023438 -7.234375 4.53125 -7.003906 4.1875 -6.546875 C 3.84375 -6.085938 3.671875 -5.351562 3.671875 -4.34375 L 3.671875 0 Z M 1.34375 0 "/></g></g></g><g fill="#00bf63" fill-opacity="1"><g transform="translate(177.005587, 150.222434)"><g><path d="M 9.1875 -4.125 L 3.203125 -4.125 C 3.273438 -3.3125 3.503906 -2.71875 3.890625 -2.34375 C 4.285156 -1.976562 4.828125 -1.796875 5.515625 -1.796875 C 6.046875 -1.796875 6.472656 -1.894531 6.796875 -2.09375 C 7.128906 -2.300781 7.398438 -2.601562 7.609375 -3 L 7.78125 -3 L 9.328125 -2.015625 C 9.023438 -1.359375 8.566406 -0.828125 7.953125 -0.421875 C 7.347656 -0.0234375 6.535156 0.171875 5.515625 0.171875 C 4.546875 0.171875 3.710938 -0.0078125 3.015625 -0.375 C 2.316406 -0.738281 1.773438 -1.28125 1.390625 -2 C 1.015625 -2.71875 0.828125 -3.597656 0.828125 -4.640625 C 0.828125 -5.691406 1.023438 -6.578125 1.421875 -7.296875 C 1.828125 -8.023438 2.367188 -8.566406 3.046875 -8.921875 C 3.722656 -9.285156 4.488281 -9.46875 5.34375 -9.46875 C 6.65625 -9.46875 7.660156 -9.117188 8.359375 -8.421875 C 9.054688 -7.722656 9.40625 -6.703125 9.40625 -5.359375 C 9.40625 -4.867188 9.390625 -4.488281 9.359375 -4.21875 Z M 7.171875 -5.625 C 7.148438 -6.332031 6.984375 -6.847656 6.671875 -7.171875 C 6.367188 -7.492188 5.925781 -7.65625 5.34375 -7.65625 C 4.164062 -7.65625 3.472656 -6.976562 3.265625 -5.625 Z M 7.171875 -5.625 "/></g></g></g><g fill="#000000" fill-opacity="1"><g transform="translate(80.138669, 177.531799)"><g><path d="M 7.875 -9.828125 L 7.875 -8.1875 L 5.046875 -8.1875 L 5.046875 0 L 3.109375 0 L 3.109375 -8.1875 L 0.265625 -8.1875 L 0.265625 -9.828125 Z M 7.875 -9.828125 "/></g></g></g><g fill="#000000" fill-opacity="1"><g transform="translate(88.280499, 177.531799)"><g><path d="M 7.328125 -3.28125 L 2.5625 -3.28125 C 2.613281 -2.632812 2.796875 -2.164062 3.109375 -1.875 C 3.421875 -1.582031 3.847656 -1.4375 4.390625 -1.4375 C 4.816406 -1.4375 5.160156 -1.515625 5.421875 -1.671875 C 5.691406 -1.835938 5.90625 -2.082031 6.0625 -2.40625 L 6.203125 -2.40625 L 7.453125 -1.609375 C 7.203125 -1.085938 6.832031 -0.664062 6.34375 -0.34375 C 5.863281 -0.0195312 5.210938 0.140625 4.390625 0.140625 C 3.628906 0.140625 2.96875 -0.00390625 2.40625 -0.296875 C 1.851562 -0.585938 1.425781 -1.019531 1.125 -1.59375 C 0.820312 -2.164062 0.671875 -2.867188 0.671875 -3.703125 C 0.671875 -4.546875 0.828125 -5.253906 1.140625 -5.828125 C 1.460938 -6.410156 1.894531 -6.84375 2.4375 -7.125 C 2.976562 -7.414062 3.585938 -7.5625 4.265625 -7.5625 C 5.304688 -7.5625 6.109375 -7.28125 6.671875 -6.71875 C 7.234375 -6.164062 7.515625 -5.351562 7.515625 -4.28125 C 7.515625 -3.882812 7.5 -3.582031 7.46875 -3.375 Z M 5.734375 -4.484375 C 5.710938 -5.054688 5.578125 -5.46875 5.328125 -5.71875 C 5.085938 -5.976562 4.734375 -6.109375 4.265625 -6.109375 C 3.316406 -6.109375 2.757812 -5.566406 2.59375 -4.484375 Z M 5.734375 -4.484375 "/></g></g></g><g fill="#000000" fill-opacity="1"><g transform="translate(96.334999, 177.531799)"><g><path d="M 4.328125 0.140625 C 3.609375 0.140625 2.972656 -0.00390625 2.421875 -0.296875 C 1.867188 -0.597656 1.4375 -1.035156 1.125 -1.609375 C 0.820312 -2.191406 0.671875 -2.890625 0.671875 -3.703125 C 0.671875 -4.515625 0.820312 -5.207031 1.125 -5.78125 C 1.4375 -6.363281 1.863281 -6.804688 2.40625 -7.109375 C 2.957031 -7.410156 3.582031 -7.5625 4.28125 -7.5625 C 5.851562 -7.5625 6.859375 -6.992188 7.296875 -5.859375 L 6.015625 -4.9375 L 5.875 -4.9375 C 5.71875 -5.289062 5.515625 -5.550781 5.265625 -5.71875 C 5.023438 -5.882812 4.695312 -5.96875 4.28125 -5.96875 C 3.75 -5.96875 3.332031 -5.78125 3.03125 -5.40625 C 2.726562 -5.039062 2.578125 -4.472656 2.578125 -3.703125 C 2.578125 -2.941406 2.726562 -2.375 3.03125 -2 C 3.34375 -1.625 3.773438 -1.4375 4.328125 -1.4375 C 4.722656 -1.4375 5.0625 -1.546875 5.34375 -1.765625 C 5.625 -1.984375 5.828125 -2.296875 5.953125 -2.703125 L 6.09375 -2.71875 L 7.40625 -1.984375 C 7.21875 -1.359375 6.867188 -0.847656 6.359375 -0.453125 C 5.859375 -0.0546875 5.179688 0.140625 4.328125 0.140625 Z M 4.328125 0.140625 "/></g></g></g><g fill="#000000" fill-opacity="1"><g transform="translate(103.973003, 177.531799)"><g><path d="M 1.0625 0 L 1.0625 -10.390625 L 2.9375 -10.390625 L 2.9375 -6.453125 L 3.078125 -6.421875 C 3.316406 -6.785156 3.613281 -7.066406 3.96875 -7.265625 C 4.332031 -7.460938 4.769531 -7.5625 5.28125 -7.5625 C 6.914062 -7.5625 7.734375 -6.628906 7.734375 -4.765625 L 7.734375 0 L 5.875 0 L 5.875 -4.53125 C 5.875 -5.039062 5.769531 -5.410156 5.5625 -5.640625 C 5.363281 -5.867188 5.050781 -5.984375 4.625 -5.984375 C 4.101562 -5.984375 3.691406 -5.804688 3.390625 -5.453125 C 3.085938 -5.109375 2.9375 -4.570312 2.9375 -3.84375 L 2.9375 0 Z M 1.0625 0 "/></g></g></g><g fill="#000000" fill-opacity="1"><g transform="translate(112.652247, 177.531799)"><g/></g></g><g fill="#000000" fill-opacity="1"><g transform="translate(115.896887, 177.531799)"><g><path d="M 3.21875 -4.3125 L 3.21875 -1.625 L 7.90625 -1.625 L 7.90625 0 L 1.28125 0 L 1.28125 -9.828125 L 7.796875 -9.828125 L 7.796875 -8.203125 L 3.21875 -8.203125 L 3.21875 -5.90625 L 7.21875 -5.90625 L 7.21875 -4.3125 Z M 3.21875 -4.3125 "/></g></g></g><g fill="#000000" fill-opacity="1"><g transform="translate(124.341013, 177.531799)"><g><path d="M 2.09375 0 L 0.125 0 L 2.25 -3.84375 L 0.234375 -7.40625 L 2.234375 -7.40625 L 3.515625 -4.96875 L 3.671875 -4.96875 L 4.953125 -7.40625 L 6.890625 -7.40625 L 4.953125 -3.84375 L 7 0 L 5.015625 0 L 3.625 -2.703125 L 3.46875 -2.703125 Z M 2.09375 0 "/></g></g></g><g fill="#000000" fill-opacity="1"><g transform="translate(131.468473, 177.531799)"><g><path d="M 4.328125 0.140625 C 3.609375 0.140625 2.972656 -0.00390625 2.421875 -0.296875 C 1.867188 -0.597656 1.4375 -1.035156 1.125 -1.609375 C 0.820312 -2.191406 0.671875 -2.890625 0.671875 -3.703125 C 0.671875 -4.515625 0.820312 -5.207031 1.125 -5.78125 C 1.4375 -6.363281 1.863281 -6.804688 2.40625 -7.109375 C 2.957031 -7.410156 3.582031 -7.5625 4.28125 -7.5625 C 5.851562 -7.5625 6.859375 -6.992188 7.296875 -5.859375 L 6.015625 -4.9375 L 5.875 -4.9375 C 5.71875 -5.289062 5.515625 -5.550781 5.265625 -5.71875 C 5.023438 -5.882812 4.695312 -5.96875 4.28125 -5.96875 C 3.75 -5.96875 3.332031 -5.78125 3.03125 -5.40625 C 2.726562 -5.039062 2.578125 -4.472656 2.578125 -3.703125 C 2.578125 -2.941406 2.726562 -2.375 3.03125 -2 C 3.34375 -1.625 3.773438 -1.4375 4.328125 -1.4375 C 4.722656 -1.4375 5.0625 -1.546875 5.34375 -1.765625 C 5.625 -1.984375 5.828125 -2.296875 5.953125 -2.703125 L 6.09375 -2.71875 L 7.40625 -1.984375 C 7.21875 -1.359375 6.867188 -0.847656 6.359375 -0.453125 C 5.859375 -0.0546875 5.179688 0.140625 4.328125 0.140625 Z M 4.328125 0.140625 "/></g></g></g><g fill="#000000" fill-opacity="1"><g transform="translate(139.106477, 177.531799)"><g><path d="M 7.328125 -3.28125 L 2.5625 -3.28125 C 2.613281 -2.632812 2.796875 -2.164062 3.109375 -1.875 C 3.421875 -1.582031 3.847656 -1.4375 4.390625 -1.4375 C 4.816406 -1.4375 5.160156 -1.515625 5.421875 -1.671875 C 5.691406 -1.835938 5.90625 -2.082031 6.0625 -2.40625 L 6.203125 -2.40625 L 7.453125 -1.609375 C 7.203125 -1.085938 6.832031 -0.664062 6.34375 -0.34375 C 5.863281 -0.0195312 5.210938 0.140625 4.390625 0.140625 C 3.628906 0.140625 2.96875 -0.00390625 2.40625 -0.296875 C 1.851562 -0.585938 1.425781 -1.019531 1.125 -1.59375 C 0.820312 -2.164062 0.671875 -2.867188 0.671875 -3.703125 C 0.671875 -4.546875 0.828125 -5.253906 1.140625 -5.828125 C 1.460938 -6.410156 1.894531 -6.84375 2.4375 -7.125 C 2.976562 -7.414062 3.585938 -7.5625 4.265625 -7.5625 C 5.304688 -7.5625 6.109375 -7.28125 6.671875 -6.71875 C 7.234375 -6.164062 7.515625 -5.351562 7.515625 -4.28125 C 7.515625 -3.882812 7.5 -3.582031 7.46875 -3.375 Z M 5.734375 -4.484375 C 5.710938 -5.054688 5.578125 -5.46875 5.328125 -5.71875 C 5.085938 -5.976562 4.734375 -6.109375 4.265625 -6.109375 C 3.316406 -6.109375 2.757812 -5.566406 2.59375 -4.484375 Z M 5.734375 -4.484375 "/></g></g></g><g fill="#000000" fill-opacity="1"><g transform="translate(147.160977, 177.531799)"><g><path d="M 3.078125 0.140625 C 2.410156 0.140625 1.898438 -0.0351562 1.546875 -0.390625 C 1.191406 -0.753906 1.015625 -1.304688 1.015625 -2.046875 L 1.015625 -10.390625 L 2.890625 -10.390625 L 2.890625 -2.125 C 2.890625 -1.664062 3.078125 -1.4375 3.453125 -1.4375 C 3.554688 -1.4375 3.671875 -1.453125 3.796875 -1.484375 L 3.890625 -1.46875 L 4.046875 -0.03125 C 3.953125 0.0195312 3.816406 0.0625 3.640625 0.09375 C 3.472656 0.125 3.285156 0.140625 3.078125 0.140625 Z M 3.078125 0.140625 "/></g></g></g><g fill="#000000" fill-opacity="1"><g transform="translate(151.419987, 177.531799)"><g><path d="M 3.078125 0.140625 C 2.410156 0.140625 1.898438 -0.0351562 1.546875 -0.390625 C 1.191406 -0.753906 1.015625 -1.304688 1.015625 -2.046875 L 1.015625 -10.390625 L 2.890625 -10.390625 L 2.890625 -2.125 C 2.890625 -1.664062 3.078125 -1.4375 3.453125 -1.4375 C 3.554688 -1.4375 3.671875 -1.453125 3.796875 -1.484375 L 3.890625 -1.46875 L 4.046875 -0.03125 C 3.953125 0.0195312 3.816406 0.0625 3.640625 0.09375 C 3.472656 0.125 3.285156 0.140625 3.078125 0.140625 Z M 3.078125 0.140625 "/></g></g></g><g fill="#000000" fill-opacity="1"><g transform="translate(155.678997, 177.531799)"><g><path d="M 7.328125 -3.28125 L 2.5625 -3.28125 C 2.613281 -2.632812 2.796875 -2.164062 3.109375 -1.875 C 3.421875 -1.582031 3.847656 -1.4375 4.390625 -1.4375 C 4.816406 -1.4375 5.160156 -1.515625 5.421875 -1.671875 C 5.691406 -1.835938 5.90625 -2.082031 6.0625 -2.40625 L 6.203125 -2.40625 L 7.453125 -1.609375 C 7.203125 -1.085938 6.832031 -0.664062 6.34375 -0.34375 C 5.863281 -0.0195312 5.210938 0.140625 4.390625 0.140625 C 3.628906 0.140625 2.96875 -0.00390625 2.40625 -0.296875 C 1.851562 -0.585938 1.425781 -1.019531 1.125 -1.59375 C 0.820312 -2.164062 0.671875 -2.867188 0.671875 -3.703125 C 0.671875 -4.546875 0.828125 -5.253906 1.140625 -5.828125 C 1.460938 -6.410156 1.894531 -6.84375 2.4375 -7.125 C 2.976562 -7.414062 3.585938 -7.5625 4.265625 -7.5625 C 5.304688 -7.5625 6.109375 -7.28125 6.671875 -6.71875 C 7.234375 -6.164062 7.515625 -5.351562 7.515625 -4.28125 C 7.515625 -3.882812 7.5 -3.582031 7.46875 -3.375 Z M 5.734375 -4.484375 C 5.710938 -5.054688 5.578125 -5.46875 5.328125 -5.71875 C 5.085938 -5.976562 4.734375 -6.109375 4.265625 -6.109375 C 3.316406 -6.109375 2.757812 -5.566406 2.59375 -4.484375 Z M 5.734375 -4.484375 "/></g></g></g><g fill="#000000" fill-opacity="1"><g transform="translate(163.733497, 177.531799)"><g><path d="M 1.0625 0 L 1.0625 -7.40625 L 2.859375 -7.40625 L 2.859375 -6.328125 L 3 -6.296875 C 3.457031 -7.140625 4.207031 -7.5625 5.25 -7.5625 C 6.101562 -7.5625 6.726562 -7.328125 7.125 -6.859375 C 7.53125 -6.390625 7.734375 -5.707031 7.734375 -4.8125 L 7.734375 0 L 5.875 0 L 5.875 -4.59375 C 5.875 -5.082031 5.773438 -5.4375 5.578125 -5.65625 C 5.378906 -5.875 5.0625 -5.984375 4.625 -5.984375 C 4.09375 -5.984375 3.675781 -5.8125 3.375 -5.46875 C 3.082031 -5.125 2.9375 -4.582031 2.9375 -3.84375 L 2.9375 0 Z M 1.0625 0 "/></g></g></g><g fill="#000000" fill-opacity="1"><g transform="translate(172.412741, 177.531799)"><g><path d="M 4.328125 0.140625 C 3.609375 0.140625 2.972656 -0.00390625 2.421875 -0.296875 C 1.867188 -0.597656 1.4375 -1.035156 1.125 -1.609375 C 0.820312 -2.191406 0.671875 -2.890625 0.671875 -3.703125 C 0.671875 -4.515625 0.820312 -5.207031 1.125 -5.78125 C 1.4375 -6.363281 1.863281 -6.804688 2.40625 -7.109375 C 2.957031 -7.410156 3.582031 -7.5625 4.28125 -7.5625 C 5.851562 -7.5625 6.859375 -6.992188 7.296875 -5.859375 L 6.015625 -4.9375 L 5.875 -4.9375 C 5.71875 -5.289062 5.515625 -5.550781 5.265625 -5.71875 C 5.023438 -5.882812 4.695312 -5.96875 4.28125 -5.96875 C 3.75 -5.96875 3.332031 -5.78125 3.03125 -5.40625 C 2.726562 -5.039062 2.578125 -4.472656 2.578125 -3.703125 C 2.578125 -2.941406 2.726562 -2.375 3.03125 -2 C 3.34375 -1.625 3.773438 -1.4375 4.328125 -1.4375 C 4.722656 -1.4375 5.0625 -1.546875 5.34375 -1.765625 C 5.625 -1.984375 5.828125 -2.296875 5.953125 -2.703125 L 6.09375 -2.71875 L 7.40625 -1.984375 C 7.21875 -1.359375 6.867188 -0.847656 6.359375 -0.453125 C 5.859375 -0.0546875 5.179688 0.140625 4.328125 0.140625 Z M 4.328125 0.140625 "/></g></g></g><g fill="#000000" fill-opacity="1"><g transform="translate(180.050745, 177.531799)"><g><path d="M 7.328125 -3.28125 L 2.5625 -3.28125 C 2.613281 -2.632812 2.796875 -2.164062 3.109375 -1.875 C 3.421875 -1.582031 3.847656 -1.4375 4.390625 -1.4375 C 4.816406 -1.4375 5.160156 -1.515625 5.421875 -1.671875 C 5.691406 -1.835938 5.90625 -2.082031 6.0625 -2.40625 L 6.203125 -2.40625 L 7.453125 -1.609375 C 7.203125 -1.085938 6.832031 -0.664062 6.34375 -0.34375 C 5.863281 -0.0195312 5.210938 0.140625 4.390625 0.140625 C 3.628906 0.140625 2.96875 -0.00390625 2.40625 -0.296875 C 1.851562 -0.585938 1.425781 -1.019531 1.125 -1.59375 C 0.820312 -2.164062 0.671875 -2.867188 0.671875 -3.703125 C 0.671875 -4.546875 0.828125 -5.253906 1.140625 -5.828125 C 1.460938 -6.410156 1.894531 -6.84375 2.4375 -7.125 C 2.976562 -7.414062 3.585938 -7.5625 4.265625 -7.5625 C 5.304688 -7.5625 6.109375 -7.28125 6.671875 -6.71875 C 7.234375 -6.164062 7.515625 -5.351562 7.515625 -4.28125 C 7.515625 -3.882812 7.5 -3.582031 7.46875 -3.375 Z M 5.734375 -4.484375 C 5.710938 -5.054688 5.578125 -5.46875 5.328125 -5.71875 C 5.085938 -5.976562 4.734375 -6.109375 4.265625 -6.109375 C 3.316406 -6.109375 2.757812 -5.566406 2.59375 -4.484375 Z M 5.734375 -4.484375 "/></g></g></g><g fill="#000000" fill-opacity="1"><g transform="translate(188.115225, 177.531799)"><g/></g></g><g fill="#000000" fill-opacity="1"><g transform="translate(101.630855, 196.281798)"><g><path d="M 5.375 0.140625 C 4.46875 0.140625 3.664062 -0.046875 2.96875 -0.421875 C 2.28125 -0.796875 1.738281 -1.359375 1.34375 -2.109375 C 0.957031 -2.867188 0.765625 -3.800781 0.765625 -4.90625 C 0.765625 -6.019531 0.957031 -6.953125 1.34375 -7.703125 C 1.738281 -8.460938 2.28125 -9.03125 2.96875 -9.40625 C 3.664062 -9.78125 4.46875 -9.96875 5.375 -9.96875 C 6.3125 -9.96875 7.109375 -9.78125 7.765625 -9.40625 C 8.429688 -9.039062 8.90625 -8.476562 9.1875 -7.71875 L 7.78125 -6.859375 L 7.609375 -6.859375 C 7.398438 -7.367188 7.113281 -7.734375 6.75 -7.953125 C 6.382812 -8.179688 5.925781 -8.296875 5.375 -8.296875 C 4.550781 -8.296875 3.910156 -8.023438 3.453125 -7.484375 C 3.003906 -6.941406 2.78125 -6.082031 2.78125 -4.90625 C 2.78125 -3.738281 3.003906 -2.882812 3.453125 -2.34375 C 3.910156 -1.8125 4.550781 -1.546875 5.375 -1.546875 C 6.644531 -1.546875 7.425781 -2.164062 7.71875 -3.40625 L 7.890625 -3.40625 L 9.3125 -2.65625 C 9.039062 -1.71875 8.582031 -1.015625 7.9375 -0.546875 C 7.289062 -0.0859375 6.4375 0.140625 5.375 0.140625 Z M 5.375 0.140625 "/></g></g></g><g fill="#000000" fill-opacity="1"><g transform="translate(111.264011, 196.281798)"><g><path d="M 4.3125 0.140625 C 3.582031 0.140625 2.941406 -0.00390625 2.390625 -0.296875 C 1.847656 -0.597656 1.425781 -1.035156 1.125 -1.609375 C 0.820312 -2.191406 0.671875 -2.890625 0.671875 -3.703125 C 0.671875 -4.515625 0.820312 -5.207031 1.125 -5.78125 C 1.425781 -6.363281 1.847656 -6.804688 2.390625 -7.109375 C 2.941406 -7.410156 3.582031 -7.5625 4.3125 -7.5625 C 5.03125 -7.5625 5.664062 -7.410156 6.21875 -7.109375 C 6.769531 -6.804688 7.195312 -6.363281 7.5 -5.78125 C 7.800781 -5.207031 7.953125 -4.515625 7.953125 -3.703125 C 7.953125 -2.890625 7.800781 -2.191406 7.5 -1.609375 C 7.195312 -1.035156 6.769531 -0.597656 6.21875 -0.296875 C 5.664062 -0.00390625 5.03125 0.140625 4.3125 0.140625 Z M 4.3125 -1.4375 C 5.457031 -1.4375 6.03125 -2.191406 6.03125 -3.703125 C 6.03125 -4.484375 5.882812 -5.054688 5.59375 -5.421875 C 5.300781 -5.785156 4.875 -5.96875 4.3125 -5.96875 C 3.15625 -5.96875 2.578125 -5.210938 2.578125 -3.703125 C 2.578125 -2.191406 3.15625 -1.4375 4.3125 -1.4375 Z M 4.3125 -1.4375 "/></g></g></g><g fill="#000000" fill-opacity="1"><g transform="translate(119.876078, 196.281798)"><g><path d="M 3.078125 0.140625 C 2.410156 0.140625 1.898438 -0.0351562 1.546875 -0.390625 C 1.191406 -0.753906 1.015625 -1.304688 1.015625 -2.046875 L 1.015625 -10.390625 L 2.890625 -10.390625 L 2.890625 -2.125 C 2.890625 -1.664062 3.078125 -1.4375 3.453125 -1.4375 C 3.554688 -1.4375 3.671875 -1.453125 3.796875 -1.484375 L 3.890625 -1.46875 L 4.046875 -0.03125 C 3.953125 0.0195312 3.816406 0.0625 3.640625 0.09375 C 3.472656 0.125 3.285156 0.140625 3.078125 0.140625 Z M 3.078125 0.140625 "/></g></g></g><g fill="#000000" fill-opacity="1"><g transform="translate(124.135088, 196.281798)"><g><path d="M 3.078125 0.140625 C 2.410156 0.140625 1.898438 -0.0351562 1.546875 -0.390625 C 1.191406 -0.753906 1.015625 -1.304688 1.015625 -2.046875 L 1.015625 -10.390625 L 2.890625 -10.390625 L 2.890625 -2.125 C 2.890625 -1.664062 3.078125 -1.4375 3.453125 -1.4375 C 3.554688 -1.4375 3.671875 -1.453125 3.796875 -1.484375 L 3.890625 -1.46875 L 4.046875 -0.03125 C 3.953125 0.0195312 3.816406 0.0625 3.640625 0.09375 C 3.472656 0.125 3.285156 0.140625 3.078125 0.140625 Z M 3.078125 0.140625 "/></g></g></g><g fill="#000000" fill-opacity="1"><g transform="translate(128.394098, 196.281798)"><g><path d="M 7.328125 -3.28125 L 2.5625 -3.28125 C 2.613281 -2.632812 2.796875 -2.164062 3.109375 -1.875 C 3.421875 -1.582031 3.847656 -1.4375 4.390625 -1.4375 C 4.816406 -1.4375 5.160156 -1.515625 5.421875 -1.671875 C 5.691406 -1.835938 5.90625 -2.082031 6.0625 -2.40625 L 6.203125 -2.40625 L 7.453125 -1.609375 C 7.203125 -1.085938 6.832031 -0.664062 6.34375 -0.34375 C 5.863281 -0.0195312 5.210938 0.140625 4.390625 0.140625 C 3.628906 0.140625 2.96875 -0.00390625 2.40625 -0.296875 C 1.851562 -0.585938 1.425781 -1.019531 1.125 -1.59375 C 0.820312 -2.164062 0.671875 -2.867188 0.671875 -3.703125 C 0.671875 -4.546875 0.828125 -5.253906 1.140625 -5.828125 C 1.460938 -6.410156 1.894531 -6.84375 2.4375 -7.125 C 2.976562 -7.414062 3.585938 -7.5625 4.265625 -7.5625 C 5.304688 -7.5625 6.109375 -7.28125 6.671875 -6.71875 C 7.234375 -6.164062 7.515625 -5.351562 7.515625 -4.28125 C 7.515625 -3.882812 7.5 -3.582031 7.46875 -3.375 Z M 5.734375 -4.484375 C 5.710938 -5.054688 5.578125 -5.46875 5.328125 -5.71875 C 5.085938 -5.976562 4.734375 -6.109375 4.265625 -6.109375 C 3.316406 -6.109375 2.757812 -5.566406 2.59375 -4.484375 Z M 5.734375 -4.484375 "/></g></g></g><g fill="#000000" fill-opacity="1"><g transform="translate(136.448598, 196.281798)"><g><path d="M 4.328125 0.140625 C 3.609375 0.140625 2.972656 -0.00390625 2.421875 -0.296875 C 1.867188 -0.597656 1.4375 -1.035156 1.125 -1.609375 C 0.820312 -2.191406 0.671875 -2.890625 0.671875 -3.703125 C 0.671875 -4.515625 0.820312 -5.207031 1.125 -5.78125 C 1.4375 -6.363281 1.863281 -6.804688 2.40625 -7.109375 C 2.957031 -7.410156 3.582031 -7.5625 4.28125 -7.5625 C 5.851562 -7.5625 6.859375 -6.992188 7.296875 -5.859375 L 6.015625 -4.9375 L 5.875 -4.9375 C 5.71875 -5.289062 5.515625 -5.550781 5.265625 -5.71875 C 5.023438 -5.882812 4.695312 -5.96875 4.28125 -5.96875 C 3.75 -5.96875 3.332031 -5.78125 3.03125 -5.40625 C 2.726562 -5.039062 2.578125 -4.472656 2.578125 -3.703125 C 2.578125 -2.941406 2.726562 -2.375 3.03125 -2 C 3.34375 -1.625 3.773438 -1.4375 4.328125 -1.4375 C 4.722656 -1.4375 5.0625 -1.546875 5.34375 -1.765625 C 5.625 -1.984375 5.828125 -2.296875 5.953125 -2.703125 L 6.09375 -2.71875 L 7.40625 -1.984375 C 7.21875 -1.359375 6.867188 -0.847656 6.359375 -0.453125 C 5.859375 -0.0546875 5.179688 0.140625 4.328125 0.140625 Z M 4.328125 0.140625 "/></g></g></g><g fill="#000000" fill-opacity="1"><g transform="translate(144.086602, 196.281798)"><g><path d="M 5.109375 -1.765625 L 5.59375 -0.390625 C 5.394531 -0.222656 5.140625 -0.09375 4.828125 0 C 4.523438 0.09375 4.179688 0.140625 3.796875 0.140625 C 2.992188 0.140625 2.382812 -0.078125 1.96875 -0.515625 C 1.550781 -0.953125 1.34375 -1.585938 1.34375 -2.421875 L 1.34375 -5.9375 L 0.21875 -5.9375 L 0.21875 -7.421875 L 1.34375 -7.421875 L 1.34375 -8.859375 L 3.21875 -9.171875 L 3.21875 -7.421875 L 5.3125 -7.421875 L 5.3125 -5.9375 L 3.21875 -5.9375 L 3.21875 -2.546875 C 3.21875 -2.179688 3.289062 -1.914062 3.4375 -1.75 C 3.59375 -1.582031 3.816406 -1.5 4.109375 -1.5 C 4.441406 -1.5 4.726562 -1.585938 4.96875 -1.765625 Z M 5.109375 -1.765625 "/></g></g></g><g fill="#000000" fill-opacity="1"><g transform="translate(149.843655, 196.281798)"><g><path d="M 2 -8.296875 C 1.65625 -8.296875 1.378906 -8.394531 1.171875 -8.59375 C 0.960938 -8.800781 0.859375 -9.066406 0.859375 -9.390625 C 0.859375 -9.710938 0.960938 -9.972656 1.171875 -10.171875 C 1.378906 -10.378906 1.65625 -10.484375 2 -10.484375 C 2.21875 -10.484375 2.414062 -10.4375 2.59375 -10.34375 C 2.769531 -10.25 2.90625 -10.117188 3 -9.953125 C 3.09375 -9.796875 3.140625 -9.609375 3.140625 -9.390625 C 3.140625 -9.179688 3.09375 -8.992188 3 -8.828125 C 2.90625 -8.660156 2.769531 -8.53125 2.59375 -8.4375 C 2.414062 -8.34375 2.21875 -8.296875 2 -8.296875 Z M 1.0625 0 L 1.0625 -7.40625 L 2.9375 -7.40625 L 2.9375 0 Z M 1.0625 0 "/></g></g></g><g fill="#000000" fill-opacity="1"><g transform="translate(153.833958, 196.281798)"><g><path d="M 5.109375 0 L 2.890625 0 L 0.140625 -7.40625 L 2.09375 -7.40625 L 3.9375 -2.125 L 4.09375 -2.125 L 5.9375 -7.40625 L 7.84375 -7.40625 Z M 5.109375 0 "/></g></g></g><g fill="#000000" fill-opacity="1"><g transform="translate(161.801128, 196.281798)"><g><path d="M 7.328125 -3.28125 L 2.5625 -3.28125 C 2.613281 -2.632812 2.796875 -2.164062 3.109375 -1.875 C 3.421875 -1.582031 3.847656 -1.4375 4.390625 -1.4375 C 4.816406 -1.4375 5.160156 -1.515625 5.421875 -1.671875 C 5.691406 -1.835938 5.90625 -2.082031 6.0625 -2.40625 L 6.203125 -2.40625 L 7.453125 -1.609375 C 7.203125 -1.085938 6.832031 -0.664062 6.34375 -0.34375 C 5.863281 -0.0195312 5.210938 0.140625 4.390625 0.140625 C 3.628906 0.140625 2.96875 -0.00390625 2.40625 -0.296875 C 1.851562 -0.585938 1.425781 -1.019531 1.125 -1.59375 C 0.820312 -2.164062 0.671875 -2.867188 0.671875 -3.703125 C 0.671875 -4.546875 0.828125 -5.253906 1.140625 -5.828125 C 1.460938 -6.410156 1.894531 -6.84375 2.4375 -7.125 C 2.976562 -7.414062 3.585938 -7.5625 4.265625 -7.5625 C 5.304688 -7.5625 6.109375 -7.28125 6.671875 -6.71875 C 7.234375 -6.164062 7.515625 -5.351562 7.515625 -4.28125 C 7.515625 -3.882812 7.5 -3.582031 7.46875 -3.375 Z M 5.734375 -4.484375 C 5.710938 -5.054688 5.578125 -5.46875 5.328125 -5.71875 C 5.085938 -5.976562 4.734375 -6.109375 4.265625 -6.109375 C 3.316406 -6.109375 2.757812 -5.566406 2.59375 -4.484375 Z M 5.734375 -4.484375 "/></g></g></g></svg>