<svg xmlns="http://www.w3.org/2000/svg" xmlns:xlink="http://www.w3.org/1999/xlink" width="1089" zoomAndPan="magnify" viewBox="0 0 816.75 453.749989" height="605" preserveAspectRatio="xMidYMid meet" version="1.0"><defs><filter x="0%" y="0%" width="100%" height="100%" id="01ca256792"><feColorMatrix values="0 0 0 0 1 0 0 0 0 1 0 0 0 0 1 0 0 0 1 0" color-interpolation-filters="sRGB"/></filter><mask id="7a8c36989c"><g filter="url(#01ca256792)"><rect x="-81.675" width="980.1" fill="#000000" y="-45.374999" height="544.499986" fill-opacity="0.67"/></g></mask><clipPath id="d754d9d603"><path d="M 1.046875 0.296875 L 75.949219 0.296875 L 75.949219 75 L 1.046875 75 Z M 1.046875 0.296875 " clip-rule="nonzero"/></clipPath><clipPath id="ea9ebb0235"><rect x="0" width="76" y="0" height="76"/></clipPath><mask id="27c6b98873"><g filter="url(#01ca256792)"><rect x="-81.675" width="980.1" fill="#000000" y="-45.374999" height="544.499986" fill-opacity="0.57"/></g></mask><clipPath id="a89e1771d5"><path d="M 0.375 0.90625 L 91 0.90625 L 91 57.675781 L 0.375 57.675781 Z M 0.375 0.90625 " clip-rule="nonzero"/></clipPath><clipPath id="6b12abb75b"><rect x="0" width="92" y="0" height="58"/></clipPath></defs><g mask="url(#7a8c36989c)"><g transform="matrix(1, 0, 0, 1, 709, 35)"><g clip-path="url(#ea9ebb0235)"><g clip-path="url(#d754d9d603)"><path fill="#00bf63" d="M 75.738281 30.445312 C 75.738281 28.699219 74.414062 27.273438 72.71875 27.070312 L 72.0625 18.488281 C 73.519531 18.09375 74.597656 16.777344 74.597656 15.203125 C 74.597656 13.316406 73.0625 11.785156 71.171875 11.785156 C 70.28125 11.785156 69.472656 12.136719 68.863281 12.695312 L 58.828125 5.195312 C 59.046875 4.746094 59.183594 4.246094 59.183594 3.714844 C 59.183594 1.828125 57.644531 0.296875 55.753906 0.296875 C 54.089844 0.296875 52.703125 1.488281 52.394531 3.058594 C 43.386719 3.09375 32.433594 3.121094 27.09375 3.101562 C 26.804688 1.507812 25.410156 0.296875 23.730469 0.296875 C 21.839844 0.296875 20.304688 1.828125 20.304688 3.714844 C 20.304688 4.109375 20.382812 4.484375 20.507812 4.839844 C 18.15625 6.34375 14.054688 9.089844 6.855469 14.074219 C 6.238281 13.476562 5.398438 13.105469 4.472656 13.105469 C 2.585938 13.105469 1.046875 14.640625 1.046875 16.523438 C 1.046875 18.179688 2.238281 19.5625 3.808594 19.871094 L 3.808594 28.933594 C 2.238281 29.246094 1.046875 30.628906 1.046875 32.285156 C 1.046875 34.167969 2.585938 35.703125 4.472656 35.703125 C 5.199219 35.703125 5.867188 35.472656 6.421875 35.089844 L 12.964844 41.417969 C 12.542969 42.074219 12.339844 42.839844 12.425781 43.625 C 12.613281 45.375 14.101562 46.679688 15.828125 46.679688 C 15.949219 46.679688 16.074219 46.671875 16.195312 46.660156 C 17.109375 46.5625 17.925781 46.117188 18.503906 45.40625 C 18.726562 45.125 18.890625 44.8125 19.015625 44.488281 L 29.988281 46.328125 C 29.992188 46.417969 29.980469 46.507812 29.992188 46.601562 C 30.179688 48.351562 31.667969 49.65625 33.394531 49.65625 C 33.515625 49.65625 33.640625 49.648438 33.761719 49.636719 C 34.671875 49.539062 35.488281 49.097656 36.066406 48.386719 C 36.234375 48.175781 36.371094 47.945312 36.484375 47.707031 L 42.589844 49.277344 C 42.578125 49.464844 42.574219 49.652344 42.59375 49.839844 C 42.78125 51.59375 44.273438 52.898438 46.003906 52.898438 C 46.023438 52.898438 46.042969 52.894531 46.0625 52.894531 L 48.09375 63.003906 C 46.851562 63.519531 45.980469 64.738281 45.980469 66.160156 C 45.980469 68.042969 47.515625 69.578125 49.40625 69.578125 C 51.292969 69.578125 52.832031 68.042969 52.832031 66.160156 C 52.832031 64.273438 51.292969 62.742188 49.40625 62.742188 C 49.402344 62.742188 49.402344 62.742188 49.398438 62.742188 L 47.367188 52.597656 C 47.867188 52.382812 48.316406 52.0625 48.667969 51.625 C 49.242188 50.914062 49.507812 50.023438 49.410156 49.117188 C 49.304688 48.117188 48.765625 47.277344 48.011719 46.726562 L 50.683594 40.953125 C 50.941406 41.015625 51.207031 41.058594 51.480469 41.058594 C 51.617188 41.058594 51.746094 41.035156 51.878906 41.019531 L 54.089844 47.816406 C 53.042969 48.402344 52.328125 49.503906 52.328125 50.785156 C 52.328125 52.464844 53.550781 53.855469 55.15625 54.140625 L 55.460938 68.238281 C 53.929688 68.574219 52.777344 69.9375 52.777344 71.566406 C 52.777344 73.453125 54.3125 74.984375 56.203125 74.984375 C 58.09375 74.984375 59.628906 73.453125 59.628906 71.566406 C 59.628906 69.886719 58.402344 68.492188 56.796875 68.210938 L 56.488281 54.117188 C 58.027344 53.78125 59.183594 52.417969 59.183594 50.785156 C 59.183594 50.679688 59.160156 50.582031 59.152344 50.480469 L 68.078125 47.847656 C 68.65625 48.917969 69.777344 49.65625 71.082031 49.65625 C 72.96875 49.65625 74.507812 48.125 74.507812 46.238281 C 74.507812 44.675781 73.445312 43.371094 72.007812 42.964844 L 72.714844 33.824219 C 74.410156 33.621094 75.738281 32.191406 75.738281 30.445312 Z M 69.554688 43.195312 L 66.242188 38.953125 L 70.71875 33.457031 C 70.933594 33.566406 71.15625 33.65625 71.390625 33.722656 L 70.679688 42.863281 C 70.277344 42.910156 69.898438 43.023438 69.554688 43.195312 Z M 33.242188 39.84375 L 32.441406 33.671875 C 33.796875 33.214844 34.785156 31.949219 34.785156 30.445312 C 34.785156 30.292969 34.757812 30.144531 34.738281 29.996094 L 50.046875 24.769531 C 50.476562 25.496094 51.164062 26.046875 51.988281 26.304688 L 51.164062 34.253906 C 49.472656 34.414062 48.136719 35.792969 48.070312 37.503906 Z M 32.308594 43.003906 C 31.695312 43.210938 31.144531 43.578125 30.730469 44.097656 C 30.503906 44.375 30.339844 44.6875 30.214844 45.015625 L 19.941406 43.289062 L 32.097656 41.375 Z M 7.382812 18.308594 L 14.835938 21.054688 C 14.808594 21.230469 14.78125 21.40625 14.78125 21.589844 C 14.78125 22.140625 14.925781 22.65625 15.160156 23.117188 L 6.699219 29.707031 C 6.257812 29.328125 5.730469 29.050781 5.140625 28.933594 L 5.140625 19.871094 C 6.089844 19.683594 6.890625 19.101562 7.382812 18.308594 Z M 70.734375 18.578125 L 71.394531 27.167969 C 71.300781 27.195312 71.207031 27.21875 71.117188 27.253906 L 58.199219 6.390625 L 68.070312 13.769531 C 67.867188 14.207031 67.746094 14.6875 67.746094 15.203125 C 67.746094 16.9375 69.050781 18.359375 70.734375 18.578125 Z M 54.128906 19.84375 L 55.945312 7.109375 C 56.296875 7.089844 56.632812 7.023438 56.945312 6.90625 L 69.980469 27.953125 C 69.765625 28.152344 69.578125 28.378906 69.421875 28.625 L 56.363281 23.628906 C 56.394531 23.441406 56.421875 23.253906 56.421875 23.054688 C 56.421875 21.570312 55.457031 20.3125 54.128906 19.84375 Z M 53.996094 6.628906 C 54.191406 6.75 54.402344 6.847656 54.625 6.921875 L 52.804688 19.65625 C 51.789062 19.714844 50.894531 20.210938 50.304688 20.964844 L 43.855469 17.742188 Z M 49.703125 22.15625 C 49.625 22.445312 49.566406 22.742188 49.566406 23.054688 C 49.566406 23.210938 49.59375 23.355469 49.613281 23.503906 L 34.304688 28.734375 C 34.242188 28.628906 34.179688 28.523438 34.105469 28.425781 L 42.921875 18.765625 Z M 7.765625 31.390625 C 7.707031 31.167969 7.625 30.957031 7.523438 30.757812 L 15.984375 24.167969 C 16.585938 24.683594 17.355469 25.007812 18.210938 25.007812 C 19.148438 25.007812 19.996094 24.628906 20.617188 24.015625 L 28.199219 29.121094 C 28.082031 29.398438 28.015625 29.699219 27.976562 30.007812 Z M 33.117188 27.527344 C 33.035156 27.480469 32.949219 27.433594 32.859375 27.390625 L 35.417969 17.773438 C 35.492188 17.777344 35.558594 17.792969 35.632812 17.792969 C 36.730469 17.792969 37.695312 17.269531 38.324219 16.464844 L 41.679688 18.144531 Z M 34.128906 17.433594 L 31.570312 27.050781 C 31.5 27.046875 31.429688 27.027344 31.359375 27.027344 C 31.265625 27.027344 31.175781 27.046875 31.082031 27.054688 L 25.285156 6.738281 C 25.457031 6.652344 25.621094 6.554688 25.773438 6.4375 L 32.695312 12.640625 C 32.390625 13.152344 32.207031 13.742188 32.207031 14.375 C 32.207031 15.71875 32.996094 16.875 34.128906 17.433594 Z M 23.730469 7.128906 C 23.824219 7.128906 23.910156 7.109375 24.003906 7.101562 L 29.804688 27.414062 C 29.492188 27.578125 29.199219 27.773438 28.949219 28.019531 L 21.367188 22.914062 C 21.539062 22.507812 21.636719 22.058594 21.636719 21.589844 C 21.636719 20.292969 20.902344 19.175781 19.832031 18.597656 L 23.382812 7.09375 C 23.5 7.105469 23.609375 7.128906 23.730469 7.128906 Z M 19.035156 42.082031 C 18.503906 40.652344 17.054688 39.699219 15.46875 39.863281 C 14.898438 39.925781 14.367188 40.136719 13.90625 40.453125 L 7.347656 34.128906 C 7.621094 33.714844 7.789062 33.234375 7.855469 32.722656 L 28.066406 31.339844 C 28.441406 32.714844 29.652344 33.738281 31.125 33.839844 L 31.925781 40.050781 Z M 52.488281 34.390625 L 53.316406 26.441406 C 53.746094 26.398438 54.152344 26.28125 54.523438 26.097656 L 60.539062 33.808594 L 54.425781 35.917969 C 53.996094 35.191406 53.3125 34.644531 52.488281 34.390625 Z M 55.574219 25.277344 C 55.6875 25.152344 55.792969 25.019531 55.882812 24.875 L 68.941406 29.871094 C 68.910156 30.058594 68.882812 30.25 68.882812 30.445312 C 68.882812 30.605469 68.910156 30.753906 68.929688 30.90625 L 61.871094 33.347656 Z M 69.367188 32.167969 C 69.460938 32.328125 69.566406 32.472656 69.683594 32.613281 L 65.402344 37.875 L 62.738281 34.457031 Z M 52.398438 4.394531 C 52.5 4.890625 52.714844 5.34375 53.007812 5.734375 L 42.617188 17.121094 L 38.921875 15.273438 C 39.003906 14.988281 39.058594 14.6875 39.058594 14.375 C 39.058594 12.492188 37.523438 10.960938 35.632812 10.960938 C 34.863281 10.960938 34.160156 11.222656 33.589844 11.648438 L 26.664062 5.449219 C 26.851562 5.136719 27 4.796875 27.078125 4.429688 C 32.882812 4.460938 44.625 4.425781 52.398438 4.394531 Z M 22.109375 6.703125 L 18.554688 18.207031 C 18.441406 18.195312 18.328125 18.171875 18.210938 18.171875 C 16.976562 18.171875 15.902344 18.832031 15.300781 19.808594 L 7.847656 17.058594 C 7.875 16.882812 7.902344 16.707031 7.902344 16.523438 C 7.902344 16.042969 7.800781 15.585938 7.617188 15.171875 C 12.296875 11.941406 17.910156 8.113281 21.1875 5.984375 C 21.449219 6.277344 21.761719 6.515625 22.109375 6.703125 Z M 46.800781 46.171875 C 46.429688 46.082031 46.039062 46.039062 45.640625 46.082031 C 44.730469 46.175781 43.910156 46.621094 43.335938 47.332031 C 43.171875 47.535156 43.039062 47.757812 42.925781 47.988281 L 36.8125 46.414062 C 36.820312 46.238281 36.824219 46.058594 36.808594 45.875 C 36.628906 44.203125 35.265625 42.949219 33.632812 42.839844 L 33.414062 41.164062 L 48.277344 38.820312 C 48.515625 39.457031 48.933594 40.003906 49.472656 40.394531 Z M 53.148438 40.609375 C 54.191406 40.023438 54.910156 38.917969 54.910156 37.640625 C 54.910156 37.484375 54.882812 37.332031 54.863281 37.179688 L 61.40625 34.917969 L 64.539062 38.9375 L 57.34375 47.773438 C 56.867188 47.523438 56.332031 47.367188 55.753906 47.367188 C 55.621094 47.367188 55.488281 47.390625 55.359375 47.40625 Z M 58.773438 49.203125 C 58.664062 48.992188 58.53125 48.796875 58.378906 48.613281 L 65.378906 40.015625 L 68.5 44.015625 C 67.980469 44.613281 67.652344 45.386719 67.652344 46.238281 C 67.652344 46.351562 67.675781 46.460938 67.6875 46.574219 Z M 58.773438 49.203125 " fill-opacity="1" fill-rule="nonzero"/></g></g></g></g><g mask="url(#27c6b98873)"><g transform="matrix(1, 0, 0, 1, 4, 388)"><g clip-path="url(#6b12abb75b)"><path fill="#00bf63" d="M 59.019531 23.5 C 58.105469 26.011719 55.9375 27.964844 53.210938 28.515625 C 52.246094 28.703125 51.277344 28.082031 51.078125 27.101562 C 50.882812 26.121094 51.515625 25.164062 52.496094 24.96875 C 54.453125 24.570312 55.871094 22.832031 55.871094 20.828125 C 55.871094 18.5 53.976562 16.605469 51.648438 16.605469 C 49.320312 16.605469 47.425781 18.5 47.425781 20.828125 L 47.425781 37.71875 C 47.425781 40.050781 49.320312 41.945312 51.648438 41.945312 C 53.941406 41.945312 55.835938 40.070312 55.871094 37.769531 C 55.882812 37.007812 56.367188 36.335938 57.082031 36.085938 C 59.964844 35.078125 61.902344 32.339844 61.902344 29.273438 C 61.902344 26.960938 60.796875 24.839844 59.019531 23.5 Z M 59.019531 23.5 " fill-opacity="1" fill-rule="nonzero"/><path fill="#00bf63" d="M 39.582031 16.605469 C 37.253906 16.605469 35.359375 18.5 35.359375 20.828125 C 35.359375 22.832031 36.78125 24.570312 38.734375 24.96875 C 39.714844 25.164062 40.347656 26.121094 40.152344 27.101562 C 39.957031 28.066406 38.949219 28.703125 38.019531 28.515625 C 35.292969 27.964844 33.125 26.011719 32.210938 23.5 C 30.433594 24.839844 29.328125 26.960938 29.328125 29.273438 C 29.328125 32.339844 31.265625 35.078125 34.148438 36.085938 C 34.863281 36.335938 35.347656 37.007812 35.359375 37.769531 C 35.394531 40.070312 37.289062 41.945312 39.582031 41.945312 C 41.910156 41.945312 43.804688 40.050781 43.804688 37.71875 L 43.804688 20.828125 C 43.804688 18.5 41.910156 16.605469 39.582031 16.605469 Z M 39.582031 16.605469 " fill-opacity="1" fill-rule="nonzero"/><g clip-path="url(#a89e1771d5)"><path fill="#00bf63" d="M 80.335938 31.085938 C 81.085938 33.1875 83.074219 34.703125 85.429688 34.703125 C 88.421875 34.703125 90.859375 32.269531 90.859375 29.273438 C 90.859375 26.28125 88.421875 23.84375 85.429688 23.84375 C 83.074219 23.84375 81.085938 25.363281 80.335938 27.464844 L 73.875 27.464844 C 73.6875 24.503906 73.050781 21.667969 72.019531 19.019531 L 79.398438 19.019531 C 80.054688 19.019531 80.660156 18.664062 80.980469 18.089844 L 84.539062 11.691406 C 84.832031 11.738281 85.125 11.78125 85.429688 11.78125 C 88.421875 11.78125 90.859375 9.34375 90.859375 6.351562 C 90.859375 3.359375 88.421875 0.921875 85.429688 0.921875 C 82.4375 0.921875 80 3.359375 80 6.351562 C 80 7.726562 80.53125 8.96875 81.378906 9.925781 L 78.332031 15.398438 L 70.316406 15.398438 C 65.449219 6.769531 56.207031 0.921875 45.617188 0.921875 C 35.023438 0.921875 25.78125 6.769531 20.914062 15.398438 L 12.898438 15.398438 L 9.851562 9.925781 C 10.699219 8.96875 11.230469 7.726562 11.230469 6.351562 C 11.230469 3.359375 8.792969 0.921875 5.800781 0.921875 C 2.804688 0.921875 0.371094 3.359375 0.371094 6.351562 C 0.371094 9.34375 2.804688 11.78125 5.800781 11.78125 C 6.105469 11.78125 6.402344 11.738281 6.691406 11.691406 L 10.25 18.089844 C 10.570312 18.664062 11.175781 19.019531 11.832031 19.019531 L 19.210938 19.019531 C 18.179688 21.667969 17.542969 24.503906 17.355469 27.464844 L 10.894531 27.464844 C 10.144531 25.363281 8.15625 23.84375 5.800781 23.84375 C 2.804688 23.84375 0.371094 26.28125 0.371094 29.273438 C 0.371094 32.269531 2.804688 34.703125 5.800781 34.703125 C 8.15625 34.703125 10.144531 33.1875 10.894531 31.085938 L 17.355469 31.085938 C 17.542969 34.046875 18.179688 36.882812 19.210938 39.53125 L 11.832031 39.53125 C 11.175781 39.53125 10.570312 39.886719 10.25 40.460938 L 6.691406 46.859375 C 6.402344 46.8125 6.105469 46.769531 5.800781 46.769531 C 2.804688 46.769531 0.371094 49.207031 0.371094 52.199219 C 0.371094 55.191406 2.804688 57.628906 5.800781 57.628906 C 8.792969 57.628906 11.230469 55.191406 11.230469 52.199219 C 11.230469 50.824219 10.699219 49.582031 9.851562 48.621094 L 12.898438 43.148438 L 20.914062 43.148438 C 25.78125 51.777344 35.023438 57.628906 45.617188 57.628906 C 56.207031 57.628906 65.449219 51.777344 70.316406 43.148438 L 78.332031 43.148438 L 81.378906 48.621094 C 80.53125 49.582031 80 50.824219 80 52.199219 C 80 55.191406 82.4375 57.628906 85.429688 57.628906 C 88.421875 57.628906 90.859375 55.191406 90.859375 52.199219 C 90.859375 49.207031 88.421875 46.769531 85.429688 46.769531 C 85.125 46.769531 84.832031 46.8125 84.539062 46.859375 L 80.980469 40.460938 C 80.660156 39.886719 80.054688 39.53125 79.398438 39.53125 L 72.019531 39.53125 C 73.050781 36.882812 73.6875 34.046875 73.875 31.085938 Z M 59.375 39.050781 C 58.734375 42.738281 55.492188 45.5625 51.648438 45.5625 C 49.226562 45.5625 47.054688 44.457031 45.617188 42.726562 C 44.175781 44.457031 42.003906 45.5625 39.582031 45.5625 C 35.738281 45.5625 32.5 42.738281 31.855469 39.050781 C 28.136719 37.269531 25.707031 33.476562 25.707031 29.273438 C 25.707031 25.074219 28.152344 21.304688 31.871094 19.523438 C 32.5 15.820312 35.707031 12.988281 39.582031 12.988281 C 42.003906 12.988281 44.175781 14.09375 45.617188 15.824219 C 47.054688 14.09375 49.226562 12.988281 51.648438 12.988281 C 55.523438 12.988281 58.730469 15.820312 59.359375 19.523438 C 63.078125 21.304688 65.523438 25.070312 65.523438 29.273438 C 65.523438 33.476562 63.097656 37.269531 59.375 39.050781 Z M 59.375 39.050781 " fill-opacity="1" fill-rule="nonzero"/></g></g></g></g></svg>