<svg xmlns="http://www.w3.org/2000/svg" xmlns:xlink="http://www.w3.org/1999/xlink" width="130" zoomAndPan="magnify" viewBox="0 0 97.5 30.000001" height="40" preserveAspectRatio="xMidYMid meet" version="1.0"><defs><g/></defs><g fill="#ededed" fill-opacity="1"><g transform="translate(-1.306952, 27.262779)"><g><path d="M 8.0625 0 C 6.707031 0 5.609375 -0.414062 4.765625 -1.25 C 3.921875 -2.09375 3.5 -3.195312 3.5 -4.5625 L 3.5 -25.9375 L 8.0625 -25.9375 L 8.0625 -2.796875 L 19.984375 -2.796875 L 19.984375 -25.9375 L 24.53125 -25.9375 L 24.53125 -4.5625 C 24.53125 -3.195312 24.113281 -2.09375 23.28125 -1.25 C 22.457031 -0.414062 21.359375 0 19.984375 0 Z M 8.0625 0 "/></g></g></g><g fill="#ededed" fill-opacity="1"><g transform="translate(22.554537, 27.262779)"><g><path d="M 19.984375 -25.9375 C 21.359375 -25.9375 22.457031 -25.519531 23.28125 -24.6875 C 24.113281 -23.863281 24.53125 -22.757812 24.53125 -21.375 L 24.53125 0 L 19.984375 0 L 19.984375 -23.125 L 8.0625 -23.125 L 8.0625 0 L 3.5 0 L 3.5 -21.375 C 3.5 -22.757812 3.921875 -23.863281 4.765625 -24.6875 C 5.609375 -25.519531 6.707031 -25.9375 8.0625 -25.9375 Z M 19.984375 -25.9375 "/></g></g></g><g fill="#ededed" fill-opacity="1"><g transform="translate(46.416026, 27.262779)"><g><path d="M 21.734375 -25.9375 L 26.28125 -25.9375 L 17.140625 0 L 10.90625 0 L 1.75 -25.9375 L 6.3125 -25.9375 L 14.015625 -4.0625 Z M 21.734375 -25.9375 "/></g></g></g><g fill="#ededed" fill-opacity="1"><g transform="translate(70.277516, 27.262779)"><g><path d="M 24.53125 -16.125 C 24.53125 -14.769531 24.113281 -13.671875 23.28125 -12.828125 C 22.457031 -11.984375 21.359375 -11.5625 19.984375 -11.5625 L 18.890625 -11.5625 L 24.53125 0 L 19.625 0 L 13.984375 -11.5625 L 8.0625 -11.5625 L 8.0625 0 L 3.5 0 L 3.5 -25.9375 L 19.984375 -25.9375 C 21.359375 -25.9375 22.457031 -25.519531 23.28125 -24.6875 C 24.113281 -23.863281 24.53125 -22.757812 24.53125 -21.375 Z M 19.984375 -14.375 L 19.984375 -23.125 L 8.0625 -23.125 L 8.0625 -14.375 Z M 19.984375 -14.375 "/></g></g></g></svg>