<svg xmlns="http://www.w3.org/2000/svg" xmlns:xlink="http://www.w3.org/1999/xlink" width="250" zoomAndPan="magnify" viewBox="0 0 187.5 112.499997" height="150" preserveAspectRatio="xMidYMid meet" version="1.0"><defs><g/><clipPath id="419d040b81"><path d="M 0.164062 0 L 186.835938 0 L 186.835938 112.003906 L 0.164062 112.003906 Z M 0.164062 0 " clip-rule="nonzero"/></clipPath></defs><g clip-path="url(#419d040b81)"><path fill="#ffffff" d="M 0.164062 0 L 186.835938 0 L 186.835938 112.003906 L 0.164062 112.003906 Z M 0.164062 0 " fill-opacity="1" fill-rule="nonzero"/><path fill="#ffffff" d="M 0.164062 0 L 186.835938 0 L 186.835938 112.003906 L 0.164062 112.003906 Z M 0.164062 0 " fill-opacity="1" fill-rule="nonzero"/></g><g fill="#343434" fill-opacity="1"><g transform="translate(-3.302604, 75.788159)"><g><path d="M 15.65625 0 C 13.03125 0 10.898438 -0.816406 9.265625 -2.453125 C 7.628906 -4.085938 6.8125 -6.222656 6.8125 -8.859375 L 6.8125 -50.390625 L 15.65625 -50.390625 L 15.65625 -5.453125 L 38.8125 -5.453125 L 38.8125 -50.390625 L 47.671875 -50.390625 L 47.671875 -8.859375 C 47.671875 -6.222656 46.863281 -4.085938 45.25 -2.453125 C 43.632812 -0.816406 41.488281 0 38.8125 0 Z M 15.65625 0 "/></g></g></g><g fill="#00bf63" fill-opacity="1"><g transform="translate(43.073309, 75.788159)"><g><path d="M 38.8125 -50.390625 C 41.488281 -50.390625 43.632812 -49.582031 45.25 -47.96875 C 46.863281 -46.363281 47.671875 -44.21875 47.671875 -41.53125 L 47.671875 0 L 38.8125 0 L 38.8125 -44.9375 L 15.65625 -44.9375 L 15.65625 0 L 6.8125 0 L 6.8125 -41.53125 C 6.8125 -44.21875 7.628906 -46.363281 9.265625 -47.96875 C 10.898438 -49.582031 13.03125 -50.390625 15.65625 -50.390625 Z M 38.8125 -50.390625 "/></g></g></g><g fill="#343434" fill-opacity="1"><g transform="translate(89.449222, 75.788159)"><g><path d="M 42.21875 -50.390625 L 51.078125 -50.390625 L 33.296875 0 L 21.171875 0 L 3.40625 -50.390625 L 12.25 -50.390625 L 27.234375 -7.90625 Z M 42.21875 -50.390625 "/></g></g></g><g fill="#343434" fill-opacity="1"><g transform="translate(135.815852, 75.788159)"><g><path d="M 47.671875 -31.328125 C 47.671875 -28.691406 46.863281 -26.554688 45.25 -24.921875 C 43.632812 -23.285156 41.488281 -22.46875 38.8125 -22.46875 L 36.703125 -22.46875 L 47.671875 0 L 38.125 0 L 27.171875 -22.46875 L 15.65625 -22.46875 L 15.65625 0 L 6.8125 0 L 6.8125 -50.390625 L 38.8125 -50.390625 C 41.488281 -50.390625 43.632812 -49.582031 45.25 -47.96875 C 46.863281 -46.363281 47.671875 -44.21875 47.671875 -41.53125 Z M 38.8125 -27.921875 L 38.8125 -44.9375 L 15.65625 -44.9375 L 15.65625 -27.921875 Z M 38.8125 -27.921875 "/></g></g></g></svg>